<svg xmlns="http://www.w3.org/2000/svg" width="92" height="92" viewBox="0 0 92 92" fill="none">
    <path d="M77.6042 14.4023C69.52 6.31129 58.3418 1.30744 45.9999 1.30744C33.6579 1.30744 22.4865 6.31129 14.3955 14.4023C6.31129 22.4865 1.30744 33.6648 1.30744 46.0067C1.30744 58.3486 6.31129 69.52 14.3955 77.6111C22.4865 85.7021 33.6579 90.6991 45.9999 90.6991C58.3418 90.6991 69.5132 85.6953 77.6042 77.6111C85.6953 69.52 90.6923 58.3486 90.6923 46.0067C90.6991 33.6648 85.6953 22.4865 77.6042 14.4023ZM45.9999 0C58.7046 0 70.2046 5.1476 78.5283 13.4714C86.8521 21.7952 91.9997 33.2951 91.9997 45.9999C91.9997 58.7046 86.8521 70.2046 78.5283 78.5283C70.2046 86.8521 58.7046 91.9997 45.9999 91.9997C33.2951 91.9997 21.7952 86.8521 13.4714 78.5283C5.1476 70.2046 0 58.7046 0 46.0067C0 33.302 5.1476 21.802 13.4714 13.4782C21.7952 5.15445 33.2951 0 45.9999 0Z" fill="#0C0E14"/>
    <path d="M65.2406 26.7715C60.3189 21.8497 53.5148 18.8036 45.9987 18.8036C38.4827 18.8036 31.6854 21.8497 26.7568 26.7715C21.8351 31.6932 18.789 38.4973 18.789 46.0134C18.789 53.5294 21.8351 60.3267 26.7568 65.2553C31.6785 70.177 38.4827 73.2231 45.9987 73.2231C53.5148 73.2231 60.3121 70.177 65.2406 65.2553C70.1623 60.3336 73.2084 53.5294 73.2084 46.0134C73.2084 38.4973 70.1623 31.6932 65.2406 26.7715ZM45.9987 18.1465C53.6927 18.1465 60.6612 21.2679 65.6992 26.306C70.7442 31.3509 73.8587 38.3125 73.8587 46.0065C73.8587 53.7005 70.7373 60.669 65.6992 65.7071C60.6543 70.752 53.6927 73.8666 45.9987 73.8666C38.3047 73.8666 31.3363 70.7451 26.2982 65.7071C21.2532 60.669 18.1387 53.7005 18.1387 46.0065C18.1387 38.3125 21.2601 31.3441 26.2982 26.306C31.3363 21.2679 38.3047 18.1465 45.9987 18.1465Z" fill="#0C0E14"/>
    <path d="M73.3821 30.0232L71.9514 30.9336C71.8145 31.0226 71.7324 31.091 71.705 31.1389C71.6776 31.1869 71.6776 31.2416 71.6981 31.3032L71.2258 31.6044L70.5687 30.5776L71.041 30.2764C71.0889 30.3175 71.1437 30.3449 71.2053 30.3449C71.2669 30.3449 71.3627 30.3038 71.4996 30.2148L72.9303 29.3044C73.0672 29.2154 73.1493 29.147 73.1699 29.0922C73.1973 29.0375 73.1973 28.9759 73.1767 28.9143L73.6285 28.6267L74.2856 29.6535L73.8339 29.941C73.7859 29.9 73.7312 29.8794 73.6764 29.8794C73.6148 29.8931 73.519 29.9342 73.3821 30.0232ZM70.9794 28.2845L70.1922 28.791L70.2675 28.9074C70.3702 29.0717 70.4797 29.1744 70.5961 29.2086C70.7124 29.2428 70.8357 29.2154 70.9726 29.1333C71.0958 29.058 71.1642 28.9553 71.1848 28.8321C71.2053 28.7089 71.1642 28.5651 71.0547 28.4009L70.9794 28.2845ZM71.6913 26.6006L72.1431 26.3131L72.8208 27.3741L72.369 27.6616C72.3348 27.6068 72.28 27.5794 72.2115 27.5794C72.1362 27.5794 72.0336 27.6205 71.9035 27.7026L71.5339 27.9422L71.6708 28.1613C71.883 28.4967 71.9788 28.8184 71.9583 29.1128C71.9309 29.414 71.7598 29.6672 71.4449 29.8657C71.1232 30.0711 70.822 30.1259 70.5345 30.0163C70.2538 29.9137 70.0005 29.6946 69.7883 29.3592L69.0901 28.264L69.5624 27.9628C69.6104 28.0107 69.6651 28.0312 69.7199 28.0312C69.7746 28.0312 69.8705 27.9833 70.0074 27.8943L71.438 26.9839C71.5749 26.8949 71.6571 26.8265 71.6845 26.7785C71.7118 26.7238 71.7118 26.6622 71.6913 26.6006ZM70.5139 26.2925L70.0142 25.7107L70.1306 25.6149C70.2675 25.4985 70.3291 25.389 70.3154 25.2931C70.3017 25.1973 70.2607 25.1015 70.1785 25.0056C70.0964 24.9098 70.0005 24.8619 69.891 24.8687C69.7815 24.8756 69.6514 24.9509 69.494 25.0809L68.5425 25.8955C68.3851 26.0324 68.2961 26.1488 68.2687 26.2583C68.2413 26.3678 68.2687 26.4705 68.3577 26.5663C68.4398 26.6622 68.5425 26.7169 68.6589 26.7169C68.7752 26.7169 68.9121 26.6485 69.0764 26.5184L69.1791 26.4294L69.6788 27.0113L68.83 27.7369C68.4535 27.5863 68.1249 27.3399 67.8374 27.0113C67.6869 26.8333 67.5705 26.669 67.5089 26.5116C67.4404 26.361 67.413 26.2172 67.4199 26.0803C67.4267 25.9434 67.4747 25.8134 67.5499 25.6902C67.6321 25.5669 67.7416 25.4437 67.8785 25.3205L69.0764 24.2937C69.3434 24.061 69.6104 23.9652 69.8705 23.9925C70.1306 24.0199 70.4044 24.2116 70.6987 24.5538C70.9657 24.8619 71.1574 25.2247 71.2737 25.6354L70.5139 26.2925ZM65.6264 24.6497L64.7708 23.8351L65.1541 23.4312C65.202 23.4518 65.2568 23.4586 65.3184 23.4449C65.38 23.4312 65.4553 23.3902 65.558 23.3217L67.0913 22.2744C67.1461 22.2402 67.1871 22.1922 67.2214 22.1443C67.2556 22.0896 67.2488 22.0485 67.2214 22.0143L67.6526 21.5625L69.0354 22.8836L68.6041 23.3354C68.5699 23.3012 68.5288 23.3012 68.4741 23.3354C68.4261 23.3696 68.3782 23.4107 68.344 23.4723L67.3651 25.0535C67.3035 25.1562 67.2693 25.2384 67.2556 25.2931C67.2419 25.3479 67.2488 25.4027 67.2761 25.4506L66.8928 25.8544L66.0098 25.0125L66.4 24.6086C66.441 24.6497 66.4889 24.6634 66.5369 24.6497C66.5848 24.636 66.6122 24.6155 66.6327 24.6018C66.6943 24.5402 66.7422 24.4717 66.7901 24.4033L66.8175 24.3553L66.2494 23.8146L66.2014 23.8488C66.133 23.8967 66.0645 23.9515 66.0098 24.0131C65.9961 24.0268 65.9824 24.061 65.9687 24.1089C65.955 24.1568 65.9755 24.2047 66.0166 24.2458L65.6264 24.6497ZM67.8785 22.6372L66.708 23.4791L67.1255 23.8762L67.9127 22.6646L67.8785 22.6372ZM65.955 20.1866L66.7696 20.8232L66.441 21.2476C66.4068 21.2202 66.3726 21.2065 66.3315 21.2065C66.2904 21.2065 66.2288 21.2202 66.1535 21.2408L65.1541 21.5009C65.3116 21.6789 65.4006 21.85 65.4211 22.0074C65.4416 22.1717 65.3732 22.3497 65.2157 22.555L65.0104 22.822C64.9214 22.9384 64.8666 23.0274 64.8461 23.0958C64.8324 23.1574 64.8392 23.2122 64.8803 23.2396L64.5381 23.6777L63.7988 23.0958C63.8125 23.0411 63.8398 22.9863 63.8741 22.9315C63.9083 22.8699 63.9699 22.7809 64.0726 22.6577L64.3669 22.2812C64.4833 22.1375 64.5381 22.0074 64.5449 21.8911C64.5517 21.7815 64.4833 21.672 64.3532 21.5693L64.1547 21.4187L63.8056 21.8637C63.7029 21.9937 63.6482 22.0896 63.6413 22.1443C63.6345 22.1991 63.655 22.2539 63.6892 22.3086L63.347 22.7467L62.3818 21.9937L62.7241 21.5556C62.7857 21.583 62.8473 21.583 62.8952 21.5625C62.95 21.542 63.0253 21.4667 63.1211 21.3366L64.1684 20.0018C64.2711 19.8717 64.3259 19.7827 64.3327 19.728C64.3395 19.6732 64.3259 19.6184 64.2848 19.5637L64.6133 19.1393L65.5785 19.8923L65.25 20.3167C65.2089 20.2824 65.1541 20.2756 65.0994 20.2961C65.0378 20.3167 64.9556 20.392 64.8461 20.5357L64.4901 20.9943L65.2842 20.8027C65.3732 20.7821 65.4485 20.7479 65.5101 20.7068C65.5717 20.6658 65.6264 20.611 65.6744 20.5562L65.955 20.1866ZM60.4994 20.878L59.4384 20.2687L59.719 19.7827C59.7875 19.8033 59.8422 19.7964 59.8901 19.769C59.9381 19.7417 60.0065 19.6527 60.0887 19.5158L60.9375 18.044C61.0196 17.9003 61.0607 17.8045 61.0607 17.7497C61.0607 17.6949 61.0333 17.6402 60.9854 17.5923L61.2523 17.1268L62.3134 17.736L62.0464 18.2015C61.9779 18.1809 61.9232 18.1878 61.8753 18.2152C61.8273 18.2426 61.7589 18.3315 61.6768 18.4684L61.2455 19.2214L62.3955 18.9065C62.4366 18.8312 62.4708 18.7696 62.4913 18.7217C62.5119 18.6738 62.5187 18.6259 62.5256 18.5917C62.5256 18.5574 62.5256 18.5301 62.505 18.5027C62.4913 18.4821 62.4708 18.4548 62.4503 18.4274L62.7172 17.9687L63.7851 18.5848L63.5181 19.0503C63.4565 19.0298 63.3949 19.0366 63.3401 19.064C63.2854 19.0914 63.2169 19.1735 63.1416 19.3173L62.2928 20.789C62.2107 20.9327 62.1696 21.0286 62.1696 21.0902C62.1696 21.1518 62.197 21.1997 62.2518 21.2476L61.9711 21.7336L60.9032 21.1175L61.1839 20.6315C61.2523 20.6521 61.3071 20.6452 61.3619 20.6178C61.4166 20.5905 61.4782 20.5083 61.5604 20.3646L61.9779 19.6321L60.8416 19.9265C60.7526 20.0771 60.7116 20.1798 60.7116 20.2414C60.7116 20.303 60.7321 20.3509 60.7869 20.3988L60.4994 20.878ZM57.9666 15.6071L60.472 16.7366L60.2529 17.2226C60.1845 17.2089 60.1297 17.2226 60.0818 17.2568C60.0339 17.2911 59.9791 17.3801 59.9107 17.5307L59.2125 19.0777C59.144 19.2283 59.1166 19.3309 59.1235 19.3857C59.1303 19.4405 59.1577 19.4952 59.2125 19.5363L58.9866 20.0428L57.8708 19.5431L58.0967 19.0366C58.1652 19.0503 58.2199 19.0366 58.2678 19.0092C58.3158 18.975 58.3705 18.886 58.439 18.7354L59.2535 16.9214L58.6238 16.6408L57.7887 18.5027C57.6586 18.7902 57.5012 18.9818 57.3095 19.0845C57.1178 19.1872 56.9056 19.1872 56.6729 19.0845C56.6044 19.0503 56.536 19.0161 56.4744 18.975C56.4128 18.9339 56.3512 18.886 56.2964 18.8312L56.5223 18.3384L56.6113 18.3795C56.7071 18.4205 56.7893 18.4205 56.8577 18.3795C56.933 18.3384 57.0015 18.2289 57.0768 18.0646L57.7476 16.5723C57.816 16.4217 57.8434 16.3191 57.8366 16.2643C57.8297 16.2027 57.7955 16.1548 57.7476 16.1137L57.9666 15.6071ZM54.8931 16.7298L54.5988 17.6196L54.8247 17.6949C55.0163 17.7565 55.167 17.7702 55.2765 17.7223C55.386 17.6812 55.4681 17.5786 55.5161 17.4211C55.564 17.2842 55.5571 17.161 55.4955 17.0583C55.4339 16.9488 55.3107 16.8667 55.119 16.7982L54.8931 16.7298ZM54.3866 14.9705L54.5577 14.464L57.0152 15.2786L56.6797 16.2917L56.0363 16.0795L56.0979 15.8878C56.1184 15.8262 56.1047 15.7714 56.0637 15.7098C56.0226 15.6482 55.9268 15.6003 55.7762 15.5455L55.3381 15.4018L55.1053 16.1137L55.4476 16.2301C55.8241 16.3533 56.0979 16.5449 56.2622 16.7914C56.4333 17.0378 56.4538 17.3458 56.3375 17.7018C56.2143 18.0646 56.0158 18.2973 55.7283 18.3932C55.4408 18.489 55.1122 18.4753 54.7357 18.3521L53.4077 17.9071L53.5857 17.3801C53.6542 17.3869 53.7089 17.3664 53.75 17.3321C53.7911 17.2911 53.839 17.1952 53.8937 17.0446L54.4277 15.4292C54.4824 15.2717 54.4961 15.1691 54.4893 15.1143C54.4756 15.0527 54.4414 15.0048 54.3866 14.9705ZM50.9845 13.7521L52.2098 13.9711L52.114 14.4982C52.0387 14.5051 51.9976 14.5598 51.9771 14.6557C51.9702 14.6967 51.9702 14.731 51.9702 14.772L52.0729 15.8878L52.5521 14.8816C52.5658 14.8473 52.5795 14.8063 52.5863 14.772C52.5931 14.7173 52.5931 14.6762 52.5795 14.6488C52.5658 14.6214 52.5384 14.5941 52.4973 14.5667L52.5931 14.0396L53.7637 14.2518L53.6678 14.7789C53.6199 14.7857 53.5857 14.8063 53.5515 14.8336C53.5173 14.861 53.4762 14.9158 53.4351 15.0048L52.5589 16.6408C52.4494 16.853 52.3399 17.0241 52.244 17.1542C52.1482 17.2842 52.0455 17.3801 51.9428 17.4485C51.8402 17.517 51.7238 17.5512 51.6006 17.5649C51.4774 17.5717 51.3336 17.5649 51.1693 17.5375C51.0804 17.5238 50.9777 17.4827 50.8681 17.4211L50.9708 16.8598L51.0598 16.8735C51.1556 16.894 51.2378 16.8872 51.2926 16.8598C51.3473 16.8324 51.3952 16.7845 51.4363 16.7024L51.053 14.5941C51.0119 14.4092 50.9571 14.2997 50.8955 14.2723L50.9845 13.7521ZM48.3696 17.1063L47.1512 17.0104L47.1923 16.456C47.2607 16.4423 47.3086 16.4149 47.3429 16.367C47.3771 16.3191 47.3976 16.2164 47.4113 16.0521L47.5414 14.3545C47.5551 14.1902 47.5482 14.0875 47.5208 14.0327C47.4935 13.978 47.4524 13.9438 47.3839 13.9232L47.425 13.3893L50.2795 13.6083L50.2384 14.1423C50.1768 14.156 50.122 14.1833 50.0878 14.2313C50.0536 14.2792 50.0262 14.3819 50.0193 14.5461L49.8893 16.2438C49.8756 16.408 49.8824 16.5107 49.9098 16.5655C49.9372 16.6202 49.9783 16.6545 50.0467 16.675L50.0057 17.2295L48.7804 17.1336L48.8214 16.5792C48.8899 16.5655 48.9378 16.5381 48.972 16.4902C49.0063 16.4423 49.0268 16.3396 49.0405 16.1753L49.1911 14.1902L48.4039 14.1286L48.2533 16.1137C48.2396 16.278 48.2464 16.3875 48.267 16.4354C48.2875 16.4833 48.3354 16.5244 48.4039 16.5449L48.3696 17.1063ZM46.5283 14.553L45.7616 14.5735L45.7548 14.4229C45.7479 14.2449 45.7069 14.1286 45.6247 14.0738C45.5426 14.0191 45.4399 13.9985 45.3167 13.9985C45.1866 14.0054 45.0908 14.0464 45.0292 14.1354C44.9676 14.2244 44.9402 14.375 44.947 14.5804L44.9813 15.833C44.9881 16.0384 45.0223 16.189 45.0908 16.2711C45.1592 16.3601 45.2551 16.4012 45.3851 16.3943C45.5152 16.3875 45.6179 16.3464 45.6932 16.2506C45.7685 16.1616 45.8027 16.011 45.7958 15.7988L45.789 15.6619L46.5557 15.6414L46.583 16.7571C46.2271 16.9557 45.8301 17.0583 45.392 17.072C45.1592 17.0789 44.9607 17.0583 44.7964 17.0173C44.639 16.9762 44.5021 16.9077 44.4063 16.8119C44.3036 16.7229 44.2283 16.6065 44.1872 16.4628C44.1393 16.3259 44.1119 16.1616 44.1119 15.9768L44.0708 14.3955C44.064 14.0396 44.1461 13.7726 44.3378 13.5878C44.5226 13.403 44.8444 13.3072 45.303 13.2935C45.7137 13.2798 46.1107 13.3619 46.5077 13.5262L46.5283 14.553ZM43.6601 17.0789L41.0863 17.4006L41.0179 16.8461C41.0795 16.8188 41.1274 16.7845 41.1479 16.7298C41.1685 16.675 41.1685 16.5723 41.1479 16.408L40.9357 14.7241C40.9152 14.5598 40.8878 14.4572 40.8536 14.4092C40.8194 14.3613 40.7715 14.3339 40.703 14.3271L40.6346 13.8L43.2083 13.4783L43.3589 14.6625L42.5649 14.7583L42.5512 14.6283C42.5307 14.4708 42.4828 14.3682 42.4143 14.3134C42.339 14.2586 42.2226 14.2449 42.0652 14.2655L41.7572 14.3066L41.853 15.1006L42.5923 15.0116L42.6676 15.6345L41.9283 15.7235L42.0378 16.6271L42.4143 16.5792C42.5512 16.5655 42.6402 16.5176 42.695 16.456C42.7429 16.3875 42.7634 16.2711 42.7429 16.1068L42.7155 15.8673L43.5095 15.7714L43.6601 17.0789ZM38.8548 16.6271L38.9164 16.8804C38.9506 17.0446 38.9985 17.1405 39.0533 17.1815C39.1081 17.2226 39.1697 17.2363 39.245 17.2295L39.3682 17.7702L38.1155 18.0577L37.9923 17.517C38.0539 17.4827 38.095 17.4417 38.1087 17.3869C38.1224 17.3321 38.1155 17.2226 38.0813 17.0652L37.698 15.4086C37.6637 15.2512 37.6227 15.1485 37.5884 15.1074C37.5474 15.0664 37.4926 15.0458 37.431 15.039L37.3078 14.5188L38.7247 14.1902C39.1491 14.0944 39.4777 14.1217 39.7104 14.2723C39.9363 14.4229 40.0938 14.683 40.1759 15.0458C40.2307 15.2786 40.2512 15.4839 40.2307 15.6619C40.217 15.8399 40.1691 15.9905 40.1006 16.1137C40.0322 16.2369 39.9363 16.3396 39.82 16.4149C39.7036 16.4902 39.5735 16.5449 39.4229 16.5792C39.3887 16.586 39.3476 16.5929 39.2997 16.5997C39.2518 16.6065 39.1971 16.6134 39.1423 16.6134C39.0875 16.6134 39.0328 16.6202 38.9849 16.6202C38.9232 16.6339 38.8822 16.6271 38.8548 16.6271ZM38.4783 14.9979L38.7179 16.0247L39.0191 15.9631C39.1971 15.922 39.3066 15.8604 39.3476 15.7646C39.3887 15.6756 39.3887 15.5319 39.3476 15.347C39.2997 15.1485 39.2381 15.0185 39.156 14.9637C39.0738 14.9021 38.9506 14.8952 38.7863 14.9295L38.4783 14.9979ZM33.6593 16.9077L32.92 17.1952L32.6325 16.4696C32.8789 16.1411 33.2143 15.8946 33.6524 15.7235C34.0221 15.5798 34.3301 15.5455 34.5834 15.6277C34.8367 15.7098 35.0215 15.9015 35.1378 16.1958C35.2131 16.3943 35.2268 16.5792 35.1721 16.7503C35.1173 16.9214 34.9667 17.0926 34.7271 17.2705C35.0146 17.2021 35.2474 17.2158 35.4116 17.3048C35.5759 17.3937 35.706 17.558 35.795 17.7908C36.0551 18.4548 35.795 18.9408 35.0009 19.2556C34.8093 19.3309 34.5971 19.3789 34.3849 19.4062C34.1658 19.4268 33.9468 19.4268 33.7277 19.3994L33.4265 18.6327L34.2069 18.3247C34.2617 18.4684 34.3438 18.5643 34.4396 18.6122C34.5355 18.6601 34.645 18.6601 34.7614 18.6122C34.8709 18.5711 34.9393 18.4958 34.9804 18.4C35.0146 18.2973 35.0078 18.1809 34.953 18.0372C34.8914 17.8798 34.8093 17.7702 34.6997 17.7223C34.5971 17.6744 34.4602 17.6812 34.2822 17.7497L33.8509 17.9208L33.6456 17.4006L34.1042 17.2226C34.248 17.1679 34.3438 17.0926 34.3986 16.9899C34.4533 16.894 34.4533 16.7777 34.4054 16.6408C34.3506 16.5107 34.2753 16.4217 34.1727 16.3738C34.07 16.3327 33.9605 16.3327 33.8441 16.3738C33.7483 16.4149 33.6798 16.4765 33.6387 16.5723C33.6114 16.6682 33.6182 16.7777 33.6593 16.9077ZM31.8864 17.5786L32.7352 19.0503C32.8173 19.194 32.8858 19.2762 32.9268 19.3104C32.9747 19.3378 33.0295 19.3446 33.0911 19.3241L33.3718 19.8101L32.3176 20.4193L32.037 19.9402C32.0849 19.8923 32.1054 19.8443 32.1123 19.7827C32.1191 19.7211 32.078 19.6253 31.9959 19.4815L31.1471 18.0098C31.0649 17.8661 30.9965 17.7839 30.9417 17.7565C30.887 17.7292 30.8322 17.7223 30.7637 17.7429L30.4968 17.2774L31.5509 16.6682L31.8179 17.1336C31.77 17.1815 31.7495 17.2295 31.7495 17.2842C31.77 17.339 31.8111 17.4417 31.8864 17.5786ZM30.045 19.9059L30.5173 20.7137L30.6337 20.6452C30.8048 20.5494 30.9075 20.4399 30.9486 20.3303C30.9896 20.2208 30.9691 20.0908 30.887 19.9539C30.8185 19.8306 30.7227 19.7553 30.5995 19.728C30.4762 19.7006 30.3325 19.7348 30.1614 19.8375L30.045 19.9059ZM28.3953 19.1187L28.1283 18.6533L29.2167 18.0235L29.4837 18.489C29.4289 18.5232 29.4015 18.5711 29.3947 18.6464C29.3879 18.7217 29.4221 18.8244 29.5042 18.9613L29.7233 19.3446L29.9492 19.2146C30.2914 19.0161 30.6132 18.9339 30.9143 18.975C31.2155 19.0161 31.4551 19.194 31.6468 19.5226C31.8384 19.8512 31.8727 20.1592 31.7631 20.433C31.6468 20.7137 31.414 20.9464 31.0718 21.1518L29.9492 21.8021L29.6685 21.3229C29.7164 21.275 29.7438 21.2202 29.7438 21.1655C29.7438 21.1107 29.7027 21.008 29.6206 20.8711L28.7718 19.3994C28.6896 19.2556 28.628 19.1735 28.5733 19.1461C28.5185 19.1051 28.4569 19.0982 28.3953 19.1187ZM28.6965 22.733L27.6902 23.5271L27.3548 23.1027C27.3891 23.0411 27.4027 22.9794 27.3959 22.9247C27.3891 22.8699 27.3343 22.7741 27.2316 22.644L26.1775 21.3092C26.0885 21.1928 26.0132 21.1244 25.9516 21.097C25.8899 21.0696 25.8352 21.0696 25.7736 21.097L25.445 20.6795L27.3822 19.153L28.1215 20.0908L27.5328 20.5562L27.3959 20.3851C27.3274 20.303 27.2521 20.255 27.1632 20.2414C27.0742 20.2277 26.9715 20.2687 26.8551 20.3646L26.6566 20.5152L27.9093 22.1033C28.0051 22.2265 28.0941 22.3086 28.1557 22.336C28.2242 22.3702 28.2926 22.3565 28.3611 22.3018L28.6965 22.733ZM25.3423 23.9378L25.5203 24.1226C25.6367 24.2458 25.7257 24.3074 25.7941 24.3143C25.8626 24.3211 25.9242 24.3006 25.9789 24.2595L26.3623 24.6634L25.4313 25.5532L25.048 25.1494C25.0822 25.0946 25.0959 25.033 25.0822 24.9783C25.0685 24.9235 25.0069 24.8345 24.8905 24.7181L23.72 23.486C23.6105 23.3696 23.5215 23.3012 23.4667 23.2875C23.412 23.2738 23.3572 23.2806 23.2956 23.3149L22.926 22.9315L23.9801 21.9253C24.295 21.6241 24.5894 21.4803 24.8632 21.494C25.137 21.5077 25.4039 21.6515 25.6641 21.9253C25.8283 22.0964 25.9516 22.2675 26.0269 22.425C26.1022 22.5824 26.1432 22.733 26.1501 22.8768C26.1569 23.0205 26.1227 23.1574 26.0679 23.2806C26.0063 23.4039 25.9242 23.5202 25.8147 23.6229C25.7873 23.6434 25.7599 23.6708 25.7188 23.705C25.6777 23.7393 25.6367 23.7666 25.5888 23.8009C25.5408 23.8283 25.4998 23.8625 25.4519 23.883C25.4039 23.9104 25.3697 23.9241 25.3423 23.9378ZM24.1855 22.733L24.9179 23.4997L25.1438 23.2875C25.2739 23.1643 25.3355 23.0547 25.3286 22.9521C25.3218 22.8494 25.2465 22.733 25.1164 22.5961C24.9795 22.4524 24.8563 22.3702 24.7536 22.3634C24.651 22.3565 24.5414 22.4113 24.4182 22.5277L24.1855 22.733ZM22.926 24.28L24.206 25.389C24.3292 25.4985 24.4182 25.5601 24.473 25.5669C24.5278 25.5806 24.5825 25.5669 24.6373 25.5259L25.0617 25.8887L24.2608 26.8128L23.8364 26.45C23.8638 26.3884 23.8706 26.3336 23.8569 26.272C23.8432 26.2172 23.7748 26.1351 23.6516 26.0256L22.3715 24.9166C22.2483 24.8071 22.1593 24.7524 22.0977 24.7455C22.0361 24.7387 21.9813 24.7524 21.9266 24.7866L21.5227 24.4306L22.3236 23.5065L22.7275 23.8625C22.7001 23.9241 22.6932 23.9788 22.7138 24.0268C22.7343 24.0952 22.8028 24.1705 22.926 24.28ZM21.9403 27.0797L22.6453 27.6958L22.7343 27.5931C22.8644 27.4425 22.926 27.3125 22.9328 27.1893C22.9328 27.0729 22.8712 26.9565 22.7548 26.8538C22.6453 26.758 22.5289 26.7238 22.4057 26.7375C22.2825 26.7512 22.1593 26.8333 22.0292 26.9839L21.9403 27.0797ZM20.1263 26.8744L19.7224 26.5184L20.5438 25.5669L20.9477 25.9229C20.9066 25.9708 20.8929 26.0324 20.9135 26.1009C20.934 26.1693 21.0025 26.2583 21.1188 26.361L21.4542 26.6485L21.6254 26.45C21.8855 26.1488 22.1662 25.9708 22.4605 25.9092C22.7548 25.8476 23.0423 25.9434 23.3298 26.1899C23.6173 26.4431 23.7542 26.7169 23.7337 27.0181C23.7132 27.3193 23.5763 27.6205 23.3161 27.9217L22.4605 28.9006L22.0361 28.5378C22.0703 28.4762 22.0703 28.4214 22.0566 28.3666C22.0361 28.3119 21.9676 28.2297 21.8444 28.127L20.5644 27.0181C20.4412 26.9086 20.3522 26.8538 20.2974 26.8402C20.2358 26.8196 20.181 26.8333 20.1263 26.8744ZM18.6409 28.2434L19.2022 27.3741L19.654 27.6684C19.6334 27.7026 19.6197 27.7437 19.6266 27.7848C19.6334 27.8259 19.6471 27.8806 19.6745 27.9628L20.0304 28.9279C20.1947 28.7568 20.3522 28.6541 20.5096 28.6131C20.667 28.5788 20.8519 28.6268 21.0709 28.7637L21.3584 28.9485C21.4816 29.0306 21.5775 29.0717 21.6459 29.0854C21.7144 29.0991 21.7623 29.0785 21.7897 29.0375L22.2551 29.3387L21.7486 30.1327C21.6938 30.1259 21.6391 30.1053 21.5775 30.0779C21.5159 30.0506 21.42 29.9958 21.29 29.9068L20.8929 29.6535C20.7355 29.5509 20.5986 29.5029 20.4891 29.5098C20.3795 29.5166 20.2769 29.5919 20.1879 29.7288L20.051 29.941L20.5233 30.2491C20.6602 30.3381 20.7629 30.386 20.8176 30.386C20.8724 30.386 20.9272 30.3654 20.9751 30.3244L21.4474 30.6256L20.7834 31.6523L20.3179 31.3511C20.3385 31.2895 20.3385 31.2279 20.3111 31.18C20.2837 31.1321 20.2016 31.0636 20.0647 30.9747L18.6409 30.0574C18.504 29.9684 18.4081 29.9273 18.3534 29.9205C18.2986 29.9205 18.2438 29.941 18.1959 29.9889L17.7441 29.6946L18.4081 28.6678L18.8599 28.9622C18.8325 29.0101 18.8257 29.058 18.8531 29.1196C18.8804 29.1744 18.9626 29.2497 19.1132 29.3455L19.606 29.6604L19.3391 28.8869C19.3049 28.7979 19.2706 28.7294 19.2227 28.6678C19.1748 28.6131 19.12 28.5583 19.0516 28.5172L18.6409 28.2434Z" fill="#0C0E14"/>
    <path d="M65.213 69.9853L64.5901 70.4302L64.5559 70.3823C64.4532 70.2386 64.3437 70.1496 64.2273 70.1291C64.1109 70.1085 64.0014 70.1291 63.9056 70.1975C63.8029 70.2728 63.7481 70.3618 63.7413 70.4713C63.7413 70.5808 63.7961 70.7177 63.9193 70.8889L64.6449 71.9156C64.7612 72.0868 64.8776 72.1826 64.9803 72.2237C65.083 72.2579 65.1925 72.2374 65.2952 72.1621C65.3978 72.0868 65.4594 71.9909 65.4731 71.8746C65.4868 71.7582 65.4321 71.6145 65.3089 71.4433L65.2336 71.3338L65.8565 70.8889L66.4999 71.7993C66.3151 72.1621 66.0413 72.4701 65.6853 72.7165C65.4937 72.8534 65.3157 72.9493 65.1583 73.004C65.0008 73.0588 64.8502 73.0725 64.7202 73.052C64.5833 73.0314 64.46 72.9767 64.3437 72.8877C64.2273 72.7987 64.1178 72.6755 64.0083 72.5249L63.091 71.238C62.8856 70.9505 62.8103 70.6767 62.8651 70.4234C62.9199 70.1701 63.1321 69.91 63.5017 69.6499C63.8371 69.4103 64.2136 69.2529 64.6312 69.1707L65.213 69.9853ZM62.5913 71.5049L63.5017 72.9356C63.5907 73.0725 63.666 73.1615 63.7208 73.1889C63.7824 73.2162 63.8303 73.2231 63.8714 73.1957L64.1725 73.668L63.1389 74.3252L62.8377 73.8528C62.8788 73.8255 62.8993 73.7776 62.8993 73.7091C62.8993 73.6406 62.8583 73.538 62.7693 73.4011L61.8589 71.9704C61.7699 71.8335 61.6946 71.7514 61.633 71.724C61.5714 71.6966 61.5166 71.6966 61.4824 71.7171L61.1949 71.2654L62.2285 70.6082L62.516 71.06C62.4749 71.0874 62.4612 71.1285 62.4612 71.1969C62.4544 71.2654 62.5023 71.3612 62.5913 71.5049ZM59.1002 72.3537L60.1955 71.813L60.4351 72.2921C60.3871 72.3332 60.3598 72.3811 60.3598 72.4427C60.3598 72.4975 60.394 72.6002 60.4624 72.7439L61.3729 74.5784L61.5234 74.5031C61.6946 74.421 61.7767 74.3252 61.7767 74.2156C61.7767 74.1061 61.7288 73.9555 61.633 73.7707L61.4961 73.4969L62.16 73.1683L62.8446 74.5511L60.7089 75.6052L60.4624 75.1055C60.5172 75.0645 60.5446 75.0097 60.5446 74.9549C60.5446 74.9002 60.5104 74.7975 60.4419 74.6469L59.6889 73.1273C59.6136 72.9835 59.5589 72.8945 59.511 72.8603C59.463 72.8261 59.4083 72.8192 59.3398 72.8329L59.1002 72.3537ZM59.1345 76.3171L57.7723 76.8579L57.5669 76.3377C57.6217 76.2966 57.6559 76.2487 57.6627 76.1939C57.6696 76.1391 57.6422 76.0365 57.5874 75.879L56.9577 74.2978C56.8961 74.1472 56.8482 74.0514 56.8002 74.0171C56.7523 73.9829 56.6976 73.9692 56.6291 73.9761L56.4306 73.4832L57.7449 72.963C58.1556 72.7987 58.4773 72.7576 58.7101 72.8261C58.9496 72.9014 59.1276 73.093 59.2508 73.4148C59.3193 73.5927 59.3535 73.7502 59.333 73.8734C59.3193 74.0034 59.244 74.1335 59.1071 74.2636C59.2303 74.2704 59.333 74.2909 59.422 74.3252C59.5041 74.3594 59.5794 74.4073 59.641 74.4621C59.7026 74.5237 59.7574 74.5921 59.7985 74.6743C59.8464 74.7564 59.8874 74.8522 59.9285 74.9549C60.0586 75.2767 60.0654 75.5436 59.949 75.7558C59.8327 75.9612 59.5657 76.146 59.1345 76.3171ZM58.1556 75.0165L58.491 75.8653L58.8401 75.7284C58.9907 75.6668 59.0797 75.5915 59.1208 75.4957C59.1618 75.3999 59.155 75.2767 59.0934 75.1261C59.0318 74.9755 58.9565 74.8796 58.8538 74.8454C58.758 74.8112 58.6348 74.8249 58.4773 74.8865L58.1556 75.0165ZM57.6354 73.7091L57.9297 74.4484L58.2377 74.3252C58.3815 74.2704 58.4773 74.202 58.5184 74.1198C58.5595 74.0445 58.5595 73.9418 58.5116 73.8118C58.4568 73.668 58.3815 73.579 58.2925 73.5517C58.2035 73.5174 58.0871 73.5311 57.9434 73.5859L57.6354 73.7091ZM56.3758 73.5927L56.5196 74.113C56.3895 74.1472 56.3553 74.2978 56.4306 74.5511L56.8482 76.057C56.9098 76.2761 56.9371 76.4609 56.9371 76.6252C56.9371 76.7826 56.9029 76.9195 56.8345 77.0427C56.766 77.1591 56.6633 77.2618 56.5264 77.3371C56.3895 77.4192 56.2184 77.4877 56.0062 77.5493C55.794 77.6109 55.6092 77.6383 55.4517 77.6383C55.2943 77.6383 55.1505 77.6109 55.0342 77.5424C54.9178 77.474 54.8151 77.3781 54.733 77.2412C54.6508 77.1043 54.5755 76.9332 54.5139 76.7141L54.0964 75.2082C54.0279 74.9549 53.9252 74.8454 53.7952 74.8796L53.6514 74.3594L54.8494 74.024L54.9931 74.5442C54.8699 74.5784 54.8494 74.7496 54.9315 75.0576L55.3148 76.4335C55.3764 76.6525 55.4449 76.7963 55.527 76.8511C55.6092 76.9127 55.705 76.9195 55.8351 76.8853C55.9583 76.8511 56.0336 76.7894 56.0746 76.7005C56.1089 76.6115 56.102 76.454 56.0404 76.235L55.6571 74.8591C55.5681 74.5511 55.4654 74.4142 55.3422 74.4484L55.1985 73.9281L56.3758 73.5927ZM52.4741 77.0564L52.522 77.3097C52.5494 77.474 52.5973 77.5766 52.6452 77.6177C52.7 77.6588 52.7616 77.6793 52.83 77.6793L52.9327 78.2269L51.6663 78.4665L51.5637 77.9189C51.6253 77.8915 51.6663 77.8505 51.6869 77.7957C51.7074 77.7409 51.7006 77.6314 51.6663 77.474L51.3514 75.8037C51.3241 75.6463 51.2898 75.5436 51.2488 75.4957C51.2145 75.4546 51.1598 75.4272 51.0913 75.4204L50.9955 74.8933L52.4261 74.6264C52.8574 74.5442 53.186 74.5853 53.405 74.7496C53.6241 74.9139 53.7747 75.174 53.8431 75.5436C53.8842 75.7764 53.8979 75.9817 53.8773 76.1597C53.8568 76.3377 53.802 76.4814 53.7267 76.6046C53.6514 76.7278 53.5556 76.8237 53.4392 76.8921C53.3229 76.9606 53.186 77.0153 53.0354 77.0427C53.0012 77.0496 52.9601 77.0564 52.9122 77.0564C52.8574 77.0633 52.8095 77.0633 52.7547 77.0633C52.7 77.0633 52.6452 77.0633 52.5973 77.0633C52.5425 77.0701 52.5014 77.0633 52.4741 77.0564ZM52.166 75.4204L52.3577 76.4609L52.6589 76.4061C52.8369 76.3719 52.9464 76.3103 52.9943 76.2213C53.0422 76.1323 53.0491 75.9954 53.0148 75.8037C52.9806 75.6052 52.919 75.4752 52.8369 75.4136C52.7547 75.3519 52.6315 75.3383 52.4672 75.3656L52.166 75.4204ZM51.194 78.5487L48.6202 78.8567L48.5518 78.3022C48.6134 78.2749 48.6613 78.2406 48.6818 78.1859C48.7024 78.1311 48.7023 78.0284 48.6887 77.8641L48.4901 76.1734C48.4696 76.0091 48.4422 75.9064 48.408 75.8585C48.3738 75.8106 48.3259 75.7832 48.2574 75.7764L48.1958 75.2493L50.7696 74.9412L50.9134 76.1323L50.1193 76.2281L50.1056 76.0981C50.0851 75.9406 50.044 75.838 49.9687 75.7832C49.8934 75.7284 49.777 75.7147 49.6196 75.7353L49.3184 75.7695L49.4143 76.5636L50.1535 76.4746L50.2288 77.0975L49.4896 77.1865L49.5991 78.09L49.9687 78.049C50.1056 78.0353 50.1946 77.9942 50.2494 77.9258C50.2973 77.8573 50.3178 77.7409 50.2973 77.5766L50.2699 77.3371L51.0639 77.2412L51.194 78.5487ZM46.5666 78.9046L45.3482 78.9457L45.3277 78.3844C45.3824 78.3844 45.4303 78.3502 45.4577 78.2954C45.4919 78.2406 45.4988 78.1243 45.4988 77.96L45.444 76.2624C45.4372 76.0981 45.4166 75.9886 45.3824 75.9338C45.3482 75.879 45.3003 75.8516 45.2455 75.8516L45.225 75.3109L46.6693 75.263C47.1074 75.2493 47.4154 75.3177 47.614 75.482C47.8056 75.6395 47.9083 75.8996 47.922 76.2555C47.9288 76.4814 47.8878 76.6525 47.8056 76.7894C47.7166 76.9195 47.6003 77.0222 47.4428 77.0906C47.6071 77.1454 47.7235 77.2275 47.7851 77.3302C47.8467 77.4397 47.8809 77.5561 47.8809 77.6862L47.8878 77.8847C47.8946 78.0284 47.9083 78.1311 47.9357 78.1859C47.9631 78.2406 48.0041 78.2749 48.0589 78.2886L48.0794 78.8499L47.1827 78.8772C47.1553 78.8293 47.1348 78.7746 47.1143 78.7061C47.0937 78.6377 47.0869 78.5281 47.08 78.3638L47.0663 78.0011C47.0595 77.7957 47.0184 77.6588 46.9431 77.5766C46.8678 77.4945 46.7515 77.4534 46.6009 77.4603L46.3339 77.4671L46.3476 77.9258C46.3544 78.09 46.375 78.1996 46.4092 78.2543C46.4503 78.3091 46.4913 78.3365 46.5461 78.3365L46.5666 78.9046ZM46.2791 75.9133L46.3134 76.8579L46.594 76.8511C46.7446 76.8442 46.8678 76.8031 46.9568 76.721C47.0458 76.6389 47.0869 76.5225 47.0869 76.365C47.0732 76.0502 46.9226 75.8996 46.6351 75.9064L46.2791 75.9133ZM41.775 78.6103L39.3039 78.1448L39.4271 77.4808L41.4259 75.5094L41.0289 75.4341C40.8577 75.3999 40.7414 75.3999 40.6661 75.4341C40.5976 75.4683 40.5429 75.5642 40.5155 75.7353L40.5018 75.8174L39.8173 75.6874L40.0226 74.5921L42.4458 75.0439L42.3226 75.6874L40.3375 77.6656L40.8372 77.7615C40.9604 77.782 41.0494 77.7683 41.1178 77.7067C41.1863 77.6519 41.2342 77.5561 41.2548 77.4329L41.2684 77.3439L41.9803 77.4808L41.775 78.6103ZM38.3866 77.9258L37.0792 77.563L37.2298 77.0222C37.353 77.0564 37.4488 76.9469 37.5173 76.7005L37.6405 76.2692L37.3393 74.6674C37.3188 74.5579 37.2982 74.4826 37.2777 74.4484C37.2571 74.4142 37.2298 74.3936 37.2024 74.3799L37.3461 73.8665L38.4003 74.1609L38.2839 74.5716C38.2565 74.6674 38.2429 74.7496 38.2429 74.818C38.2429 74.8865 38.2429 74.9549 38.2565 75.0097L38.325 75.6531L38.722 75.1398C38.7562 75.0987 38.7905 75.0508 38.8247 74.9892C38.8589 74.9275 38.8932 74.8454 38.9137 74.7564L39.0301 74.3457L40.0842 74.64L39.9405 75.1534C39.9131 75.1466 39.8789 75.1534 39.8378 75.1671C39.7967 75.1877 39.742 75.2356 39.6667 75.3246L38.5851 76.543L38.4619 76.9743C38.3935 77.2207 38.4208 77.3644 38.544 77.3987L38.3866 77.9258ZM36.6479 74.8591L35.9018 74.5579L35.9429 74.4484C35.9908 74.3252 35.9976 74.2156 35.9634 74.1335C35.9223 74.0514 35.847 73.9829 35.7307 73.935C35.6074 73.8871 35.5048 73.8871 35.4158 73.935C35.3268 73.9829 35.2447 74.0993 35.1694 74.2909L34.6833 75.4889C34.608 75.6805 34.5807 75.8311 34.608 75.9338C34.6354 76.0433 34.7107 76.1186 34.8271 76.1665C34.9503 76.2145 35.053 76.2076 35.1488 76.1528C35.2447 76.0981 35.3268 75.968 35.4089 75.7764L35.5185 75.5025L35.1967 75.3725L35.4295 74.7975L36.4905 75.2287L35.806 76.9195C35.6075 76.9606 35.4021 76.9743 35.1899 76.9537C34.9777 76.9332 34.7723 76.8784 34.567 76.7963C34.3479 76.7073 34.17 76.6115 34.0399 76.5088C33.9098 76.4061 33.8208 76.2897 33.7661 76.1665C33.7113 76.0433 33.6976 75.9064 33.7113 75.7627C33.725 75.6189 33.7729 75.4546 33.8414 75.2835L34.4301 73.8186C34.5601 73.4901 34.7518 73.2779 34.9845 73.182C35.2241 73.0862 35.5527 73.1273 35.9702 73.2984C36.3467 73.449 36.689 73.6817 36.9833 73.9898L36.6479 74.8591ZM31.6372 75.4341L30.5488 74.8865L30.8021 74.3868C30.85 74.4142 30.9048 74.4073 30.9595 74.3731C31.0143 74.3389 31.0759 74.2499 31.1512 74.0993L31.911 72.5865C31.9863 72.4427 32.0206 72.3332 32.0137 72.2716C32.0069 72.2032 31.9863 72.1552 31.9316 72.1347L32.1711 71.6555L33.4649 72.3058C33.8551 72.5043 34.0947 72.7165 34.1905 72.9493C34.2863 73.182 34.2521 73.4558 34.0878 73.7775C33.9851 73.9761 33.8688 74.113 33.725 74.1883C33.5881 74.2636 33.4307 74.2909 33.2664 74.2773C33.3828 74.4073 33.4444 74.5305 33.4512 74.6537C33.4512 74.777 33.4238 74.9002 33.3691 75.0165L33.2801 75.1945C33.2116 75.3246 33.1774 75.4204 33.1774 75.482C33.1774 75.5436 33.1979 75.5915 33.239 75.6326L32.9857 76.1323L32.1848 75.7284C32.1848 75.6737 32.1917 75.6121 32.2054 75.5436C32.2259 75.4752 32.267 75.3725 32.3354 75.2287L32.4997 74.9002C32.5887 74.7222 32.6229 74.5716 32.5956 74.4689C32.5682 74.3594 32.486 74.2704 32.3491 74.202L32.1164 74.0856L31.911 74.4963C31.8357 74.6469 31.8015 74.7496 31.8084 74.818C31.8152 74.8865 31.8426 74.9275 31.8905 74.9549L31.6372 75.4341ZM32.8146 72.6686L32.3902 73.5106L32.6366 73.6338C32.7735 73.7023 32.9036 73.7228 33.02 73.6954C33.1363 73.668 33.2322 73.5859 33.3006 73.4421C33.4444 73.1615 33.3828 72.9561 33.1226 72.8192L32.8146 72.6686ZM29.6863 74.4073L28.5432 73.668L28.8444 73.2026C28.9471 73.271 29.0703 73.1957 29.214 72.9835L29.4604 72.607L29.659 70.9847C29.6726 70.8683 29.6726 70.793 29.6658 70.752C29.6521 70.7109 29.6384 70.6835 29.611 70.663L29.8985 70.218L30.8158 70.8136L30.5831 71.1695C30.5283 71.2517 30.4941 71.327 30.4667 71.3954C30.4393 71.4639 30.4256 71.5255 30.4256 71.5802L30.3024 72.21L30.8363 71.8404C30.8842 71.813 30.9322 71.7787 30.9801 71.724C31.0348 71.6761 31.0828 71.6076 31.1375 71.5255L31.3703 71.1695L32.2875 71.7651L32 72.21C31.9726 72.1963 31.9384 72.1895 31.8973 72.1963C31.8563 72.2032 31.7878 72.2374 31.6851 72.2921L30.2819 73.1273L30.0354 73.5037C29.8985 73.7159 29.878 73.8597 29.9875 73.9281L29.6863 74.4073ZM29.0566 69.6225L29.878 70.2523L29.5494 70.6767C29.5152 70.6493 29.481 70.6356 29.4399 70.6356C29.3988 70.6356 29.3372 70.6493 29.2619 70.6698L28.2694 70.9368C28.4268 71.1148 28.5158 71.279 28.5363 71.4433C28.5569 71.6076 28.4953 71.7856 28.3378 71.9909L28.1325 72.2579C28.0435 72.3743 27.9887 72.4701 27.9682 72.5317C27.9545 72.5933 27.9613 72.6481 28.0093 72.6755L27.667 73.1136L26.9209 72.5386C26.9346 72.4838 26.9619 72.429 26.9962 72.3743C27.0304 72.3127 27.092 72.2237 27.1878 72.1005L27.4753 71.724C27.5917 71.5734 27.6465 71.4433 27.6533 71.3338C27.6533 71.2243 27.5917 71.1148 27.4616 71.0121L27.2631 70.8615L26.9209 71.3064C26.8182 71.4365 26.7634 71.5323 26.7634 71.5871C26.7566 71.6418 26.7771 71.6966 26.8113 71.7514L26.4691 72.1963L25.5039 71.4502L25.8462 71.0121C25.9078 71.0395 25.9694 71.0395 26.0173 71.0189C26.0721 70.9984 26.1474 70.9231 26.2432 70.793L27.2768 69.4514C27.3795 69.3213 27.4274 69.2323 27.4343 69.1707C27.4411 69.116 27.4274 69.0612 27.3795 69.0064L27.7081 68.582L28.6732 69.3282L28.3447 69.7526C28.3036 69.7183 28.2488 69.7115 28.1941 69.732C28.1393 69.7526 28.0503 69.8347 27.9477 69.9716L27.5917 70.4302L28.3857 70.2317C28.4747 70.2112 28.55 70.177 28.6116 70.1359C28.6732 70.0948 28.728 70.0401 28.7759 69.9785L29.0566 69.6225Z" fill="#0C0E14"/>
    <path fill-rule="evenodd" clip-rule="evenodd" d="M39.2989 12.2725L39.2305 11.8139C39.5522 11.5948 39.9081 11.1499 39.5248 10.0684C40.223 10.4722 41.1608 10.7939 42.6257 10.7255C44.4808 10.6365 45.3159 8.8636 45.2885 7.29604C45.1379 4.24992 41.8659 3.73653 41.1334 5.7764C40.7159 6.85795 41.5647 8.27491 42.6462 6.98116C43.0775 6.54307 43.584 6.85795 43.5635 7.39872C43.5566 7.61092 43.4677 7.85735 43.2623 8.11062C42.3793 8.78145 41.5647 8.98681 40.6817 8.32282C39.8397 7.41925 39.6823 6.05706 40.1751 4.93444C40.3394 4.57164 40.5584 4.25676 40.8254 3.96242C41.7427 2.89457 43.5566 2.77135 45.2337 3.96242C45.2269 3.90081 45.2337 3.7776 45.2474 3.627C45.2816 3.08623 45.4733 2.15528 46.0072 2.14844H46.0209H46.0346C46.5685 2.15528 46.7602 3.07939 46.7944 3.627C46.8081 3.7776 46.8081 3.90081 46.8081 3.96242C48.492 2.77135 50.2992 2.89457 51.2164 3.96242C51.5039 4.27045 51.723 4.59903 51.8941 4.98236C52.3664 6.07759 52.1885 7.43295 51.3602 8.31598C50.4772 8.98681 49.6626 8.77461 48.7795 8.10378C48.5742 7.8505 48.4852 7.60408 48.4784 7.39187C48.4578 6.8511 48.9644 6.53622 49.3956 6.97432C50.4429 8.22699 51.3054 6.95378 50.9084 5.76956C50.1007 3.66808 46.904 4.31153 46.7534 7.2892C46.7328 8.85675 47.5543 10.657 49.4162 10.7187C50.2307 10.746 51.2301 10.7529 52.517 10.0615C52.2843 10.6639 52.209 11.4922 52.8114 11.807L52.7429 12.2657C50.7784 11.8686 48.5194 11.6154 46.0004 11.6154C44.1043 11.5948 41.1814 11.855 39.2989 12.2725Z" fill="#0C0E14"/>
    <path fill-rule="evenodd" clip-rule="evenodd" d="M26.902 17.4077L26.6624 17.0106C26.8746 16.6889 27.032 16.1345 26.2654 15.2857C27.0662 15.3883 28.052 15.3267 29.3799 14.7038C31.057 13.9166 31.1528 11.952 30.5299 10.5145C29.2225 7.76275 26.0052 8.53626 26.1079 10.6994C26.1353 11.8562 27.4633 12.8488 27.9698 11.2333C28.1957 10.6651 28.7912 10.761 28.9761 11.2675C29.0514 11.466 29.0651 11.7261 28.9692 12.041C28.4148 12.9993 27.7371 13.499 26.6692 13.2252C25.5398 12.7118 24.8758 11.5139 24.9032 10.2955C24.9168 9.89846 24.9921 9.52198 25.1359 9.14549C25.574 7.81067 27.2032 7.00294 29.2088 7.45472C29.1814 7.39996 29.1335 7.28359 29.0924 7.13984C28.9145 6.62645 28.7433 5.68865 29.2293 5.4833L29.243 5.47645L29.2567 5.46961C29.7496 5.2711 30.2835 6.05145 30.5231 6.54431C30.5915 6.68121 30.6463 6.79073 30.66 6.85234C31.7552 5.10681 33.4802 4.53181 34.7329 5.16157C35.1162 5.33955 35.4448 5.55859 35.746 5.84609C36.6016 6.67436 36.9507 8.00234 36.5263 9.1318C35.965 10.0901 35.1368 10.2065 34.0621 9.92584C33.7746 9.77525 33.5966 9.57674 33.5144 9.38507C33.2886 8.89222 33.6377 8.40621 34.199 8.64579C35.6433 9.39876 35.9582 7.89966 35.1368 6.95502C33.5829 5.31901 30.879 7.13984 31.8784 9.94638C32.4534 11.4044 33.9115 12.7529 35.6502 12.0958C36.4168 11.8083 37.3409 11.4318 38.265 10.3023C38.2787 10.9526 38.5251 11.7467 39.2028 11.8014L39.3123 12.2532C37.3409 12.6366 35.1573 13.2732 32.8368 14.2315C31.0775 14.9365 28.4832 16.2987 26.902 17.4077Z" fill="#0C0E14"/>
    <path fill-rule="evenodd" clip-rule="evenodd" d="M17.4091 26.8947L17.0395 26.6209C17.1148 26.2375 17.0463 25.6694 16.0127 25.1765C16.7931 24.9643 17.6829 24.5331 18.6686 23.4515C19.9213 22.0825 19.2505 20.2343 18.1279 19.139C15.8689 17.0923 13.1925 19.0432 14.1166 21.0009C14.5889 22.0619 16.1907 22.4658 16.0401 20.7887C16.0332 20.1727 16.6151 20.0358 16.9847 20.4328C17.1285 20.5834 17.2448 20.823 17.2722 21.1515C17.1216 22.2468 16.6972 22.9724 15.5951 23.123C14.3562 23.0819 13.2815 22.2262 12.8434 21.0899C12.7065 20.7203 12.6312 20.3369 12.6175 19.9399C12.5148 18.5367 13.7059 17.1676 15.7389 16.8185C15.691 16.7774 15.6088 16.6884 15.5062 16.5721C15.1434 16.1614 14.6231 15.3673 14.9996 14.9908L15.0064 14.984L15.0133 14.9771C15.3898 14.6075 16.1838 15.1277 16.5945 15.4837C16.7109 15.5795 16.7999 15.6685 16.841 15.7164C17.1901 13.6834 18.5591 12.4923 19.9624 12.595C20.3868 12.6087 20.7701 12.6908 21.1603 12.8414C22.2692 13.2795 23.0975 14.3679 23.1386 15.5727C22.988 16.6679 22.2624 17.0992 21.1671 17.2498C20.8454 17.2155 20.6058 17.106 20.4484 16.9623C20.0514 16.5926 20.1883 16.0108 20.8043 16.0176C22.4267 16.1614 22.146 14.6554 21.0234 14.0941C18.9767 13.1837 17.1695 15.8944 19.1683 18.1054C20.2567 19.228 22.1186 19.9194 23.4808 18.6462C24.0764 18.0849 24.7883 17.3867 25.2058 15.9902C25.4659 16.5858 25.9999 17.2224 26.6433 17.017L26.9171 17.3867C25.2469 18.4956 23.4671 19.9125 21.6942 21.6923C20.332 23.0134 18.4496 25.2655 17.4091 26.8947Z" fill="#0C0E14"/>
    <path fill-rule="evenodd" clip-rule="evenodd" d="M12.2727 39.2922L11.821 39.1827C11.7388 38.8062 11.465 38.2996 10.3219 38.2449C10.9585 37.752 11.6156 37.0127 12.1153 35.63C12.7451 33.8845 11.4239 32.4333 9.9659 31.8583C7.09776 30.8384 5.36592 33.6586 6.97454 35.1166C7.8165 35.9175 9.44567 35.6779 8.67216 34.1788C8.43257 33.6175 8.91859 33.2616 9.41144 33.4943C9.60311 33.5833 9.80162 33.7544 9.95221 34.0419C10.2329 35.1098 10.1165 35.9449 9.15817 36.5062C8.00133 36.9443 6.6802 36.561 5.83824 35.6848C5.56443 35.3973 5.35907 35.0755 5.18794 34.7127C4.55134 33.4601 5.13318 31.7351 6.87871 30.6398C6.8171 30.6193 6.70758 30.5714 6.57068 30.5029C6.08467 30.2634 5.29746 29.7294 5.49598 29.2366L5.50282 29.2229L5.50967 29.2092C5.71502 28.7232 6.65282 28.8943 7.16621 29.0723C7.30996 29.1202 7.42633 29.1613 7.48109 29.1887C7.02246 27.1762 7.8302 25.5538 9.17186 25.1158C9.56888 24.9652 9.95221 24.8899 10.3766 24.883C11.5677 24.8693 12.7519 25.5538 13.2516 26.6491C13.5323 27.7238 13.0257 28.3946 12.0674 28.9491C11.7525 29.0449 11.4924 29.0312 11.2939 28.9559C10.7873 28.7711 10.6915 28.1756 11.2597 27.9497C12.8135 27.4568 11.9716 26.1768 10.7257 26.0878C8.47365 26.033 7.84389 29.2297 10.5341 30.5098C11.9716 31.1327 13.9567 31.0574 14.7233 29.3598C15.0587 28.6137 15.4489 27.6964 15.3052 26.2452C15.7706 26.697 16.5099 27.0803 17.0302 26.6422L17.4272 26.8818C16.3046 28.5452 15.2093 30.5372 14.2442 32.8645C13.4843 34.5895 12.6082 37.3892 12.2727 39.2922Z" fill="#0C0E14"/>
    <path fill-rule="evenodd" clip-rule="evenodd" d="M12.2725 52.7087L11.8139 52.7772C11.5948 52.4555 11.1499 52.0995 10.0684 52.4829C10.4722 51.7846 10.7939 50.8468 10.7255 49.382C10.6365 47.5269 8.8636 46.6918 7.29604 46.7192C4.24992 46.8698 3.73653 50.1418 5.7764 50.8742C6.85795 51.2918 8.27491 50.4498 6.98116 49.3614C6.54307 48.9302 6.85795 48.4236 7.39872 48.4442C7.61092 48.451 7.85735 48.54 8.11062 48.7454C8.78145 49.6284 8.98681 50.443 8.32282 51.326C7.41926 52.168 6.05706 52.3254 4.93444 51.8326C4.57164 51.6683 4.25676 51.4492 3.96242 51.1823C2.89457 50.265 2.77135 48.451 3.96242 46.7739C3.90081 46.7808 3.7776 46.7739 3.627 46.7603C3.08623 46.726 2.15528 46.5344 2.14844 46.0004V45.9867V45.9731C2.15528 45.4391 3.07939 45.2475 3.627 45.2132C3.7776 45.1995 3.90081 45.1995 3.96242 45.1995C2.77135 43.5156 2.89457 41.7085 3.96242 40.7912C4.27046 40.5037 4.59903 40.2847 4.98236 40.1135C6.07759 39.6412 7.43295 39.8192 8.31598 40.6475C8.98681 41.5305 8.77461 42.3451 8.10378 43.2281C7.8505 43.4335 7.60408 43.5225 7.39187 43.5293C6.8511 43.5498 6.53622 43.0433 6.97432 42.6121C8.22699 41.5647 6.95378 40.7022 5.76956 41.0993C3.66808 41.907 4.31153 45.1037 7.2892 45.2543C8.85675 45.2748 10.657 44.4466 10.7187 42.5915C10.746 41.7769 10.7529 40.7775 10.0615 39.4906C10.6639 39.7234 11.4922 39.7987 11.807 39.1963L12.2657 39.2647C11.8686 41.2293 11.6154 43.4882 11.6154 46.0073C11.588 47.9034 11.855 50.8195 12.2725 52.7087Z" fill="#0C0E14"/>
    <path fill-rule="evenodd" clip-rule="evenodd" d="M17.4057 65.1057L17.0087 65.3453C16.687 65.1331 16.1325 64.9756 15.2837 65.7423C15.3864 64.9414 15.3248 63.9557 14.7019 62.6277C13.9147 60.9506 11.9501 60.8548 10.5126 61.4777C7.7608 62.7852 8.53431 66.0024 10.6974 65.8997C11.8542 65.8724 12.8468 64.5444 11.2313 64.0378C10.6632 63.8119 10.759 63.2164 11.2656 63.0316C11.4641 62.9563 11.7242 62.9426 12.0391 63.0384C12.9974 63.5929 13.4971 64.2706 13.2233 65.3384C12.7099 66.4679 11.512 67.1319 10.2935 67.1045C9.89651 67.0908 9.52002 67.0155 9.14354 66.8718C7.80872 66.4337 7.00098 64.8045 7.45277 62.7989C7.39801 62.8262 7.28164 62.8742 7.13789 62.9152C6.6245 63.0932 5.6867 63.2643 5.48134 62.7783L5.4745 62.7646L5.46765 62.7509C5.26914 62.2581 6.0495 61.7242 6.54235 61.4846C6.67926 61.4161 6.78878 61.3614 6.85039 61.3477C5.10486 60.2524 4.52986 58.5274 5.15962 57.2748C5.33759 56.8914 5.55664 56.5629 5.84414 56.2617C6.67241 55.406 8.00038 55.0569 9.12985 55.4813C10.0882 56.0426 10.2045 56.8709 9.92389 57.9456C9.7733 58.2331 9.57478 58.4111 9.38312 58.4932C8.89026 58.7191 8.40425 58.37 8.64383 57.8087C9.39681 56.3644 7.89771 56.0495 6.95307 56.8709C5.31706 58.4248 7.13789 61.1286 9.94443 60.1292C11.4025 59.5542 12.751 58.0962 12.0938 56.3575C11.8063 55.5908 11.4298 54.6667 10.3004 53.7426C10.9507 53.7289 11.7447 53.4825 11.7995 52.8048L12.2513 52.6953C12.6346 54.6667 13.2712 56.8504 14.2295 59.1709C14.9346 60.9233 16.2968 63.5244 17.4057 65.1057Z" fill="#0C0E14"/>
    <path fill-rule="evenodd" clip-rule="evenodd" d="M26.8947 74.592L26.6209 74.9616C26.2375 74.8863 25.6694 74.9548 25.1765 75.9884C24.9643 75.208 24.5331 74.3182 23.4515 73.3325C22.0825 72.0798 20.2343 72.7506 19.139 73.8732C17.0923 76.1321 19.0432 78.8086 21.0009 77.8845C22.062 77.4122 22.4658 75.8104 20.7819 75.961C20.1658 75.9679 20.0289 75.386 20.4259 75.0164C20.5765 74.8726 20.8161 74.7563 21.1447 74.7289C22.2399 74.8795 22.9655 75.3039 23.1161 76.406C23.075 77.6449 22.2194 78.7196 21.0831 79.1577C20.7134 79.2946 20.3301 79.3699 19.9331 79.3836C18.5298 79.4863 17.1608 78.2952 16.8117 76.2622C16.7706 76.3101 16.6816 76.3923 16.5652 76.4949C16.1545 76.8577 15.3605 77.378 14.984 77.0015L14.9772 76.9946L14.9703 76.9878C14.6007 76.6113 15.1209 75.8173 15.4769 75.4066C15.5727 75.2902 15.6617 75.2012 15.7096 75.1601C13.6766 74.811 12.4855 73.442 12.5882 72.0387C12.6019 71.6143 12.684 71.231 12.8346 70.8408C13.2727 69.7319 14.3611 68.9036 15.5658 68.8625C16.6611 69.0131 17.0923 69.7387 17.2429 70.834C17.2087 71.1557 17.0992 71.3953 16.9554 71.5527C16.5858 71.9497 16.0039 71.8128 16.0108 71.1967C16.1545 69.5744 14.6486 69.8551 14.0873 70.9777C13.17 73.0381 15.8876 74.8452 18.0986 72.8464C19.2212 71.7581 19.9126 69.8962 18.6393 68.534C18.078 67.9384 17.3798 67.2265 15.9834 66.809C16.5789 66.5488 17.2155 66.0149 17.0102 65.3715L17.3798 65.0977C18.4887 66.7679 19.9057 68.5408 21.6855 70.3206C23.0066 71.6759 25.2655 73.5583 26.8947 74.592Z" fill="#0C0E14"/>
    <path fill-rule="evenodd" clip-rule="evenodd" d="M39.2844 79.7326L39.1749 80.1844C38.7984 80.2665 38.2918 80.5403 38.2371 81.6835C37.7442 81.0469 37.0049 80.3897 35.6222 79.89C33.8767 79.2603 32.4255 80.5814 31.8505 82.0394C30.8305 84.9076 33.6508 86.6394 35.1088 85.0308C35.9097 84.1888 35.6701 82.5596 34.171 83.3332C33.6097 83.5727 33.2537 83.0867 33.4865 82.5939C33.5755 82.4022 33.7466 82.2037 34.0341 82.0531C35.102 81.7724 35.9371 81.8888 36.4984 82.8471C36.9365 84.004 36.5531 85.3251 35.677 86.1671C35.3895 86.4409 35.0677 86.6462 34.7049 86.8174C33.4523 87.454 31.7273 86.8721 30.632 85.1266C30.6115 85.1882 30.5636 85.2977 30.4951 85.4346C30.2555 85.9206 29.7216 86.7079 29.2288 86.5093L29.2151 86.5025L29.2014 86.4956C28.7154 86.2903 28.8865 85.3525 29.0645 84.8391C29.1124 84.6954 29.1535 84.579 29.1808 84.5242C27.1684 84.9829 25.546 84.1751 25.1079 82.8335C24.9573 82.4364 24.8889 82.0531 24.8752 81.6287C24.8615 80.4376 25.546 79.2534 26.6413 78.7537C27.716 78.4731 28.3868 78.9796 28.9413 79.9379C29.0371 80.2528 29.0234 80.5129 28.9481 80.7114C28.7633 81.218 28.1678 81.3138 27.9419 80.7457C27.449 79.1918 26.1689 80.0338 26.08 81.2796C26.0252 83.5317 29.2219 84.1614 30.502 81.4713C31.1249 80.0338 31.0496 78.0486 29.352 77.282C28.6058 76.9466 27.6886 76.5564 26.2374 76.7001C26.6892 76.2347 27.0725 75.4954 26.6344 74.9751L26.874 74.5781C28.5374 75.7007 30.5294 76.796 32.8567 77.7611C34.5817 78.521 37.3814 79.3972 39.2844 79.7326Z" fill="#0C0E14"/>
    <path fill-rule="evenodd" clip-rule="evenodd" d="M52.7078 79.7334L52.7762 80.192C52.4545 80.4111 52.0985 80.856 52.4819 81.9376C51.7837 81.5337 50.8459 81.212 49.381 81.2804C47.5259 81.3694 46.6908 83.1423 46.7182 84.7099C46.8688 87.756 50.1408 88.2694 50.8733 86.2295C51.2908 85.148 50.442 83.731 49.3605 85.0247C48.9292 85.4628 48.4227 85.148 48.4432 84.6072C48.45 84.395 48.539 84.1486 48.7444 83.8953C49.6274 83.2245 50.442 83.0191 51.325 83.6831C52.167 84.5867 52.3244 85.9489 51.8316 87.0715C51.6673 87.4343 51.4483 87.7491 51.1813 88.0435C50.264 89.1113 48.45 89.2346 46.773 88.0435C46.7798 88.1051 46.773 88.2283 46.7593 88.3789C46.7251 88.9197 46.5334 89.8506 45.9995 89.8575H45.9858H45.9721C45.4382 89.8506 45.2465 88.9265 45.2123 88.3789C45.1986 88.2283 45.1986 88.1051 45.1986 88.0435C43.5146 89.2346 41.7075 89.1113 40.7902 88.0435C40.5028 87.7355 40.2837 87.4069 40.1126 87.0236C39.6403 85.9283 39.8182 84.573 40.6465 83.6899C41.5295 83.0191 42.3441 83.2313 43.2271 83.9021C43.4325 84.1554 43.5215 84.4018 43.5283 84.614C43.5489 85.1548 43.0423 85.4697 42.6111 85.0316C41.5638 83.7789 40.7013 85.0521 41.0983 86.2364C41.906 88.3378 45.1027 87.6944 45.2533 84.7167C45.2739 83.1492 44.4524 81.3489 42.5905 81.2873C41.776 81.2599 40.7766 81.253 39.4897 81.9444C39.7224 81.342 39.7977 80.5138 39.1953 80.1989L39.2638 79.7402C41.2283 80.1373 43.4873 80.3905 46.0063 80.3905C47.8956 80.4179 50.8185 80.151 52.7078 79.7334Z" fill="#0C0E14"/>
    <path fill-rule="evenodd" clip-rule="evenodd" d="M65.1037 74.5996L65.3433 74.9966C65.1311 75.3184 64.9737 75.8728 65.7403 76.7216C64.9395 76.6189 63.9537 76.6806 62.6258 77.3035C60.9487 78.0907 60.8529 80.0552 61.4758 81.4927C62.7832 84.2445 66.0005 83.471 65.8978 81.3079C65.8704 80.1511 64.5424 79.1585 64.0359 80.774C63.81 81.3421 63.2145 81.2463 63.0296 80.7398C62.9543 80.5413 62.9406 80.2811 63.0365 79.9663C63.5909 79.0079 64.2686 78.5082 65.3365 78.782C66.4659 79.2954 67.1299 80.4933 67.1025 81.7118C67.0889 82.1088 67.0136 82.4853 66.8698 82.8618C66.4317 84.1966 64.8025 85.0043 62.7969 84.5526C62.8243 84.6073 62.8722 84.7237 62.9133 84.8674C63.0912 85.3808 63.2624 86.3186 62.7764 86.524L62.7627 86.5308L62.749 86.5377C62.2561 86.7362 61.7222 85.9558 61.4826 85.463C61.4142 85.3261 61.3594 85.2165 61.3457 85.1549C60.2505 86.9005 58.5255 87.4755 57.2728 86.8457C56.8895 86.6677 56.5609 86.4487 56.2597 86.1612C55.4041 85.3329 55.055 84.0049 55.4794 82.8755C56.0407 81.9171 56.8689 81.8008 57.9436 82.0814C58.2311 82.232 58.4091 82.4305 58.4913 82.6222C58.7171 83.1151 58.368 83.6011 57.8067 83.3615C56.3624 82.6085 56.0475 84.1076 56.8689 85.0523C58.4228 86.6883 61.1267 84.8674 60.1273 82.0609C59.5523 80.6029 58.0942 79.2544 56.3556 79.9115C55.5889 80.199 54.6648 80.5755 53.7407 81.7049C53.727 81.0546 53.4806 80.2606 52.8029 80.2058L52.6934 79.7541C54.6648 79.3707 56.8484 78.7341 59.1689 77.7758C60.9213 77.0707 63.5156 75.7085 65.1037 74.5996Z" fill="#0C0E14"/>
    <path fill-rule="evenodd" clip-rule="evenodd" d="M74.592 65.1123L74.9616 65.3861C74.8863 65.7694 74.9548 66.3376 75.9884 66.8305C75.208 67.0427 74.3182 67.4739 73.3325 68.5554C72.0798 69.9245 72.7506 71.7727 73.8732 72.8679C76.1321 74.9147 78.8086 72.9638 77.8845 71.006C77.4122 69.945 75.8104 69.5412 75.961 71.2251C75.9679 71.8412 75.386 71.9781 75.0164 71.581C74.8726 71.4236 74.7563 71.1909 74.7289 70.8623C74.8795 69.7671 75.3039 69.0415 76.406 68.8909C77.6449 68.9319 78.7196 69.7876 79.1577 70.9239C79.2946 71.2935 79.3699 71.6769 79.3836 72.0739C79.4863 73.4772 78.2952 74.8462 76.2622 75.1953C76.3101 75.2364 76.3923 75.3254 76.4949 75.4417C76.8577 75.8525 77.378 76.6465 77.0015 77.023L76.9946 77.0298L76.9878 77.0367C76.6113 77.4063 75.8173 76.8861 75.4066 76.5301C75.2902 76.4343 75.2012 76.3453 75.1601 76.2974C74.811 78.3304 73.442 79.5215 72.0387 79.4188C71.6143 79.4051 71.231 79.323 70.8408 79.1724C69.7319 78.7343 68.9036 77.6459 68.8625 76.4411C69.0131 75.3459 69.7387 74.9147 70.834 74.7641C71.1557 74.7983 71.3953 74.9078 71.5527 75.0516C71.9497 75.4212 71.8128 76.003 71.1967 75.9962C69.5744 75.8525 69.8551 77.3584 70.9777 77.9197C73.0381 78.837 74.8452 76.1194 72.8464 73.9084C71.7581 72.7858 69.8962 72.0944 68.534 73.3676C67.9384 73.9289 67.2265 74.6272 66.809 76.0236C66.5488 75.428 66.0149 74.7914 65.3715 74.9968L65.0977 74.6272C66.7679 73.5182 68.5476 72.1013 70.3206 70.3215C71.6759 68.9935 73.5515 66.7415 74.592 65.1123Z" fill="#0C0E14"/>
    <path fill-rule="evenodd" clip-rule="evenodd" d="M79.7248 52.7148L80.1765 52.8244C80.2587 53.2009 80.5325 53.7074 81.6756 53.7622C81.039 54.255 80.3819 54.9943 79.8822 56.377C79.2524 58.1226 80.5736 59.5738 82.0316 60.1488C84.8997 61.1687 86.6316 58.3485 85.023 56.8904C84.181 56.0895 82.5518 56.3291 83.3253 57.8282C83.5649 58.3895 83.0789 58.7455 82.5861 58.5127C82.3944 58.4238 82.1959 58.2526 82.0453 57.9651C81.7646 56.8973 81.881 56.0622 82.8393 55.5008C83.9962 55.0628 85.3173 55.4461 86.1593 56.3223C86.4331 56.6098 86.6384 56.9315 86.8096 57.2943C87.4462 58.547 86.8643 60.272 85.1188 61.3672C85.1804 61.3877 85.2899 61.4356 85.4268 61.5041C85.9128 61.7437 86.7 62.2776 86.5015 62.7705L86.4947 62.7842L86.4878 62.7978C86.2825 63.2839 85.3447 63.1127 84.8313 62.9348C84.6875 62.8868 84.5712 62.8458 84.5164 62.8184C84.975 64.8309 84.1673 66.4532 82.8256 66.8913C82.4286 67.0419 82.0453 67.1103 81.6209 67.124C80.4298 67.1377 79.2456 66.4532 78.7459 65.358C78.4652 64.2833 78.9718 63.6124 79.9301 63.058C80.245 62.9621 80.5051 62.9758 80.7036 63.0511C81.2102 63.2359 81.306 63.8315 80.7379 64.0574C79.184 64.5502 80.026 65.8303 81.2718 65.9193C83.5239 65.974 84.1536 62.7773 81.4634 61.4973C80.026 60.8743 78.0408 60.9496 77.2742 62.6473C76.9388 63.3934 76.5486 64.3106 76.6923 65.7618C76.2269 65.31 75.4876 64.9267 74.9673 65.3648L74.5703 65.1252C75.6929 63.4618 76.7882 61.4699 77.7533 59.1425C78.5132 57.4175 79.3893 54.6178 79.7248 52.7148Z" fill="#0C0E14"/>
    <path fill-rule="evenodd" clip-rule="evenodd" d="M79.7266 39.2979L80.1852 39.2295C80.4042 39.5512 80.8492 39.9072 81.9307 39.5238C81.5269 40.222 81.2051 41.1598 81.2736 42.6247C81.3626 44.4798 83.1355 45.3149 84.703 45.2875C87.7492 45.1369 88.2625 41.8649 86.2227 41.1325C85.1411 40.7149 83.7242 41.5637 85.0179 42.6453C85.456 43.0765 85.1411 43.583 84.6004 43.5625C84.3882 43.5557 84.1417 43.4667 83.8885 43.2613C83.2176 42.3783 83.0123 41.5637 83.6763 40.6807C84.5798 39.8387 85.942 39.6813 87.0646 40.1741C87.4274 40.3384 87.7423 40.5575 88.0367 40.8244C89.1045 41.7417 89.2277 43.5557 88.0367 45.2327C88.0983 45.2259 88.2215 45.2327 88.3721 45.2464C88.9128 45.2807 89.8438 45.4723 89.8506 46.0063V46.0199V46.0336C89.8438 46.5676 88.9197 46.7592 88.3721 46.7935C88.2215 46.8071 88.0983 46.8072 88.0367 46.8072C89.2277 48.4911 89.1045 50.2982 88.0367 51.2155C87.7286 51.503 87.4001 51.722 87.0167 51.8931C85.9215 52.3655 84.5661 52.1875 83.6831 51.3592C83.0123 50.4762 83.2245 49.6616 83.8953 48.7786C84.1486 48.5732 84.395 48.4842 84.6072 48.4774C85.148 48.4568 85.4629 48.9634 85.0248 49.3946C83.7721 50.442 85.0453 51.3045 86.2295 50.9074C88.331 50.0997 87.6876 46.903 84.7099 46.7524C83.1423 46.7319 81.342 47.5533 81.2804 49.4152C81.253 50.2298 81.2462 51.2292 81.9376 52.5161C81.3352 52.2833 80.5069 52.208 80.192 52.8104L79.7334 52.742C80.1304 50.7774 80.3837 48.5185 80.3837 45.9994C80.4111 44.1033 80.1441 41.1872 79.7266 39.2979Z" fill="#0C0E14"/>
    <path fill-rule="evenodd" clip-rule="evenodd" d="M74.5938 26.902L74.9908 26.6624C75.3125 26.8746 75.867 27.032 76.7158 26.2654C76.6131 27.0662 76.6747 28.052 77.2976 29.3799C78.0848 31.057 80.0494 31.1528 81.4869 30.5299C84.2387 29.2225 83.4651 26.0052 81.3021 26.1079C80.1452 26.1353 79.1527 27.4633 80.7681 27.9698C81.3363 28.1957 81.2405 28.7912 80.7339 28.9761C80.5354 29.0514 80.2753 29.0651 79.9604 28.9692C79.0021 28.4148 78.5024 27.7371 78.7762 26.6692C79.2896 25.5398 80.4875 24.8758 81.7059 24.9032C82.103 24.9168 82.4794 24.9921 82.8559 25.1359C84.1907 25.574 84.9985 27.2032 84.5467 29.2088C84.6015 29.1814 84.7178 29.1335 84.8616 29.0924C85.375 28.9145 86.3128 28.7433 86.5181 29.2293L86.525 29.243L86.5318 29.2567C86.7303 29.7496 85.95 30.2835 85.4571 30.5231C85.3202 30.5915 85.2107 30.6463 85.1491 30.66C86.8946 31.7552 87.4696 33.4802 86.8398 34.7329C86.6619 35.1162 86.4428 35.4448 86.1553 35.746C85.3271 36.6016 83.9991 36.9507 82.8696 36.5263C81.9113 35.965 81.7949 35.1368 82.0756 34.0621C82.2262 33.7746 82.4247 33.5966 82.6163 33.5144C83.1092 33.2886 83.5952 33.6377 83.3556 34.199C82.6027 35.6433 84.1018 35.9582 85.0464 35.1368C86.6824 33.5829 84.8616 30.879 82.055 31.8784C80.597 32.4534 79.2485 33.9115 79.9056 35.6502C80.1931 36.4168 80.5696 37.3409 81.6991 38.265C81.0488 38.2787 80.2547 38.5251 80.2 39.2028L79.7482 39.3123C79.3649 37.3409 78.7283 35.1573 77.7699 32.8368C77.0649 31.0844 75.7027 28.4832 74.5938 26.902Z" fill="#0C0E14"/>
    <path fill-rule="evenodd" clip-rule="evenodd" d="M65.1113 17.414L65.3851 17.0444C65.7685 17.1197 66.3366 17.0512 66.8295 16.0176C67.0417 16.7979 67.4729 17.6878 68.5545 18.6735C69.9235 19.9262 71.7717 19.2554 72.867 18.1328C74.9137 15.8738 72.9628 13.1973 71.0051 14.1215C69.9441 14.5938 69.5402 16.1956 71.2241 16.045C71.8402 16.0381 71.9771 16.62 71.5801 16.9896C71.4295 17.1334 71.1899 17.2497 70.8613 17.2771C69.7661 17.1265 69.0405 16.7021 68.8899 15.6C68.931 14.361 69.7866 13.2863 70.9229 12.8482C71.2926 12.7113 71.6759 12.636 72.0729 12.6224C73.4762 12.5197 74.8452 13.7107 75.1943 15.7438C75.2354 15.6959 75.3244 15.6137 75.4408 15.511C75.8515 15.1482 76.6455 14.628 77.022 15.0045L77.0288 15.0113L77.0357 15.0182C77.4053 15.3947 76.8851 16.1887 76.5292 16.5994C76.4333 16.7158 76.3443 16.8048 76.2964 16.8459C78.3294 17.195 79.5205 18.564 79.4178 19.9673C79.4041 20.3917 79.322 20.775 79.1714 21.1652C78.7333 22.2741 77.6449 23.1024 76.4402 23.1435C75.3449 22.9929 74.9137 22.2673 74.7631 21.172C74.7973 20.8503 74.9068 20.6107 75.0506 20.4533C75.4202 20.0563 76.0021 20.1932 75.9952 20.8092C75.8515 22.4316 77.3574 22.1509 77.9187 21.0283C78.836 18.9679 76.1184 17.1607 73.9074 19.1595C72.7848 20.2479 72.0934 22.1098 73.3667 23.472C73.928 24.0676 74.6262 24.7795 76.0226 25.197C75.4271 25.4571 74.7905 25.9911 74.9958 26.6345L74.6262 26.9083C73.5173 25.2381 72.1003 23.4583 70.3205 21.6854C68.9926 20.3301 66.7405 18.4545 65.1113 17.414Z" fill="#0C0E14"/>
    <path fill-rule="evenodd" clip-rule="evenodd" d="M52.7148 12.2806L52.8244 11.8288C53.2009 11.7466 53.7074 11.4728 53.7622 10.3297C54.255 10.9663 54.9943 11.6234 56.377 12.1231C58.1226 12.7529 59.5738 11.4317 60.1488 9.97372C61.1687 7.10557 58.3485 5.37373 56.8904 6.98236C56.0895 7.82432 56.3291 9.45348 57.8282 8.67997C58.3895 8.44039 58.7455 8.9264 58.5127 9.41925C58.4238 9.61092 58.2526 9.80943 57.9651 9.96003C56.8973 10.2407 56.0622 10.1243 55.5008 9.16598C55.0628 8.00914 55.4461 6.68801 56.3223 5.84605C56.6098 5.57224 56.9315 5.36688 57.2943 5.19575C58.547 4.55915 60.272 5.14099 61.3672 6.88652C61.3877 6.82492 61.4356 6.71539 61.5041 6.57849C61.7437 6.09248 62.2776 5.30528 62.7705 5.50379L62.7842 5.51063L62.7978 5.51748C63.2839 5.72284 63.1127 6.66063 62.9348 7.17402C62.8868 7.31777 62.8458 7.43414 62.8184 7.4889C64.8309 7.03027 66.4532 7.83801 66.8913 9.17967C67.0419 9.57669 67.1103 9.96003 67.124 10.3844C67.1377 11.5755 66.4532 12.7597 65.358 13.2594C64.2833 13.5401 63.6124 13.0335 63.058 12.0752C62.9621 11.7603 62.9758 11.5002 63.0511 11.3017C63.2359 10.7951 63.8315 10.6993 64.0574 11.2675C64.5502 12.8213 65.8303 11.9794 65.9193 10.7335C65.974 8.48146 62.7773 7.8517 61.4973 10.5419C60.8743 11.9794 60.9496 13.9645 62.6473 14.7311C63.3934 15.0666 64.3106 15.4567 65.7618 15.313C65.31 15.7785 64.9267 16.5177 65.3648 17.038L65.1252 17.435C63.4618 16.3124 61.4699 15.2172 59.1425 14.252C57.4175 13.4853 54.6178 12.616 52.7148 12.2806Z" fill="#0C0E14"/>
    <path fill-rule="evenodd" clip-rule="evenodd" d="M63.1749 51.3671C62.6136 51.3123 62.5452 51.5451 61.4157 51.2233C59.7523 50.7442 58.7461 50.0391 57.3017 49.2245C56.583 48.8207 55.2687 48.1224 54.2556 48.1909C53.2014 48.2594 52.3869 49.3957 52.6059 50.6073C52.7907 50.6073 53.4616 50.0596 54.2556 50.0323C55.0976 49.998 55.5357 50.0802 56.138 50.4635L58.5886 52.0174C58.6434 52.0448 58.705 52.0858 58.7529 52.1201C59.0746 52.3459 58.5955 51.99 58.8351 52.1817C58.9103 52.2433 58.9103 52.2364 58.9583 52.2912C57.4249 52.6745 56.2476 53.4959 54.7895 53.9683C53.5711 54.3584 50.9767 54.8308 49.683 54.4064C48.8273 54.1257 48.7178 53.4549 48.7178 52.4144C48.711 50.0802 48.9095 49.1903 48.5262 46.7534C48.4577 46.3153 48.3824 45.8978 48.3071 45.4733C48.2592 45.2201 48.1497 44.4603 47.9922 44.2412C47.7869 45.1448 46.9381 45.6376 46.4863 46.2674C46.0961 46.8013 46.7327 47.2805 47.1023 48.9165C47.3351 49.9433 47.4583 50.9974 47.561 52.0721C47.7184 53.7355 47.9306 54.2558 47.0818 54.9403C45.7607 55.9944 43.3717 56.5626 41.5988 55.5837C41.1675 55.3442 40.8184 55.1114 40.353 55.4811C39.8327 55.8918 40.1613 56.2751 40.5857 56.5284C41.3592 56.9802 42.2217 57.4046 43.3375 57.384C45.0967 57.343 46.5547 56.7748 47.6363 55.5016C47.8074 55.3031 47.9717 55.2278 48.136 55.0498C48.8684 54.2489 48.7315 54.8855 50.2854 55.7275C51.1547 56.1998 52.4827 56.0697 53.5095 55.9534C56.9595 55.5632 58.2121 54.3516 61.0871 52.8046C61.6827 52.4829 62.1892 52.2227 62.7368 51.8052C62.9148 51.6477 63.0586 51.4218 63.1749 51.3671Z" fill="#0C0E14"/>
    <path fill-rule="evenodd" clip-rule="evenodd" d="M34.7686 50.1753C33.8172 50.3327 32.9478 50.9351 32.4481 51.8387C31.4419 53.6801 31.8936 56.1922 34.5085 56.8768C37.938 57.7735 40.2996 55.1586 40.902 51.4759C41.3195 48.9569 40.9567 46.4926 40.6145 44.0488C40.0942 44.3021 39.3481 45.1441 39.1633 45.9244C38.9374 46.8691 39.3002 48.0259 39.4918 48.9089C39.704 49.8946 39.7314 51.0241 39.7177 52.0646C39.6972 53.2283 39.3755 53.9402 38.7868 54.5083C37.7805 55.4803 35.0767 56.4113 33.9677 54.9122C33.1053 53.7485 33.2011 52.2973 34.0294 51.1063C34.2826 50.7503 34.5496 50.4765 34.7686 50.1753Z" fill="#0C0E14"/>
    <path fill-rule="evenodd" clip-rule="evenodd" d="M41.9746 49.0121C42.6181 49.5118 42.5085 49.3543 43.2341 50.1347C43.4326 50.3469 43.6243 50.4906 43.8228 50.7028C44.5621 51.4969 44.7606 51.8255 45.4109 52.7085C45.6026 52.9686 46.205 53.9475 46.3898 54.0707C46.7594 53.8996 47.1085 53.7763 46.9442 53.2082C46.7115 52.3936 45.7532 50.785 45.3082 50.1552C44.8359 49.4844 44.4047 49.0531 43.8776 48.4645C43.6791 48.2454 43.3984 47.8758 43.2136 47.5677C42.8987 47.0543 42.9603 46.9859 42.8097 46.4177C42.4401 46.404 42.4195 46.4657 42.399 46.8353C42.3853 47.1433 42.3853 47.3555 42.3306 47.6499C42.2279 48.1427 41.9951 48.5534 41.9746 49.0121Z" fill="#0C0E14"/>
    <path d="M62.2416 57.1707L63.0425 55.7264L63.6723 56.0755C63.6517 56.1577 63.6654 56.2329 63.6996 56.2946C63.7407 56.3562 63.8571 56.4452 64.0487 56.5547L66.4651 57.8963L66.5746 57.7047C66.6978 57.4788 66.7184 57.3077 66.6362 57.1913C66.5541 57.0681 66.3898 56.9449 66.1365 56.8011L65.7806 56.6026L66.2666 55.7264L68.0874 56.7327L66.5267 59.546L65.8696 59.1832C65.897 59.0943 65.8833 59.019 65.8422 58.9505C65.8011 58.8821 65.6848 58.7999 65.4931 58.6904L63.4874 57.5815C63.2958 57.4719 63.1589 57.424 63.0836 57.424C63.0083 57.424 62.9398 57.4582 62.8714 57.5267L62.2416 57.1707ZM64.0624 62.4895L62.9809 63.66L62.4264 63.1466C62.4538 63.085 62.4607 63.0097 62.4401 62.9276C62.4196 62.8454 62.3648 62.7428 62.269 62.6127L60.8178 60.566C60.7699 60.4975 60.7083 60.4359 60.633 60.3948C60.5645 60.3538 60.5029 60.3538 60.4619 60.4017L59.8458 59.8335L61.5982 57.9306L62.2142 58.4987C62.1732 58.5466 62.1732 58.6014 62.2211 58.6698C62.269 58.7383 62.3306 58.7931 62.4059 58.841L64.569 60.121C64.7059 60.2032 64.8154 60.2511 64.8976 60.2648C64.9729 60.2853 65.0482 60.2716 65.1098 60.2374L65.6642 60.7508L64.5485 61.9624L63.994 61.449C64.0487 61.3874 64.0624 61.3258 64.0419 61.2642C64.0214 61.2026 64.0008 61.1615 63.9735 61.141C63.8845 61.0588 63.7955 60.9904 63.6996 60.9356L63.638 60.8945L62.9193 61.6681L62.9672 61.7297C63.0357 61.8186 63.111 61.9076 63.1999 61.9898C63.2205 62.0103 63.2684 62.0308 63.33 62.0445C63.3916 62.0582 63.4532 62.0377 63.5148 61.9761L64.0624 62.4895ZM61.297 59.4981L62.4675 61.0588L62.9946 60.4907L61.3449 59.4502L61.297 59.4981ZM56.6012 62.4553L57.9291 61.4764L58.3535 62.0582C58.2988 62.1267 58.2782 62.1951 58.2851 62.2704C58.2919 62.3457 58.3672 62.4758 58.4973 62.6538L60.1333 64.8853L60.3113 64.7552C60.5166 64.6047 60.6056 64.4541 60.5851 64.3103C60.5577 64.1666 60.4619 63.9817 60.2907 63.749L60.0511 63.4204L60.8589 62.8249L62.091 64.502L59.4967 66.4049L59.0517 65.7957C59.1133 65.7273 59.1339 65.652 59.127 65.5767C59.1202 65.5014 59.0449 65.3713 58.9148 65.1933L57.5595 63.3451C57.4294 63.1672 57.3267 63.0645 57.2583 63.0303C57.1898 62.996 57.1077 63.0029 57.0256 63.0371L56.6012 62.4553ZM56.0809 68.2395L54.6366 68.9171L54.3148 68.2326C54.3696 68.1847 54.397 68.1162 54.4107 68.0341C54.4244 67.952 54.4107 67.8288 54.3765 67.6782L53.8015 65.2344C53.7809 65.1523 53.7467 65.077 53.6988 65.0085C53.6509 64.9401 53.5961 64.9264 53.5345 64.9538L53.1785 64.1939L55.5196 63.0987L55.8756 63.8585C55.8208 63.8859 55.8003 63.9407 55.814 64.0228C55.8345 64.1049 55.8687 64.1802 55.9166 64.2487L57.4363 66.2475C57.5321 66.3776 57.6211 66.4597 57.6827 66.5076C57.7511 66.5555 57.8196 66.5692 57.8949 66.5624L58.2166 67.2469L56.7244 67.9451L56.4026 67.2606C56.4779 67.2264 56.5122 67.1785 56.519 67.11C56.5259 67.0416 56.519 66.9936 56.5053 66.9663C56.4574 66.8636 56.3958 66.7609 56.3273 66.6719L56.2863 66.6103L55.3279 67.0621L55.3485 67.1374C55.3759 67.2469 55.4169 67.3564 55.4648 67.466C55.4785 67.4933 55.5128 67.5276 55.5675 67.5686C55.6223 67.6097 55.6839 67.6097 55.766 67.5755L56.0809 68.2395ZM54.6434 64.4335L55.1363 66.3228L55.8345 65.9942L54.6982 64.413L54.6434 64.4335ZM51.0634 69.807L49.4411 70.1082L49.3041 69.3689C49.3863 69.3279 49.4411 69.2731 49.4684 69.2046C49.4958 69.1293 49.489 68.9856 49.4479 68.7734L49.0235 66.5213C48.9824 66.3023 48.9414 66.1654 48.8866 66.1106C48.8387 66.049 48.7634 66.0216 48.6744 66.0148L48.5443 65.3097L50.1666 65.0085L50.2967 65.7136C50.2077 65.7546 50.153 65.8094 50.1324 65.8779C50.105 65.9532 50.1187 66.0969 50.153 66.3091L50.2762 66.9731L51.3235 66.7814L51.2003 66.1174C51.1592 65.8984 51.1113 65.7615 51.0634 65.7067C51.0086 65.6451 50.9402 65.6177 50.8443 65.6109L50.7143 64.9058L52.3434 64.6047L52.4735 65.3097C52.3913 65.3508 52.3366 65.4055 52.3092 65.474C52.2818 65.5493 52.2818 65.693 52.3229 65.9121L52.7473 68.1642C52.7884 68.3832 52.8363 68.5201 52.8842 68.5749C52.939 68.6365 53.0074 68.6639 53.1032 68.6707L53.2402 69.41L51.611 69.7112L51.4741 68.9719C51.5562 68.9308 51.611 68.8761 51.6384 68.8076C51.6658 68.7392 51.6589 68.5886 51.6178 68.3695L51.4741 67.596L50.4268 67.7945L50.5705 68.568C50.6116 68.7871 50.6595 68.924 50.7074 68.9856C50.7553 69.0404 50.8238 69.0746 50.9196 69.0814L51.0634 69.807ZM44.4372 67.5618L44.4851 66.843L43.8211 67.1511L43.6158 66.713L44.2455 66.4049L43.6568 66.0079L43.9101 65.5904L44.533 65.9737L44.5741 65.2755L45.0875 65.3097L45.0464 66.0079L45.6967 65.7067L45.9089 66.1517L45.2586 66.4665L45.8679 66.8567L45.6009 67.2674L44.9917 66.8773L44.9506 67.596L44.4372 67.5618ZM37.9069 63.6258L41.3911 64.9195L41.1378 65.5972C41.0488 65.5904 40.9667 65.6041 40.9051 65.6588C40.8435 65.7067 40.775 65.8368 40.6997 66.0422L39.8988 68.1915C39.8235 68.3969 39.7893 68.5407 39.803 68.6159C39.8167 68.6912 39.8646 68.7597 39.9399 68.8076L39.6798 69.5127L38.1259 68.9377L38.386 68.2326C38.475 68.2463 38.5572 68.2258 38.6119 68.1779C38.6735 68.1299 38.742 67.9999 38.8173 67.7945L39.7482 65.2755L38.8789 64.9538L37.9206 67.5344C37.7768 67.9314 37.5783 68.2052 37.325 68.3627C37.0717 68.5201 36.7911 68.5407 36.4625 68.4174C36.3667 68.3832 36.2709 68.3353 36.1819 68.2874C36.0929 68.2326 36.0107 68.1779 35.9354 68.1094L36.1887 67.4249L36.3119 67.466C36.442 67.5139 36.5515 67.507 36.6473 67.4454C36.7432 67.3838 36.8322 67.2332 36.9143 66.9936L37.681 64.9264C37.7563 64.721 37.7905 64.5773 37.77 64.502C37.7563 64.4267 37.7084 64.3582 37.6399 64.3103L37.9069 63.6258ZM32.7661 66.3228L31.4107 65.4877L31.8078 64.8442C31.8762 64.8579 31.9515 64.8511 32.0268 64.8169C32.1021 64.7826 32.198 64.7073 32.3075 64.591L34.0325 62.7701C34.0941 62.7085 34.1351 62.6332 34.1625 62.5579C34.1899 62.4826 34.1762 62.4279 34.1215 62.3936L34.5596 61.6749L36.7637 63.0303L36.3256 63.749C36.2709 63.7148 36.2161 63.7285 36.1613 63.7901C36.1066 63.8517 36.0587 63.9201 36.0313 64.0023L35.1893 66.3707C35.1345 66.5213 35.114 66.6377 35.1072 66.7198C35.1072 66.802 35.1277 66.8704 35.1756 66.9252L34.7786 67.5686L33.3753 66.7061L33.7724 66.0627C33.8408 66.1038 33.9024 66.1106 33.964 66.0764C34.0188 66.0421 34.0598 66.0148 34.0735 65.9874C34.1351 65.8847 34.1831 65.782 34.2241 65.6794L34.2515 65.6109L33.3479 65.0564L33.3 65.1112C33.2247 65.1933 33.1494 65.2892 33.0947 65.385C33.081 65.4124 33.0673 65.4603 33.0673 65.5219C33.0604 65.5904 33.0947 65.6451 33.17 65.6862L32.7661 66.3228ZM35.1619 63.0371L33.8545 64.4814L34.5116 64.8853L35.2098 63.0645L35.1619 63.0371ZM29.1176 62.0582L29.9527 62.9139L32.1911 60.7371L31.486 60.0115L29.7953 61.6612C29.6789 61.7776 29.5625 61.8666 29.4599 61.9213C29.3572 61.9761 29.2408 62.024 29.1176 62.0582ZM29.8432 65.2413L29.1108 64.4883L29.3298 64.2761C29.4599 64.146 29.5352 64.0297 29.542 63.9133C29.5489 63.7969 29.4804 63.6669 29.3366 63.5163L28.4947 62.6538C28.2893 62.4416 28.0634 62.4553 27.8239 62.688L27.5843 62.9207L26.8518 62.1678L27.9745 61.0725C28.1114 61.1684 28.2688 61.2026 28.4468 61.182C28.6247 61.1615 28.8233 61.0451 29.0423 60.8329L30.4182 59.4913C30.5756 59.3407 30.6578 59.2243 30.6783 59.1422C30.6988 59.06 30.6783 58.9779 30.6304 58.8957L31.1575 58.3823L33.8134 61.1067L33.2863 61.6201C33.2042 61.5722 33.1289 61.5517 33.0468 61.5722C32.9715 61.5928 32.8551 61.6749 32.7045 61.8186L31.0548 63.4273C30.8974 63.5779 30.8289 63.7216 30.8426 63.8448C30.8563 63.9749 30.8974 64.0707 30.9658 64.1392L29.8432 65.2413ZM25.3733 58.5945L24.4902 57.2666L25.12 56.849C25.1748 56.8901 25.2432 56.9175 25.3322 56.9175C25.4143 56.9175 25.5307 56.8901 25.6813 56.8285L28.0155 55.8975C28.0977 55.8633 28.1661 55.8222 28.2209 55.7606C28.2756 55.699 28.2893 55.6443 28.2551 55.5895L28.9533 55.124L30.384 57.2734L29.6858 57.7389C29.6515 57.6841 29.5968 57.6773 29.5146 57.7047C29.4393 57.7321 29.3709 57.78 29.3093 57.8416L27.5569 59.6419C27.4474 59.7582 27.3721 59.8541 27.3378 59.9225C27.3036 59.9978 27.2968 60.0663 27.3173 60.1416L26.6876 60.5591L25.7703 59.1901L26.4001 58.7725C26.448 58.841 26.5027 58.8684 26.5643 58.8615C26.6328 58.8547 26.6739 58.841 26.7012 58.8273C26.7971 58.7657 26.8861 58.6904 26.9682 58.6082L27.023 58.5535L26.4343 57.6773L26.3658 57.7047C26.2631 57.7457 26.1605 57.8005 26.0646 57.869C26.0373 57.8895 26.0099 57.9237 25.9756 57.9853C25.9414 58.0469 25.9551 58.1085 26.003 58.177L25.3733 58.5945ZM28.9259 56.6163L27.1325 57.3829L27.5637 58.0264L28.9602 56.6642L28.9259 56.6163Z" fill="#0C0E14"/>
    <path fill-rule="evenodd" clip-rule="evenodd" d="M44.947 23.7193H41.3053C41.4764 23.6235 41.6544 23.5208 41.8529 23.4318C42.7428 23.0005 43.8381 22.6788 44.947 22.5488V23.7193ZM45.8711 23.7193H45.2961V22.5145C45.4877 22.5008 45.6794 22.4872 45.8711 22.4872V23.7193ZM46.7952 23.7193H46.2133V22.4872C46.405 22.494 46.6035 22.5077 46.7952 22.5214V23.7193ZM50.608 23.7193H47.1374V22.5625C48.1779 22.6994 49.2047 23.0142 50.0467 23.4249C50.2452 23.5208 50.4368 23.6235 50.608 23.7193ZM36.7396 40.0999C37.4241 40.1547 37.0339 40.0109 37.5473 41.1267C39.3407 45.0148 44.7485 43.6457 44.7485 39.5728C44.7485 38.4913 44.7416 37.7383 43.9886 36.7868C41.8529 34.124 38.8753 37.3344 40.9767 38.2312C41.5107 38.457 43.3041 36.9648 43.3041 39.696C43.3041 41.3047 40.9631 42.352 38.93 40.2573C37.0613 38.327 37.6021 33.7749 41.7776 33.6106C42.8318 33.5696 43.0098 33.8571 43.8244 34.0419C43.6738 33.6038 43.5642 33.0083 43.5642 32.5975C43.5642 31.9952 43.8791 31.1943 44.3651 30.5645C45.1729 29.5309 46.4666 28.9833 47.6371 30.6261C48.308 31.5708 48.438 32.1594 48.397 32.6797C48.3627 33.1315 48.2464 33.5011 48.1574 34.0419C49.2526 33.7886 50.2999 33.1041 52.1413 34.1309C55.7693 36.1502 53.7225 41.4005 50.916 41.4005C49.6496 41.4005 48.6845 41.0582 48.6845 39.4291C48.6845 38.416 49.2252 37.6972 50.3752 38.149C50.9776 38.3886 50.3752 38.4297 50.9297 38.2585C53.1749 37.574 50.2315 34.0008 48.0068 36.78C46.2133 39.0184 47.6508 43.4746 50.9228 43.4677C51.9428 43.4677 52.9901 42.8996 53.5856 42.352C54.9615 41.0856 54.2496 40.1684 55.2559 40.0862C55.9062 42.8859 60.7526 43.632 63.5317 43.632H68.5219C69.0901 43.632 68.8573 43.1734 68.8162 42.8311C68.7478 42.2425 68.7409 42.0371 68.6383 41.5374C68.2823 39.7919 67.8716 38.813 67.1186 37.2797C66.441 35.9175 65.202 34.2062 64.2163 33.0904C63.9698 32.8097 63.7439 32.6455 63.4975 32.3648C60.7252 29.2023 56.6318 26.4848 53.0038 24.2874C52.6342 23.5139 51.7511 22.7815 50.608 22.2339C49.2868 21.5973 47.5824 21.1592 45.9806 21.1592C44.3583 21.1592 42.6196 21.5904 41.2848 22.2339C40.1964 22.7541 39.3544 23.4455 38.9848 24.1916C32.5434 27.6142 24.8836 34.035 23.3503 41.5305C22.7411 44.5151 22.8164 43.4883 28.3336 43.4883C29.7369 43.4883 30.8664 43.543 32.0848 43.3035C33.9125 42.968 36.3631 41.7428 36.7396 40.0999Z" fill="#0C0E14"/>
</svg>