<svg xmlns="http://www.w3.org/2000/svg" width="92" height="92" viewBox="0 0 92 92" fill="none">
    <path fill-rule="evenodd" clip-rule="evenodd" d="M47.2401 86.2021C47.11 87.0509 46.3296 87.6328 45.5493 87.5027C44.7005 87.3727 44.1186 86.5923 44.1802 85.7435C44.3103 84.9632 45.0907 84.3745 45.9395 84.4429C46.7814 84.573 47.3701 85.3533 47.2401 86.2021Z" fill="#0C0E14"/>
    <path d="M45.9999 1.82767C21.6309 1.82767 1.82083 21.6377 1.82083 46.0067C1.82083 70.3757 21.6309 90.1857 45.9999 90.1857C70.3688 90.1857 90.1789 70.3757 90.1789 46.0067C90.1789 21.6377 70.3688 1.82767 45.9999 1.82767ZM45.9999 91.9997C20.652 91.9997 0 71.4093 0 45.9999C0 20.652 20.652 0 45.9999 0C71.3477 0 91.9997 20.652 91.9997 45.9999C91.9997 71.4093 71.3477 91.9997 45.9999 91.9997Z" fill="#0C0E14"/>
    <path d="M45.9396 11.5335C26.9167 11.5335 11.4055 26.9763 11.4055 45.9991C11.4055 65.022 26.9099 80.5333 45.9396 80.5333C64.9693 80.5333 80.4669 65.0289 80.4669 45.9991C80.4669 26.9694 64.9624 11.5335 45.9396 11.5335ZM45.9396 81.4437C26.4581 81.4437 10.5566 65.5422 10.5566 45.9991C10.5566 26.5177 26.4581 10.6162 45.9396 10.6162C65.4895 10.6162 81.3225 26.5177 81.3225 45.9991C81.3157 65.5491 65.4827 81.4437 45.9396 81.4437Z" fill="#0C0E14"/>
    <path fill-rule="evenodd" clip-rule="evenodd" d="M41.7618 25.8682C41.5633 26.2584 41.3716 26.7786 41.1115 27.1072C41.7002 31.3444 42.4121 37.5325 37.9832 38.0527C36.8127 38.1828 35.3136 38.0527 34.7934 37.334C33.8145 35.8349 34.9919 33.617 35.3136 32.1864C35.1151 34.0757 35.0535 36.2935 36.9428 36.6837C37.9832 36.8822 39.7424 36.5536 40.2011 35.9033C40.6597 35.3146 40.6597 33.4254 40.5913 31.9947C40.5228 29.3867 40.3311 27.1072 39.5508 25.5465C39.8109 25.0879 40.2011 24.8278 40.4612 24.376C41.0499 24.7593 41.1115 25.6081 41.7618 25.8682Z" fill="#0C0E14"/>
    <path fill-rule="evenodd" clip-rule="evenodd" d="M60.4647 34.075V34.4036C60.2662 34.6637 59.876 35.7727 59.3558 35.9027C59.1573 35.9712 58.5754 35.8343 58.1168 35.8343C57.0763 35.9027 55.8373 36.1628 54.7284 36.553C53.6195 36.9432 52.449 37.7235 51.4085 37.4634C50.4981 37.2649 49.8478 36.0944 49.5808 35.4441C49.0606 34.0134 49.0606 32.3843 48.6704 30.6867C47.9517 35.1155 45.6722 38.4423 40.3945 38.0521C44.1115 37.2033 46.4525 35.2524 47.4999 31.9941C48.1502 30.1664 48.1502 27.3667 48.7388 25.5459C49.8478 26.3263 49.2591 27.8938 49.2591 29.1944C49.2591 31.0221 49.5192 33.2331 50.2379 34.4721C51.3469 36.3613 54.215 36.1628 55.9058 34.7322C54.9269 33.5617 52.0588 33.6917 51.1484 34.6021C51.7371 33.4932 52.3189 32.3843 53.5579 32.1926C56.1043 31.734 57.7951 34.4652 60.4647 34.075Z" fill="#0C0E14"/>
    <path fill-rule="evenodd" clip-rule="evenodd" d="M42.223 27.3682C44.701 28.347 46.2617 30.2363 46.2001 33.8164C45.6114 32.7074 45.5498 31.5369 44.3724 30.9482C43.462 30.4896 42.4831 30.558 42.093 29.7092C41.8328 29.1274 41.9629 28.217 42.223 27.3682Z" fill="#0C0E14"/>
    <path d="M22.4798 56.0349C22.3497 56.0349 22.2197 55.9664 22.1512 55.8363L14.7858 48.4709C14.0054 47.7521 13.6152 46.7801 13.6152 45.8013C13.6152 44.7608 14.0054 43.7819 14.7858 43.0632L22.1512 35.6977C22.3497 35.4992 22.6715 35.4992 22.87 35.6977C23.0685 35.8962 23.0685 36.2179 22.87 36.4165L15.4429 43.7819C14.9227 44.3021 14.6626 45.0209 14.6626 45.8013C14.6626 46.52 14.9227 47.2319 15.4429 47.759L22.87 55.1861C23.0685 55.3846 23.0685 55.6447 22.87 55.8363C22.7399 55.9664 22.6098 56.0349 22.4798 56.0349Z" fill="#0C0E14"/>
    <path d="M46 78.1241C44.9596 78.1241 43.9807 77.7339 43.2619 77.0152L36.2251 69.9098C36.0265 69.7113 36.0265 69.4512 36.2251 69.2595C36.4236 68.9994 36.7453 68.9994 36.9438 69.2595L43.9807 76.2964C44.5009 76.8167 45.2197 77.1452 46 77.1452C46.7188 77.1452 47.4307 76.8167 48.0194 76.2964L55.0563 69.2595C55.2548 68.9994 55.5765 68.9994 55.775 69.2595C55.9735 69.4581 55.9735 69.7182 55.775 69.9098L48.6697 77.0152C47.9578 77.7339 47.0405 78.1241 46 78.1241Z" fill="#0C0E14"/>
    <path d="M69.4579 56.0965C69.3895 56.0965 69.2594 56.0281 69.1294 55.9665C68.9308 55.768 68.9308 55.4462 69.1294 55.2477L76.4948 47.7522C77.015 47.232 77.3436 46.5132 77.3436 45.7945C77.3436 45.0141 77.015 44.2954 76.4948 43.7751L69.1294 36.2933C68.9308 36.0948 68.9308 35.8347 69.1294 35.643C69.3279 35.4445 69.6496 35.4445 69.8481 35.643L77.2135 43.0701C77.9323 43.7888 78.3225 44.7609 78.3225 45.8082C78.3225 46.787 77.9323 47.7659 77.2135 48.4778L69.8481 55.9733C69.718 56.0349 69.588 56.0965 69.4579 56.0965Z" fill="#0C0E14"/>
    <path d="M55.1254 23.0678C54.9953 23.0678 54.8653 23.0678 54.7968 22.9378L47.6299 15.7708C46.521 14.6619 44.7001 14.6619 43.5912 15.7708L36.4243 22.9378C36.2258 23.1363 35.904 23.1363 35.7055 22.9378C35.507 22.7392 35.507 22.4175 35.7055 22.219L42.8725 15.0521C44.3716 13.553 46.8495 13.553 48.3486 15.0521L55.5156 22.219C55.7141 22.4175 55.7141 22.7392 55.5156 22.9378C55.3855 23.0678 55.2555 23.0678 55.1254 23.0678Z" fill="#0C0E14"/>
    <path d="M22.4812 36.5538C22.2211 36.5538 21.9609 36.3553 21.9609 36.0336V25.93C21.9609 23.7806 23.7202 22.083 25.8079 22.083H35.9731C36.2332 22.083 36.4317 22.2815 36.4317 22.6032C36.4317 22.8634 36.2332 23.0619 35.9731 23.0619H25.8011C24.2404 23.0619 23.0014 24.3625 23.0014 25.93V36.0267C23.0014 36.3553 22.7413 36.5538 22.4812 36.5538Z" fill="#0C0E14"/>
    <path d="M36.554 70.1084H25.8001C23.7123 70.1084 21.9531 68.3492 21.9531 66.2614V55.5144C21.9531 55.2543 22.2132 54.9941 22.4734 54.9941C22.7335 54.9941 22.9936 55.2543 22.9936 55.5144V66.2614C22.9936 67.8221 24.2326 69.0611 25.7933 69.0611H36.5471C36.8072 69.0611 37.0674 69.3212 37.0674 69.5813C37.0674 69.8414 36.8141 70.1084 36.554 70.1084Z" fill="#0C0E14"/>
    <path d="M66.1314 70.1083H55.446C55.1174 70.1083 54.9258 69.8482 54.9258 69.5881C54.9258 69.3279 55.1243 69.0678 55.446 69.0678H66.1314C67.6921 69.0678 68.9995 67.8288 68.9995 66.2681V55.5759C68.9995 55.3158 69.1981 55.0557 69.4582 55.0557C69.7867 55.0557 69.9784 55.3158 69.9784 55.5759V66.2613C69.9784 68.3491 68.2808 70.1083 66.1314 70.1083Z" fill="#0C0E14"/>
    <path d="M69.4595 36.4853C69.1994 36.4853 69.0009 36.2252 69.0009 35.9651V25.93C69.0009 24.3693 67.7003 23.0619 66.1327 23.0619H55.1188C54.8587 23.0619 54.6602 22.8634 54.6602 22.6032C54.6602 22.2747 54.8587 22.083 55.1188 22.083H66.1327C68.2821 22.083 69.9797 23.7738 69.9797 25.93V35.9651C69.9797 36.2252 69.7812 36.4853 69.4595 36.4853Z" fill="#0C0E14"/>
    <path fill-rule="evenodd" clip-rule="evenodd" d="M34.7252 58.1231C35.444 58.1231 36.0943 58.1231 36.813 58.1231C36.7446 57.0826 36.813 55.9053 36.813 54.8032C37.5934 54.6731 38.5722 54.8032 39.421 54.7347C39.421 57.3428 39.421 60.5326 39.421 63.4008H36.813C36.813 62.2302 36.7446 60.9228 36.813 59.8823C36.2243 59.8139 35.3824 59.8823 34.7252 59.8823C34.5952 60.9913 34.7252 62.2302 34.6568 63.4008H32.1172C31.9187 61.5731 32.3157 58.5817 32.1172 56.624C32.0487 56.0353 31.7886 55.6451 31.3984 55.385C31.5969 54.7963 32.1788 54.4062 32.8975 54.4062C34.6636 54.3377 34.8553 56.1654 34.7252 58.1231Z" fill="#0C0E14"/>
    <path fill-rule="evenodd" clip-rule="evenodd" d="M43.071 61.9637C44.3099 61.9637 44.3099 58.4453 42.9409 58.7054C41.832 58.9039 41.832 62.0322 43.071 61.9637ZM43.9198 58.1852V57.2748H46.3977C46.5963 59.1641 45.8091 61.9021 47.048 62.8126C46.5894 64.0515 43.9882 63.853 43.9882 62.3539C43.3995 63.4629 41.8388 64.1816 40.7299 63.1343C38.9707 61.6352 39.2993 57.0763 42.0305 57.0078C43.0025 57.0147 43.4611 57.5349 43.9198 58.1852Z" fill="#0C0E14"/>
    <path fill-rule="evenodd" clip-rule="evenodd" d="M47.4369 54.6665C48.2173 54.6665 49.1277 54.5981 49.9149 54.735V58.5135C49.9149 59.7525 49.7164 61.2516 50.0449 62.1004C50.175 62.429 50.5036 62.5591 50.6336 62.8192C50.0449 63.9897 47.964 63.9281 47.5054 62.6891C47.1152 61.8403 47.3068 60.1495 47.3068 58.8421V54.8034C47.3684 54.735 47.3684 54.6665 47.4369 54.6665Z" fill="#0C0E14"/>
    <path fill-rule="evenodd" clip-rule="evenodd" d="M53.946 61.9637C55.1849 61.9637 55.1849 58.4453 53.8159 58.7054C52.7138 58.9039 52.7138 62.0322 53.946 61.9637ZM54.7948 58.1852V57.2748H57.2727C57.4713 59.1641 56.6841 61.9021 57.923 62.8126C57.4644 64.0515 54.8632 63.853 54.8632 62.3539C54.2745 63.4629 52.7138 64.1816 51.6049 63.1343C49.8457 61.6352 50.1743 57.0763 52.9055 57.0078C53.8844 57.0147 54.343 57.5349 54.7948 58.1852Z" fill="#0C0E14"/>
    <path fill-rule="evenodd" clip-rule="evenodd" d="M58.3158 54.6652C59.0962 54.6652 60.0066 54.5967 60.7938 54.6652V58.5122C60.7938 59.7512 60.5953 61.2503 60.9238 62.0991C61.0539 62.4277 61.3825 62.5577 61.5125 62.8178C60.9238 63.9884 58.8429 63.9268 58.3843 62.6878C57.9941 61.839 58.1857 60.1482 58.1857 58.8408V54.8021C58.2542 54.7336 58.2542 54.6652 58.3158 54.6652Z" fill="#0C0E14"/>
    <path fill-rule="evenodd" clip-rule="evenodd" d="M71.6697 41.6333C71.6013 44.433 71.7382 47.3696 71.6013 50.0393C70.4924 50.0393 69.2534 50.1693 68.2813 50.0393V43.2009C67.9528 43.0708 67.4325 43.2009 67.1108 43.1324C66.7206 46.0622 67.2409 49.3205 64.7629 50.5595C63.4623 51.2098 60.8543 51.4699 59.0266 49.9092C58.568 49.519 61.8263 48.4101 62.0248 48.7387C62.3534 49.389 63.0653 49.0672 63.2638 48.6702C64.1742 46.9794 63.9141 43.9812 64.2427 41.6333C66.3921 41.0515 69.4587 41.1131 71.6697 41.6333Z" fill="#0C0E14"/>
    <path fill-rule="evenodd" clip-rule="evenodd" d="M56.9459 48.02C58.5751 47.9516 58.5751 43.1325 56.6858 43.5227C55.1867 43.7828 55.1867 48.0885 56.9459 48.02ZM58.0548 42.8108V41.5718H61.5048C61.5048 45.4804 60.9846 48.3486 62.4152 49.1289C61.7649 50.8882 58.7667 51.0182 58.1164 48.4786C57.3361 50.1078 55.1867 51.0867 53.6191 49.6492C51.2096 47.5614 51.6614 41.2432 55.4468 41.1816C56.8158 41.1816 57.4661 41.8935 58.0548 42.8108Z" fill="#0C0E14"/>
    <path fill-rule="evenodd" clip-rule="evenodd" d="M29.2564 44.6313C30.3653 46.5891 32.7748 50.2376 32.7748 50.2376H28.2159C28.2159 50.2376 26.6552 47.3078 25.868 45.8087C24.629 46.5274 25.3477 48.4783 26.0665 49.1971C24.9576 51.8051 20.9189 50.4977 21.2475 47.5063C21.446 45.5486 23.2052 44.4465 24.8344 43.8578C24.3141 42.9474 23.7254 42.0301 23.2052 41.1197C22.6165 40.2093 21.576 38.3816 21.576 38.3816H25.8748C26.6552 39.8807 27.4355 41.3114 28.1543 42.8789C29.4549 42.2287 28.873 39.9492 28.0858 39.162C28.3459 38.3816 29.0647 37.9915 30.0436 37.9915C31.5427 37.923 32.5831 38.9703 32.7817 40.1409C33.2266 42.6804 30.9471 44.0495 29.2564 44.6313Z" fill="#0C0E14"/>
    <path fill-rule="evenodd" clip-rule="evenodd" d="M51.408 41.6325C51.3396 44.4322 51.4765 47.3688 51.3396 50.1C50.2306 50.0316 48.9916 50.1685 48.0196 50.0316C48.0196 47.7521 48.0196 45.5343 48.0196 43.2548C47.6911 43.1248 47.2393 43.1864 46.8491 43.1864C46.4589 46.1161 46.9792 49.3128 44.5012 50.5518C43.2006 51.2021 40.5926 51.4622 38.7649 49.9631C38.3063 49.573 41.5646 48.4024 41.7631 48.7241C42.0917 49.3744 42.872 49.0527 43.0021 48.7241C43.9125 47.0334 43.7208 43.9667 43.9809 41.6188C46.1303 41.1123 49.197 41.1807 51.408 41.6325Z" fill="#0C0E14"/>
    <path fill-rule="evenodd" clip-rule="evenodd" d="M36.6842 48.02C38.3749 48.02 38.3133 43.201 36.4241 43.5227C34.925 43.8513 34.925 48.0885 36.6842 48.02ZM37.7931 42.8108C37.7931 42.4206 37.7931 41.962 37.7931 41.5718H41.2431C41.2431 45.5489 40.7229 48.4102 42.1535 49.1974C41.5032 50.9566 38.505 51.0251 37.8547 48.5471C37.0744 50.1078 34.925 51.0867 33.3574 49.7176C30.9479 47.5682 31.3997 41.2501 35.1851 41.1816C36.4857 41.1816 37.2044 41.8935 37.7931 42.8108Z" fill="#0C0E14"/>
    <path d="M38.1146 87.7007L36.4238 87.4406L36.4923 87.1805C36.5607 87.112 36.6223 87.112 36.7524 87.112C36.8208 87.112 36.9509 87.0436 37.0125 87.0436L38.4432 85.8046C38.3747 85.6061 38.3131 85.476 38.183 85.2843C38.1146 85.0858 37.9845 84.8942 37.8545 84.6957C37.7244 84.4355 37.656 84.237 37.5259 84.0454C37.3958 83.8469 37.2658 83.6552 37.1357 83.4567L36.8756 83.1966L36.9441 82.998L37.9845 83.1966L38.2446 83.3951C38.3131 83.5251 38.3747 83.7236 38.4432 83.8537C38.5732 84.0522 38.6417 84.2439 38.7033 84.4424C38.7717 84.5724 38.9018 84.771 38.9634 84.9626C39.0319 85.1611 39.0935 85.3528 39.1619 85.4829L39.422 85.5513L39.6821 83.9222C39.6137 83.8537 39.5521 83.8537 39.4836 83.7921C39.4152 83.7236 39.3536 83.7236 39.2851 83.662L39.3536 83.4019L41.2429 83.7305L41.1744 83.9906C41.106 83.9906 40.9759 84.0591 40.9143 84.0591C40.8458 84.0591 40.7158 84.0591 40.6542 84.0591L40.0039 87.6459C40.1339 87.6459 40.2024 87.7144 40.264 87.7144C40.3941 87.7829 40.4625 87.8445 40.5241 87.9129L40.4557 88.173L38.5664 87.7829L38.6348 87.5843C38.6348 87.5159 38.7649 87.5159 38.8333 87.5159C38.9018 87.4474 39.0319 87.4474 39.0935 87.4474L39.3536 85.8867H38.9634L37.7244 87.1873C37.7929 87.2558 37.8545 87.3174 37.9229 87.3174C38.053 87.3858 38.1214 87.4474 38.1214 87.4474V87.7007H38.1146Z" fill="#0C0E14"/>
    <path d="M33.7519 84.4421C33.882 84.5105 34.012 84.5105 34.0805 84.5105L34.6692 82.7513C34.6692 82.7513 34.6007 82.7513 34.5391 82.6829C34.4707 82.6829 34.4091 82.6829 34.3406 82.6144C34.1421 82.546 33.9504 82.546 33.7519 82.6829C33.5534 82.7513 33.4234 83.0114 33.2933 83.3332C33.0948 83.8534 33.2248 84.2504 33.7519 84.4421ZM36.223 82.8814L36.093 83.0799C36.0245 83.0799 35.9629 83.1483 35.8329 83.1483C35.7644 83.1483 35.6344 83.0799 35.5728 83.0799L34.4022 86.4683C34.4707 86.5367 34.5323 86.5983 34.6623 86.6668C34.7308 86.6668 34.7924 86.7352 34.8609 86.8653L34.7924 87.0638L32.8347 86.4135L32.9031 86.215C33.0332 86.1465 33.1016 86.1466 33.2317 86.1466C33.3001 86.1466 33.4302 86.1465 33.4918 86.215L33.9504 84.9144C33.882 84.9144 33.8204 84.846 33.6903 84.846C33.5603 84.846 33.4918 84.7775 33.4302 84.7775C33.2317 84.7091 33.04 84.579 32.8415 84.5174C32.643 84.3873 32.5129 84.2573 32.4513 84.1272C32.3213 83.9972 32.2528 83.7986 32.2528 83.607C32.1844 83.4769 32.2528 83.2168 32.3213 83.0183C32.3897 82.7582 32.5198 82.5597 32.6498 82.4296C32.7799 82.2995 32.9784 82.2311 33.1701 82.1695C33.3686 82.101 33.5603 82.101 33.7588 82.101C34.0189 82.101 34.2174 82.1695 34.4775 82.2311C34.4775 82.2311 34.546 82.2311 34.546 82.2995C34.6144 82.2995 34.676 82.2995 34.8061 82.368C34.8745 82.368 34.9361 82.4364 35.0662 82.4364C35.1347 82.5049 35.1963 82.5049 35.2647 82.5049L36.223 82.8814ZM30.8838 81.0537L32.7115 81.6424L32.5814 81.9025C32.5129 81.9025 32.4513 81.9025 32.3829 81.9025C32.2528 81.9025 32.1844 81.9025 32.1228 81.9025L30.9522 85.2909C31.0207 85.3593 31.0823 85.3594 31.1507 85.421C31.2192 85.4894 31.2808 85.551 31.3493 85.6195L31.2808 85.8796L29.4531 85.2293L29.5216 84.9692C29.6516 84.9692 29.8501 84.9692 30.0418 84.9692L31.2124 81.5808C31.1439 81.5123 31.0138 81.5123 30.9522 81.4507C30.8838 81.3823 30.8222 81.3207 30.8222 81.2522L30.8838 81.0537Z" fill="#0C0E14"/>
    <path d="M26.6475 83.4025C26.716 83.471 26.7776 83.471 26.7776 83.471C26.846 83.5394 26.9077 83.5394 26.9077 83.5394L27.8181 81.8486C27.8181 81.7802 27.7496 81.7802 27.688 81.7186C27.6196 81.7186 27.558 81.6501 27.4895 81.6501C27.421 81.5817 27.291 81.5817 27.2294 81.5201C27.0993 81.5201 26.9693 81.5201 26.8392 81.5885C26.7708 81.5885 26.6407 81.657 26.5791 81.787C26.449 81.8555 26.3806 81.9855 26.2505 82.1156C26.1205 82.4442 26.052 82.7043 26.1205 82.896C26.1889 83.1424 26.3874 83.2724 26.6475 83.4025ZM28.6053 80.3359C28.5368 80.2674 28.4068 80.2058 28.3452 80.0757C28.2767 80.0073 28.2151 79.9457 28.1466 79.8772L28.2151 79.6787L30.1044 80.5891L29.9743 80.8492C29.9059 80.8492 29.7758 80.8492 29.7142 80.7808C29.6457 80.7808 29.5157 80.7808 29.4541 80.7808L27.8249 83.9091C27.8934 83.9775 27.955 84.0391 28.0234 84.1076C28.0919 84.176 28.1535 84.2376 28.1535 84.3677L28.085 84.5662L27.3663 84.176C27.1678 84.1076 27.0377 84.046 26.846 83.9159C26.6475 83.8474 26.4559 83.7858 26.2574 83.7174C26.0588 83.5873 25.9288 83.4573 25.7371 83.3272C25.5386 83.1972 25.4086 82.9986 25.3469 82.8686C25.2169 82.6701 25.1484 82.4784 25.1484 82.2799C25.1484 82.0814 25.2169 81.8897 25.3469 81.6296C25.477 81.4311 25.6071 81.2394 25.7371 81.171C25.9356 81.0409 26.1273 80.9725 26.3258 80.9108C26.5243 80.9108 26.716 80.9109 26.9761 80.9793C27.1746 80.9793 27.3663 81.1094 27.5648 81.1778C27.6333 81.1778 27.6333 81.2463 27.6949 81.2463C27.6949 81.2463 27.7633 81.3147 27.8249 81.3147C27.8249 81.3147 27.8934 81.3832 27.955 81.3832C27.955 81.4516 28.0234 81.4516 28.0234 81.4516L28.6053 80.3359Z" fill="#0C0E14"/>
    <path d="M24.4992 77.9258C24.4307 77.8573 24.3691 77.7957 24.3007 77.6657C24.2322 77.5972 24.1706 77.5356 24.1022 77.4671L24.2322 77.207L25.9914 78.3776L25.8614 78.5761C25.6013 78.5761 25.4712 78.5076 25.2727 78.446L23.315 81.4442C23.315 81.5127 23.3834 81.5743 23.445 81.6427C23.5135 81.7112 23.5751 81.7728 23.6435 81.9029L23.5135 82.1014L20.7754 80.2737C20.8438 80.2052 20.9054 80.0752 20.9739 80.0136C21.0423 79.8835 21.1724 79.7535 21.234 79.685C21.3025 79.5549 21.4325 79.4249 21.4941 79.3564C21.5626 79.2264 21.6926 79.1579 21.7543 79.0963L21.9528 79.2264L21.6926 80.3353L22.473 80.924L24.4992 77.9258Z" fill="#0C0E14"/>
    <path d="M19.7412 76.6865C19.8712 76.7549 19.9397 76.8166 20.0013 76.885L21.2403 75.516C21.2403 75.4475 21.1718 75.4475 21.1102 75.3859C21.0418 75.3174 21.0418 75.2558 20.9802 75.2558C20.8501 75.1258 20.6516 74.9957 20.3915 75.0573C20.193 75.0573 20.0013 75.1874 19.7412 75.4475C19.351 75.9061 19.351 76.2963 19.7412 76.6865ZM22.6093 76.1663L22.4793 76.3648C22.3492 76.3648 22.2808 76.2963 22.2192 76.2963C22.0891 76.2279 22.0206 76.1663 21.959 76.1663L19.5495 78.8359C19.618 78.9043 19.618 78.9659 19.6796 79.0344C19.748 79.1029 19.8096 79.1645 19.8096 79.2945L19.6111 79.493L18.112 78.124L18.3105 77.9255C18.379 77.9939 18.5091 77.9939 18.5707 78.0555C18.6391 78.0555 18.7692 78.124 18.8308 78.1856L19.7412 77.1451C19.6727 77.1451 19.6111 77.0767 19.5427 77.0151C19.4126 76.9466 19.3442 76.885 19.2826 76.8166C19.1525 76.6865 19.0224 76.488 18.8924 76.3579C18.7623 76.1594 18.6939 76.0294 18.6323 75.8377C18.5638 75.7076 18.5638 75.5091 18.6323 75.3174C18.7007 75.1189 18.8308 74.9273 18.9608 74.7288C19.1593 74.5987 19.2894 74.4686 19.4811 74.4002C19.6727 74.3317 19.8713 74.2701 20.0698 74.3317C20.2683 74.3317 20.4599 74.4002 20.6585 74.5302C20.857 74.5987 21.0486 74.7288 21.2471 74.9204C21.2471 74.9204 21.3156 74.9204 21.3156 74.9889C21.384 75.0573 21.4457 75.1189 21.5141 75.1189C21.5826 75.1874 21.6442 75.249 21.7126 75.3174C21.7811 75.3859 21.8427 75.4475 21.8427 75.516L22.6093 76.1663ZM18.4406 72.3877L19.8712 73.6883L19.6727 73.8868C19.6043 73.8183 19.5427 73.8183 19.4742 73.8183C19.3442 73.7499 19.2757 73.7499 19.2141 73.6883L16.8046 76.3579C16.873 76.4264 16.9347 76.488 16.9347 76.5564C17.0031 76.6865 17.0031 76.7549 17.0647 76.8166L16.8662 77.0151L15.4355 75.7145L15.6341 75.516C15.7641 75.516 15.9626 75.646 16.0927 75.7145L18.5022 73.0448C18.4337 72.9764 18.3721 72.9148 18.3721 72.7847C18.3037 72.7163 18.3037 72.6547 18.2421 72.5862L18.4406 72.3877Z" fill="#0C0E14"/>
    <path d="M17.0047 70.5671C17.0731 70.6356 17.1347 70.6972 17.2032 70.8272C17.2716 70.9573 17.3332 71.0257 17.4017 71.1558C17.4701 71.2859 17.5318 71.3543 17.6002 71.4844C17.6002 71.5528 17.6687 71.6829 17.6687 71.7445C17.6002 71.8129 17.5386 71.8129 17.4702 71.8745C17.4017 71.943 17.2716 72.0046 17.21 72.0046C17.08 72.0731 17.0115 72.1347 16.9499 72.2031C16.8199 72.2031 16.7514 72.2716 16.6213 72.2716L16.4913 72.0731L17.0115 71.3543C17.0115 71.2859 16.9431 71.2243 16.8815 71.0942C16.8815 71.0257 16.813 70.9641 16.7514 70.8957C16.5529 70.6356 16.3612 70.5671 16.1011 70.5055C15.9026 70.5055 15.6425 70.574 15.4508 70.7656C15.2523 70.9641 15.1222 71.1558 15.1222 71.3543C15.1222 71.4844 15.1907 71.7445 15.3208 71.8745L15.7109 72.2031C15.7109 72.2716 15.6425 72.3332 15.5809 72.4016C15.4508 72.4701 15.3824 72.5317 15.3208 72.6001L15.1907 72.4016C15.1222 72.3332 15.1222 72.2716 15.0606 72.2031C14.9922 72.1347 14.9306 72.0731 14.8621 72.0731C14.7321 71.943 14.5336 71.943 14.4035 71.943C14.205 71.943 14.0749 72.0115 13.9449 72.1415C13.7463 72.34 13.6163 72.5317 13.6163 72.6618C13.5478 72.8603 13.6163 73.0519 13.8148 73.2504C13.8833 73.3189 13.9449 73.3805 14.0133 73.449C14.0818 73.5174 14.1434 73.5174 14.1434 73.5174L14.9922 73.2573L15.1907 73.4558C15.1222 73.5242 15.0606 73.5859 15.0606 73.6543C14.9922 73.7228 14.9306 73.7844 14.8621 73.8528C14.7937 73.9213 14.7321 73.9829 14.6636 74.0513C14.5952 74.1198 14.5336 74.1814 14.4035 74.2498C14.335 74.2498 14.2734 74.1814 14.1434 74.1198C14.0749 74.0513 13.9449 73.9897 13.8833 73.9213C13.8148 73.8528 13.6848 73.7912 13.6231 73.7228C13.5547 73.5927 13.4931 73.5242 13.4246 73.4626C13.2946 73.3326 13.1645 73.1341 13.0961 73.004C12.966 72.8055 12.8975 72.6138 12.8359 72.4838C12.8359 72.2853 12.8359 72.0936 12.9044 71.9635C12.9728 71.765 13.0345 71.635 13.233 71.5049C13.363 71.3748 13.5615 71.3064 13.8217 71.2448C14.0818 71.2448 14.3419 71.3132 14.5404 71.5049L14.6088 71.4365C14.5404 71.368 14.4788 71.2379 14.4103 71.1079C14.4103 70.9778 14.4103 70.8478 14.4103 70.7177C14.4103 70.5876 14.4788 70.4576 14.4788 70.3275C14.5472 70.1975 14.6773 70.129 14.8074 69.999C14.9374 69.8689 15.1359 69.7388 15.3276 69.7388C15.5261 69.6704 15.7178 69.6704 15.9163 69.7388C16.1148 69.8073 16.2449 69.8689 16.4365 69.999C16.6145 70.1701 16.813 70.307 17.0047 70.5671Z" fill="#0C0E14"/>
    <path d="M12.2517 66.391L12.1216 66.1309C12.1901 66.0624 12.2517 66.0624 12.3201 66.0008C12.3886 65.9324 12.4502 65.8707 12.5186 65.8023C12.6487 65.7338 12.7171 65.6722 12.7787 65.6038C12.9088 65.5353 12.9773 65.4737 13.0389 65.4053C13.1689 65.4737 13.3674 65.6038 13.4975 65.7955C13.6276 65.9255 13.8261 66.124 13.9561 66.3157C14.0862 66.5758 14.2162 66.9044 14.3463 67.1645C14.4148 67.4931 14.4148 67.7532 14.4148 68.0133C14.3463 68.2734 14.2162 68.5335 14.0246 68.7937C13.8261 69.0538 13.566 69.3139 13.2442 69.5124C12.9157 69.7109 12.5939 69.9026 12.2654 69.9026C11.9368 69.971 11.6767 69.971 11.4166 69.9026C11.1564 69.8341 10.8963 69.7041 10.6978 69.5124C10.4993 69.3823 10.3076 69.1222 10.1091 68.8621C9.97906 68.6636 9.849 68.4035 9.78055 68.2118C9.65049 68.0133 9.58203 67.8216 9.58203 67.6916C9.65048 67.6231 9.7121 67.5615 9.78055 67.5615C9.91061 67.4931 9.97906 67.4315 10.1091 67.363L10.4377 67.2329C10.5061 67.1645 10.6362 67.1645 10.6978 67.1029L10.8279 67.363L10.2392 68.1434C10.2392 68.2118 10.2392 68.2734 10.3076 68.3419C10.3076 68.4103 10.3761 68.4719 10.4377 68.602C10.5061 68.732 10.6362 68.8621 10.7663 68.9306C10.8963 68.999 11.0948 69.0606 11.2865 69.1291C11.485 69.1291 11.6767 69.0606 11.8752 68.999C12.1353 68.9306 12.3954 68.8005 12.6555 68.6088C13.1758 68.2803 13.5043 67.9585 13.6344 67.5684C13.8329 67.1782 13.7645 66.8496 13.5043 66.4594C13.5043 66.391 13.4359 66.3294 13.3743 66.2609C13.3058 66.1925 13.2442 66.1309 13.1758 66.1309L12.2517 66.391Z" fill="#0C0E14"/>
    <path d="M11.335 61.7715L12.3139 63.7292L12.1154 63.7977C12.0469 63.7977 11.9169 63.6676 11.8553 63.5992C11.7868 63.5307 11.7252 63.4006 11.6567 63.339L8.39842 64.8997L8.72698 65.55L9.89752 65.4816L10.0276 65.6801C9.89752 65.7486 9.82906 65.8102 9.699 65.8786C9.63055 65.9471 9.50049 66.0087 9.37044 66.0771C9.24038 66.2072 9.11032 66.2756 9.04187 66.3372C8.91181 66.4057 8.78174 66.4673 8.71329 66.4673L6.97461 62.812C7.04306 62.812 7.17312 62.7435 7.30318 62.6819C7.43324 62.6819 7.5633 62.6134 7.69336 62.5518C7.82342 62.4834 7.95347 62.4218 8.08353 62.4218C8.15198 62.3533 8.28205 62.3533 8.34365 62.2917L8.47371 62.5518L7.69336 63.4006L8.02193 64.0509L11.2802 62.4902C11.2118 62.3602 11.2118 62.2917 11.1502 62.1617C11.1502 62.0316 11.1502 61.9632 11.1502 61.8331L11.335 61.7715Z" fill="#0C0E14"/>
    <path d="M8.66796 59.9432L8.27778 58.9028L7.29891 59.6831L6.77868 59.9432L7.36737 59.8748L8.66796 59.9432ZM10.3587 59.293L10.879 60.7921L10.6805 60.8605C10.612 60.7921 10.5504 60.7921 10.4819 60.7304C10.4135 60.662 10.3519 60.5319 10.3519 60.4703L5.92303 60.2718L5.79297 59.8132L9.11289 57.0135C9.11289 56.945 9.11289 56.815 9.11289 56.7534C9.11289 56.6233 9.1129 56.5549 9.18135 56.4933L9.37986 56.4248L10.0302 58.3141L9.77004 58.3825C9.77004 58.3141 9.70159 58.2525 9.63998 58.184C9.57153 58.054 9.50992 57.9855 9.44147 57.9239L8.59266 58.5742L9.05129 59.9432H10.1602C10.0918 59.7447 10.0918 59.5531 10.1602 59.3546L10.3587 59.293Z" fill="#0C0E14"/>
    <path d="M8.86501 53.8181L9.19359 55.7073L8.93346 55.7758C8.93346 55.7073 8.86501 55.5773 8.8034 55.5157C8.73495 55.4472 8.73495 55.3172 8.67334 55.2556L5.1549 55.9743C5.1549 56.0428 5.1549 56.1728 5.1549 56.2344C5.1549 56.3645 5.08646 56.4329 5.08646 56.4945L4.82633 56.563L4.49777 54.6737L4.69627 54.6053C4.76473 54.6737 4.82634 54.7353 4.89479 54.8038C4.89479 54.8722 4.96324 54.9338 4.96324 55.0023L6.46234 54.7422L6.20222 53.113L4.64151 53.3731C4.70996 53.4416 4.64151 53.5716 4.64151 53.6332C4.64151 53.7017 4.57306 53.7633 4.57306 53.8318L4.31294 53.9002L3.98438 52.0109L4.18288 51.9425C4.25133 52.0109 4.31295 52.0725 4.3814 52.2026C4.44985 52.271 4.44984 52.3326 4.51145 52.4627L8.02989 51.744C8.02989 51.6755 8.02989 51.5454 8.02989 51.4838C8.02989 51.3538 8.09835 51.2853 8.09835 51.2237L8.35847 51.1553L8.68704 53.0445L8.48853 53.113C8.42008 53.0445 8.35846 52.9829 8.29001 52.9145C8.29001 52.846 8.22157 52.7844 8.22157 52.716L6.5924 52.9761L6.92097 54.6669L8.48168 54.3383C8.48168 54.2698 8.55013 54.1398 8.55013 54.0782C8.55013 54.0097 8.55013 53.9481 8.61858 53.8797L8.86501 53.8181Z" fill="#0C0E14"/>
    <path d="M3.64853 45.2201V43.6594H3.90866C3.97711 43.7279 3.97711 43.7895 4.03872 43.858C4.03872 43.9264 4.10716 44.0565 4.10716 44.1181L5.73633 45.2886L7.69406 43.988C7.69406 43.858 7.76251 43.7895 7.76251 43.7279C7.83096 43.6594 7.83096 43.5978 7.89257 43.4678L8.15269 43.5362L8.08423 45.5556H7.82412C7.82412 45.4871 7.75567 45.4255 7.75567 45.3571C7.68721 45.2886 7.68721 45.1585 7.68721 45.0969L6.25656 45.9457L7.6256 46.8562C7.69406 46.7261 7.69406 46.6576 7.69406 46.596C7.76251 46.5276 7.76252 46.466 7.82412 46.3975H8.08423V47.9582H7.82412C7.75567 47.8282 7.69406 47.6981 7.6256 47.5681L5.86639 46.2675L4.03872 47.438C4.03872 47.5065 3.97026 47.5681 3.97026 47.6365C3.90181 47.705 3.90181 47.7666 3.8402 47.835H3.58008L3.64853 45.8157H3.90866C3.90866 45.8841 3.9771 45.9457 3.9771 46.0142C3.9771 46.1443 4.04556 46.2127 4.04556 46.2743L5.34615 45.5556L4.10716 44.7752C4.03871 44.8437 4.03871 44.9737 3.9771 45.0353C3.9771 45.1038 3.90866 45.1654 3.90866 45.2338H3.64853V45.2201Z" fill="#0C0E14"/>
    <path d="M6.57863 41.1132L6.70869 40.0043L5.46971 40.2644H4.94947L5.46971 40.5245L6.57863 41.1132ZM8.4063 41.3733L8.14619 42.934L7.94768 42.8656C7.87922 42.7971 7.87922 42.7355 7.81762 42.6671C7.81762 42.537 7.81762 42.4686 7.81762 42.4069L4.03906 40.1891L4.10751 39.7305L8.3447 38.7516C8.41315 38.6831 8.41315 38.5531 8.47476 38.4915C8.54321 38.423 8.60482 38.3614 8.60482 38.293L8.86493 38.3614L8.53637 40.3192L8.33786 40.2507C8.26941 40.1822 8.2694 40.1206 8.2694 39.9906C8.20095 39.9221 8.20095 39.7921 8.20095 39.7305L7.16048 39.929L6.96196 41.298L7.87238 41.8183C7.94083 41.6882 8.00244 41.4897 8.1325 41.298L8.4063 41.3733Z" fill="#0C0E14"/>
    <path d="M5.60636 35.382C5.53791 35.5121 5.47631 35.6421 5.40786 35.7106C5.2778 35.8406 5.20934 35.9091 5.14774 35.9707L4.94922 35.9022L5.98969 32.3838L6.18821 32.4522C6.18821 32.5207 6.25666 32.5823 6.25666 32.7124C6.25666 32.7808 6.25666 32.9109 6.25666 33.0409L9.64504 34.0198C9.71349 33.9513 9.7751 33.8897 9.84356 33.8213C9.91201 33.6912 9.91201 33.6228 9.97362 33.5612L10.2337 33.6296L9.64504 35.5189L9.44653 35.4504C9.44653 35.382 9.37808 35.3204 9.37808 35.1903C9.37808 35.1219 9.37808 35.0603 9.37808 34.9302L5.92809 33.9513L5.66797 34.9302C6.25666 35.1287 6.7769 35.3204 7.16707 35.4504C7.55725 35.649 7.88583 35.779 8.14594 35.9091C8.40606 36.0391 8.60457 36.1692 8.73463 36.2993C8.86469 36.4293 8.93314 36.5594 9.0632 36.6894C9.13165 36.8195 9.19326 36.9495 9.19326 37.0796C9.19326 37.2097 9.19326 37.3397 9.19326 37.4082C9.12481 37.4766 9.1248 37.5382 8.99475 37.5382C8.92629 37.5382 8.86469 37.6067 8.73463 37.6067C8.66618 37.6067 8.60457 37.6751 8.47451 37.6067C8.40606 37.6751 8.276 37.6067 8.21439 37.6067L8.01588 37.3466L8.40606 36.6963C8.3376 36.6278 8.20755 36.4978 8.07749 36.4362C7.87898 36.3061 7.74892 36.2376 7.4888 36.1076C7.29029 35.9775 7.03017 35.9091 6.70844 35.779C6.38672 35.6421 5.99654 35.5121 5.60636 35.382Z" fill="#0C0E14"/>
    <path d="M9.38477 30.8164L9.905 29.7759L8.60441 29.6459L8.08417 29.5774L8.47435 29.906L9.38477 30.8164ZM11.0755 31.5351L10.4868 32.9658L10.2267 32.8357C10.2267 32.7673 10.2267 32.7057 10.2267 32.6372C10.2267 32.5688 10.2267 32.4387 10.2267 32.3771L7.22852 29.1872L7.42703 28.7971L11.7943 28.9956C11.8627 28.9271 11.8627 28.8655 11.9243 28.7971C11.9928 28.7286 12.0544 28.7286 12.1229 28.667L12.383 28.7354L11.5342 30.5631L11.3356 30.4947C11.3356 30.3646 11.3356 30.2962 11.3356 30.1661C11.3356 30.0976 11.3357 29.9676 11.4041 29.906L10.2952 29.8375L9.70649 31.1381L10.4868 31.8569C10.6169 31.7268 10.747 31.5967 10.877 31.4667L11.0755 31.5351Z" fill="#0C0E14"/>
    <path d="M9.96679 25.0184C9.89833 25.1484 9.83673 25.2169 9.70668 25.2785C9.63822 25.4085 9.50816 25.4085 9.44655 25.477L9.24805 25.3469L11.1373 22.2871L11.3358 22.4172C11.3358 22.4856 11.3358 22.5472 11.3358 22.6157C11.3358 22.7457 11.2674 22.8142 11.2674 22.9442L14.2656 24.8335C14.334 24.7651 14.3956 24.7035 14.5257 24.635C14.5942 24.5666 14.6558 24.505 14.7242 24.505L14.9227 24.635L13.8823 26.2642L13.6837 26.1341C13.6837 26.0657 13.6837 26.0041 13.7522 25.874C13.7522 25.8056 13.7522 25.7439 13.8206 25.6139L10.7608 23.7246L10.1721 24.635C10.7608 24.9636 11.151 25.2853 11.5412 25.5454C11.8698 25.8056 12.1299 26.0657 12.3215 26.2642C12.5201 26.4627 12.6501 26.6544 12.7802 26.7844C12.8486 26.9145 12.9102 27.113 12.9787 27.243C13.0471 27.3731 13.0471 27.5032 13.0471 27.6332C13.0471 27.7633 12.9787 27.8933 12.9171 27.9618C12.9171 28.0302 12.8486 28.0302 12.7186 28.0302C12.6501 28.0302 12.5885 28.0302 12.4584 28.0302C12.39 28.0302 12.2599 28.0302 12.1983 27.9618C12.1299 27.9618 11.9998 27.9618 11.9382 27.8933L11.8082 27.6332L12.3968 27.0445C12.3284 26.9761 12.1983 26.846 12.1367 26.716C12.0067 26.5859 11.8766 26.3874 11.6781 26.2573C11.4796 26.0588 11.2195 25.8672 10.9594 25.6686C10.6855 25.477 10.357 25.2785 9.96679 25.0184Z" fill="#0C0E14"/>
    <path d="M18.2416 20.6524L16.8725 22.0215L16.7424 21.823C16.7424 21.7545 16.8109 21.6929 16.8109 21.5628C16.8793 21.4944 16.8793 21.4328 16.941 21.3643L14.3329 18.8864C14.2645 18.8864 14.2029 18.9548 14.1344 19.0164C14.0044 19.0849 13.9359 19.0849 13.8743 19.1465L13.6758 18.948L14.9764 17.5789L15.1749 17.709C15.1749 17.7774 15.1064 17.9075 15.1064 17.9691C15.038 18.0375 15.038 18.0992 14.9764 18.2292L16.7356 19.8584L17.0642 20.2486L16.8657 19.6599L16.3454 16.9902L16.277 16.8602C16.0785 16.9902 15.9484 17.0587 15.7567 17.1203L15.6267 16.9218L16.9273 15.5527L17.0573 15.7512C17.0573 15.8197 17.0573 15.8813 16.9889 15.9498C16.9889 16.0798 16.9204 16.1483 16.8588 16.2099L19.4668 18.6878C19.5353 18.6194 19.5969 18.6194 19.727 18.5578C19.7954 18.4893 19.857 18.4893 19.9255 18.4277L20.124 18.6262L18.8234 19.9953L18.6249 19.8652C18.6249 19.7968 18.6933 19.7352 18.6933 19.6051C18.7618 19.5367 18.7618 19.475 18.8234 19.345L17.0642 17.7158L16.8041 17.3256L16.9341 17.8459L17.4543 20.584L17.5844 20.714C17.6529 20.6456 17.7145 20.584 17.7829 20.584C17.913 20.5155 17.9814 20.5155 18.043 20.4539L18.2416 20.6524Z" fill="#0C0E14"/>
    <path d="M22.2821 16.8732L20.783 18.0437L20.5845 17.8452C20.653 17.7768 20.7146 17.7152 20.783 17.6467C20.783 17.5166 20.8515 17.4482 20.9131 17.3866L18.6952 14.5869C18.6268 14.6553 18.4967 14.6553 18.4351 14.7169C18.3667 14.7169 18.2366 14.7169 18.175 14.7169L18.0449 14.5869L19.544 13.3479L19.6741 13.5464C19.6741 13.6149 19.6741 13.7449 19.6056 13.8065C19.5372 13.875 19.5372 13.9366 19.4756 14.005L20.386 15.1756L21.755 14.1967L20.7762 12.9577C20.7077 13.0262 20.6461 13.0262 20.516 13.0262C20.4476 13.0946 20.386 13.0946 20.3175 13.0946L20.1875 12.8961L21.6866 11.7256L21.8166 11.9241C21.8166 11.9926 21.7482 12.0542 21.6866 12.1842C21.6181 12.2527 21.6181 12.3143 21.5565 12.3827L23.7059 15.2509C23.836 15.1824 23.9044 15.1208 24.0345 15.1208C24.1029 15.0524 24.1646 15.0524 24.233 15.0524L24.4315 15.2509L22.8708 16.4214L22.7407 16.2229C22.8092 16.1544 22.8092 16.0928 22.8708 16.0244C22.8708 15.9559 22.9393 15.8943 23.0009 15.8259L21.9604 14.5253L20.6598 15.5041L21.7003 16.8047C21.7687 16.8047 21.8303 16.7363 21.8988 16.7363C21.9672 16.7363 22.0288 16.6678 22.1589 16.6678L22.2821 16.8732Z" fill="#0C0E14"/>
    <path d="M27.3002 13.034L25.4726 9.90571L24.6237 10.4259C24.8223 10.8846 25.0139 11.2748 25.144 11.5965C25.3425 11.9867 25.4041 12.3152 25.5342 12.6369C25.6026 12.8971 25.6642 13.1572 25.7327 13.3557C25.7327 13.6158 25.7327 13.8143 25.7327 13.9444L27.3002 13.034ZM28.7377 12.2468C28.8062 12.3152 28.8678 12.3768 28.9362 12.5069C29.0047 12.637 29.0047 12.767 29.0663 12.8971C29.1348 12.9655 29.1964 13.0956 29.1964 13.2256C29.2648 13.3557 29.3264 13.4858 29.3264 13.5542L29.1279 13.6843L28.2791 12.9655L25.6711 14.4646L25.8696 15.5051L25.6711 15.6352C25.6026 15.5667 25.541 15.4366 25.4109 15.375C25.3425 15.245 25.2809 15.1765 25.2124 15.0465C25.144 14.9164 25.0139 14.848 24.9523 14.7179C24.8839 14.6494 24.8839 14.5194 24.8223 14.4578L25.2809 14.1977C25.2809 13.9991 25.2809 13.739 25.2809 13.4789C25.2124 13.1503 25.1508 12.8902 25.0208 12.5685C24.9523 12.3084 24.8223 11.9798 24.6922 11.6581C24.5621 11.3295 24.4321 11.0078 24.2336 10.7477C24.1035 10.7477 24.0351 10.8161 23.905 10.8161C23.7749 10.8161 23.6449 10.8846 23.5148 10.8846L23.3848 10.6245L26.5746 8.86523L26.7047 9.06375C26.5746 9.1938 26.4446 9.32386 26.3145 9.45392L28.1422 12.5822L28.7377 12.2468Z" fill="#0C0E14"/>
    <path d="M30.9458 7.42791C30.8773 7.42791 30.7472 7.42791 30.6856 7.42791C30.6172 7.42791 30.5556 7.42791 30.4255 7.42791L30.3571 7.16779L31.7877 6.5791L31.8562 6.83922C31.8562 6.83922 31.7877 6.90767 31.7261 6.96928C31.6577 7.03773 31.596 7.09934 31.5276 7.16779L31.3975 10.166C31.3975 10.6862 31.3291 11.0764 31.199 11.3365C31.1306 11.6651 30.9389 11.7952 30.6788 11.8568C30.6103 11.8568 30.6103 11.7883 30.5487 11.7883C30.4803 11.7199 30.4187 11.6583 30.3502 11.5898C30.2818 11.5213 30.2202 11.4597 30.1517 11.3913C30.1517 11.3228 30.0833 11.3228 30.0833 11.2612L30.1517 10.9327L30.9321 10.8642C30.9321 10.8642 30.9321 10.7958 31.0005 10.7341C31.0005 10.6657 31.0005 10.6041 31.0005 10.5356L28.3309 8.44785C28.2624 8.44785 28.1324 8.44785 28.0708 8.44785C28.0023 8.44785 27.9407 8.44785 27.8722 8.44785L27.7422 8.18773L29.5699 7.46898L29.6999 7.66749C29.5699 7.79755 29.4398 7.92761 29.3097 8.05767L30.8089 9.29665L31.069 9.62522L31.0005 9.16659L30.9458 7.42791Z" fill="#0C0E14"/>
    <path d="M36.7523 8.40648L37.0124 8.33802C37.0809 8.40648 37.0809 8.46808 37.1425 8.59814C37.1425 8.66659 37.2109 8.7282 37.2725 8.85826C37.2725 8.92671 37.341 9.05677 37.341 9.18683C37.4094 9.25528 37.4094 9.38534 37.4094 9.44695C37.341 9.57701 37.1493 9.64546 36.9508 9.77552C36.7523 9.84397 36.5606 9.97403 36.3005 9.97403C35.9719 10.1041 35.6502 10.1725 35.3216 10.1041C35.0615 10.1041 34.8014 10.0356 34.5413 9.90558C34.2812 9.77552 34.0826 9.57701 33.891 9.38534C33.6925 9.12522 33.5624 8.79665 33.5008 8.40648C33.3707 8.0163 33.3023 7.62612 33.3707 7.366C33.4392 7.03743 33.5008 6.77731 33.6309 6.5172C33.8294 6.31868 34.021 6.12702 34.2195 5.92851C34.4797 5.79845 34.7398 5.66839 34.9999 5.59994C35.26 5.53148 35.5201 5.46988 35.7803 5.46988C35.9788 5.40142 36.1704 5.46988 36.3005 5.46988C36.3689 5.53833 36.3689 5.59994 36.3689 5.72999C36.4374 5.79845 36.4374 5.92851 36.4374 6.05857C36.5058 6.18862 36.5058 6.25708 36.5058 6.38714C36.5058 6.51719 36.5058 6.58565 36.5058 6.64725L36.2457 6.77731L35.657 5.92851C35.657 5.92851 35.5886 5.92851 35.4585 5.92851C35.3901 5.92851 35.3285 5.92851 35.1984 5.99696C35.0683 5.99696 34.9383 6.06541 34.8082 6.19547C34.6782 6.32553 34.5481 6.45559 34.4797 6.6541C34.4112 6.78416 34.3496 7.04428 34.3496 7.3044C34.3496 7.50291 34.4181 7.82463 34.4797 8.1532C34.6782 8.74189 34.8698 9.13207 35.1984 9.39219C35.527 9.65231 35.8487 9.72076 36.3073 9.5907C36.3758 9.5907 36.5058 9.52225 36.5675 9.46064C36.6359 9.46064 36.6975 9.39219 36.6975 9.39219L36.7523 8.40648Z" fill="#0C0E14"/>
    <path d="M41.3721 8.99448L39.2227 9.2546V9.05609C39.2912 8.98764 39.3528 8.92603 39.4829 8.85758C39.6129 8.85758 39.6814 8.78912 39.8114 8.72752L39.2912 5.20908L38.5724 5.27753L38.3123 6.44806H38.0522C38.0522 6.37961 37.9838 6.318 37.9838 6.18794C37.9153 6.05788 37.8537 5.92782 37.8537 5.79776C37.7852 5.59925 37.7852 5.46919 37.7852 5.33913C37.7168 5.20908 37.7168 5.07902 37.7168 5.01056L41.6939 4.42188C41.6939 4.55193 41.6939 4.62039 41.6939 4.75045C41.7623 4.94896 41.7623 5.07902 41.7623 5.20908C41.7623 5.33913 41.7623 5.46919 41.7623 5.59925C41.7623 5.72931 41.7623 5.85937 41.7623 5.92782L41.5022 5.99628L40.9135 4.9558L40.1948 5.08586L40.715 8.6043C40.8451 8.6043 40.9751 8.67276 41.0436 8.67276C41.1736 8.67276 41.3037 8.67276 41.3721 8.74121V8.99448Z" fill="#0C0E14"/>
    <path d="M44.8911 4.68812C44.8227 4.68812 44.7611 4.68812 44.6926 4.68812C44.6242 4.68812 44.6242 4.68812 44.5626 4.68812V6.64585C44.631 6.64585 44.6926 6.64585 44.7611 6.64585H44.9596C45.0897 6.64585 45.1581 6.64585 45.2882 6.5774C45.3566 6.50895 45.4867 6.50895 45.5483 6.37889C45.6167 6.31044 45.6783 6.18038 45.7468 6.05032C45.8152 5.98187 45.8153 5.7902 45.8153 5.66014C45.8153 5.26997 45.7468 5.00985 45.5551 4.87979C45.4114 4.75657 45.1513 4.62651 44.8911 4.68812ZM44.631 8.33662C44.7611 8.33662 44.8295 8.33662 44.9596 8.40508C45.0897 8.40508 45.1581 8.47353 45.2882 8.47353V8.73365H43.1388V8.53513C43.2688 8.46668 43.3373 8.40508 43.3989 8.40508C43.5289 8.40508 43.5974 8.33662 43.659 8.33662L43.5906 4.74973C43.5221 4.74973 43.392 4.68128 43.3304 4.68128C43.262 4.61282 43.1319 4.61282 43.0703 4.55122V4.29794H43.8507C44.0492 4.29794 44.2408 4.29794 44.4394 4.29794C44.6995 4.22949 44.898 4.22949 45.0896 4.22949C45.2882 4.22949 45.4798 4.22949 45.74 4.29794C45.9385 4.3664 46.1301 4.428 46.2602 4.49646C46.4587 4.62652 46.5888 4.75657 46.7188 4.95509C46.7873 5.08514 46.8489 5.34526 46.8489 5.60538C46.8489 5.8655 46.8489 6.06401 46.7188 6.25568C46.6504 6.38574 46.5203 6.58425 46.3286 6.71431C46.1986 6.78276 46.0001 6.91282 45.74 6.97442C45.5414 7.04288 45.3498 7.04288 45.0896 7.04288H45.0212H44.8227C44.8227 7.04288 44.7542 7.04288 44.6926 7.04288C44.6242 7.04288 44.6242 7.04288 44.6242 7.04288V8.33662H44.631Z" fill="#0C0E14"/>
    <path d="M49.7174 8.9262L47.8281 8.72768L47.8966 8.46757C47.965 8.46757 48.0266 8.39911 48.1567 8.39911C48.2252 8.33066 48.3552 8.33066 48.4168 8.33066L48.8755 4.81222C48.7454 4.74377 48.6769 4.74377 48.6153 4.68216C48.4853 4.61371 48.4168 4.61371 48.3552 4.5521V4.29883L50.2445 4.55895V4.75746C50.176 4.82591 50.1144 4.82591 50.046 4.88752C49.9159 4.88752 49.8475 4.88752 49.7174 4.88752L49.4573 7.29703L49.3272 7.75566L49.7174 7.29703L51.5451 5.27769L51.6135 5.14764C51.415 5.01758 51.2234 4.94912 51.0933 4.88752L51.1618 4.6274L53.051 4.88752L52.9826 5.08603C52.9141 5.15448 52.8525 5.15448 52.7225 5.21609C52.654 5.21609 52.5924 5.21609 52.4623 5.21609L52.0722 8.80298C52.1406 8.80298 52.2022 8.87143 52.3323 8.87143C52.4007 8.93989 52.4623 9.00149 52.5308 9.06995V9.26846L50.6415 9.06995V8.80983C50.71 8.80983 50.7716 8.74137 50.84 8.74137C50.9701 8.74137 51.0385 8.67292 51.1686 8.67292L51.4287 6.32501L51.5588 5.80478L51.2302 6.26341L49.3409 8.3512V8.48126C49.4094 8.48126 49.471 8.54971 49.601 8.61132C49.6695 8.61132 49.7311 8.67977 49.7996 8.67977L49.7174 8.9262Z" fill="#0C0E14"/>
    <path d="M56.1035 7.88593C56.1035 7.95438 56.2336 7.95438 56.302 7.95438C56.3705 7.95438 56.4321 7.95438 56.4321 7.95438L56.8907 6.26361C56.8907 6.26361 56.8222 6.19516 56.7606 6.19516C56.6922 6.19516 56.6306 6.12671 56.5621 6.12671C56.4937 6.12671 56.3636 6.05826 56.2336 6.05826C56.1035 6.05826 56.035 6.12671 55.905 6.18832C55.8365 6.18832 55.7065 6.25677 55.6449 6.38683C55.5764 6.45528 55.5148 6.58534 55.5148 6.77701C55.3848 7.10558 55.4464 7.29724 55.5148 7.49575C55.6449 7.68742 55.8365 7.81748 56.1035 7.88593ZM58.4446 6.18832L58.3761 6.44844C58.3077 6.44844 58.2461 6.44844 58.116 6.51689C58.0475 6.51689 57.9175 6.51689 57.8559 6.51689L56.877 9.96688C57.0071 10.0353 57.0755 10.0353 57.1371 10.0969C57.2672 10.1654 57.3356 10.227 57.3356 10.2954L57.2672 10.494L55.3779 9.97372L55.4464 9.77521C55.5148 9.77521 55.6449 9.70676 55.7065 9.70676C55.7681 9.70676 55.905 9.70676 55.9666 9.70676L56.3568 8.33772L55.8365 8.20766C55.638 8.46777 55.4464 8.72789 55.2479 8.9264C55.0493 9.18652 54.8577 9.38503 54.5976 9.5767L54.269 9.70676L53.2285 9.44664L53.297 9.18652L53.6255 9.11807C53.9541 8.91956 54.2142 8.72789 54.4059 8.52938C54.666 8.33087 54.8645 8.1392 55.0562 7.94069C54.9877 7.87224 54.8577 7.81063 54.7961 7.74218C54.666 7.61212 54.5976 7.54367 54.5359 7.41361C54.4675 7.28355 54.4675 7.15349 54.4675 7.02343C54.399 6.82492 54.4675 6.69486 54.4675 6.5032C54.536 6.30469 54.666 6.11302 54.7961 5.98296C54.9261 5.8529 55.1246 5.72284 55.3163 5.65439C55.5148 5.58594 55.7065 5.58594 55.9666 5.58594C56.2267 5.58594 56.4252 5.65439 56.6853 5.716C56.6853 5.716 56.7538 5.716 56.8154 5.78445C56.8839 5.78445 56.9455 5.78445 57.0139 5.8529C57.0824 5.8529 57.2124 5.8529 57.274 5.92135C57.3425 5.92135 57.4041 5.92135 57.4725 5.92135L58.4446 6.18832Z" fill="#0C0E14"/>
    <path d="M61.6396 10.8153L61.8997 10.8838C61.8997 10.9522 61.8997 11.0823 61.8312 11.1439C61.8312 11.2739 61.8312 11.3424 61.7628 11.4725C61.7628 11.5409 61.6943 11.671 61.6943 11.7326C61.6259 11.8626 61.6259 11.9311 61.5643 11.9927C61.3657 12.0611 61.1741 12.0611 60.9756 11.9927C60.7771 11.9242 60.5169 11.8626 60.3253 11.7942C59.9967 11.6641 59.7366 11.4656 59.4765 11.2739C59.278 11.1439 59.0863 10.8838 58.9562 10.6237C58.8878 10.4251 58.8262 10.1034 58.8262 9.77484C58.8262 9.51473 58.8946 9.12455 59.0863 8.79598C59.2164 8.4058 59.4149 8.07723 59.6065 7.88556C59.8666 7.68705 60.0652 7.49539 60.3253 7.42693C60.5854 7.29688 60.8455 7.29688 61.1741 7.29688C61.4342 7.29688 61.6943 7.36533 61.9544 7.49539C62.2146 7.62545 62.4747 7.6939 62.6732 7.82396C62.8717 7.95402 63.0018 8.08408 63.1318 8.21413C63.0634 8.28259 63.0634 8.34419 63.0018 8.41265C62.9333 8.5427 62.9333 8.61116 62.8717 8.74122C62.8032 8.87128 62.7416 8.93973 62.6732 9.06979C62.6047 9.13824 62.5431 9.19985 62.5431 9.2683L62.283 9.19985V8.14568C62.283 8.14568 62.2146 8.07723 62.1529 8.01562C62.0845 8.01562 62.0229 7.94717 61.9544 7.94717C61.7559 7.87872 61.6259 7.81711 61.4342 7.81711C61.2357 7.81711 61.1056 7.88556 60.914 8.01562C60.7839 8.08408 60.5854 8.21413 60.4553 8.4058C60.3253 8.60431 60.1268 8.86443 59.9967 9.18616C59.7982 9.70639 59.7366 10.2266 59.7982 10.6168C59.9283 11.007 60.1884 11.2671 60.5785 11.3972C60.647 11.4656 60.7771 11.5272 60.8387 11.5272C60.9071 11.5272 60.9687 11.5272 61.0372 11.5272L61.6396 10.8153Z" fill="#0C0E14"/>
    <path d="M67.3698 15.5042L65.7407 14.5254L65.8707 14.3268C65.9392 14.3268 66.0008 14.3268 66.0692 14.3268C66.1377 14.3268 66.2677 14.3953 66.3293 14.3953L68.2186 11.3355C68.1502 11.267 68.0886 11.2054 68.0201 11.137C67.9517 11.0685 67.8901 11.0069 67.8901 10.9385L68.0201 10.6783L69.6493 11.7188L69.5192 11.9173C69.3891 11.9173 69.1906 11.9173 68.999 11.8489L67.1097 14.9087C67.2398 14.9771 67.3082 15.0387 67.3698 15.1072C67.3698 15.1757 67.4383 15.2373 67.4999 15.3057L67.3698 15.5042ZM65.2889 11.534C65.1588 11.4655 65.0288 11.4655 64.9603 11.4039L63.9814 12.9646C64.0499 13.0331 64.1115 13.0331 64.1115 13.0947C64.1799 13.0947 64.2415 13.1632 64.31 13.1632C64.5085 13.2932 64.7002 13.3617 64.8987 13.2932C65.0972 13.2248 65.2889 13.0331 65.4874 12.773C65.8091 12.2459 65.7407 11.8557 65.2889 11.534ZM62.5508 12.5745L62.6808 12.376C62.7493 12.376 62.8793 12.376 62.941 12.376C63.0094 12.376 63.1395 12.4444 63.2011 12.506L65.0904 9.4462C65.0219 9.37775 64.9603 9.31614 64.8918 9.24769C64.8234 9.17924 64.7618 9.04918 64.7618 8.98757L64.8918 8.78906L66.5826 9.82954L66.4526 10.028C66.3841 10.028 66.254 10.028 66.1924 10.028C66.0624 9.95959 65.9939 9.95959 65.8639 9.89799L65.1588 11.0754C65.2889 11.0754 65.3573 11.1438 65.4189 11.2054C65.549 11.2054 65.6174 11.2739 65.679 11.3355C65.8776 11.4655 66.0076 11.5956 66.1993 11.7257C66.3293 11.8557 66.4594 11.9858 66.5279 12.1843C66.5963 12.3143 66.5963 12.5129 66.5963 12.7045C66.5963 12.903 66.5278 13.0947 66.3978 13.2932C66.2677 13.4917 66.0692 13.6218 65.9392 13.7518C65.7407 13.8203 65.549 13.8819 65.3505 13.9504C65.152 13.9504 64.9603 13.9504 64.7618 13.8203C64.5633 13.8203 64.3032 13.6902 64.1115 13.5602C64.1115 13.5602 64.043 13.5602 63.9814 13.4917C63.9814 13.4233 63.913 13.4233 63.8514 13.3617C63.7213 13.2932 63.6529 13.2932 63.5913 13.2316C63.5297 13.17 63.4612 13.1632 63.3927 13.1015L62.5508 12.5745Z" fill="#0C0E14"/>
    <path d="M69.5206 17.2016L68.0215 16.0311L68.1515 15.8325C68.2816 15.8325 68.3501 15.8325 68.4117 15.901C68.5417 15.901 68.6102 15.9694 68.6718 16.0311L71.0197 13.2314C70.9512 13.1629 70.8896 13.1013 70.8212 13.0328C70.7527 12.9028 70.7527 12.8343 70.6911 12.7727L70.8896 12.5742L72.3203 13.8132L72.1902 14.0117C72.1218 14.0117 71.9917 13.9433 71.9301 13.9433C71.8685 13.9433 71.8001 13.8748 71.7316 13.8748L70.7527 15.0453L71.9917 16.0858L73.0322 14.9153C72.9637 14.8468 72.9021 14.7852 72.8337 14.7168C72.8337 14.6483 72.7652 14.5867 72.7652 14.5183L72.8953 14.3197L74.3944 15.5587L74.2643 15.6888C74.1343 15.6888 74.0658 15.6888 74.0042 15.6203C73.8742 15.6203 73.8057 15.5519 73.7441 15.5519L71.4646 18.29C71.5331 18.3584 71.5331 18.42 71.5947 18.4885C71.6631 18.6185 71.6631 18.687 71.7248 18.7486L71.5262 18.9471L70.0956 17.7081L70.2256 17.5096C70.2941 17.5096 70.4242 17.5781 70.4858 17.5781C70.5542 17.5781 70.6158 17.6465 70.6843 17.6465L71.7248 16.4075L70.4858 15.3671L69.4453 16.6061C69.4453 16.6745 69.5137 16.7361 69.5754 16.8046C69.5754 16.873 69.6438 16.9346 69.6438 17.0647L69.5206 17.2016Z" fill="#0C0E14"/>
    <path d="M78.448 20.4604C78.3179 20.3303 78.1879 20.2619 78.0578 20.2003C77.9277 20.1318 77.7292 20.1318 77.5992 20.2003C77.4691 20.2003 77.2706 20.2687 77.0789 20.3303C76.8804 20.4604 76.7504 20.5289 76.5587 20.6589L77.8593 22.3497C78.0578 22.2196 78.1879 22.0211 78.3179 21.8911C78.448 21.6925 78.5164 21.5625 78.578 21.4324C78.6465 21.2339 78.6465 21.1039 78.6465 20.9122C78.6465 20.7821 78.5164 20.6521 78.448 20.4604ZM75.5182 22.9384C75.6483 23.0684 75.7783 23.1369 75.9084 23.1985C76.0385 23.1985 76.237 23.1985 76.367 23.1985C76.5655 23.1985 76.6956 23.13 76.8873 23C77.0858 22.9315 77.2774 22.8015 77.4759 22.6714L76.1754 20.9806C75.9768 21.1792 75.8468 21.3092 75.7167 21.4393C75.5182 21.6378 75.4566 21.7678 75.3882 21.9595C75.3197 22.0896 75.3197 22.2881 75.3197 22.4181C75.3197 22.6098 75.4566 22.7399 75.5182 22.9384ZM75.6483 20.0018C75.9084 19.8033 76.1685 19.6732 76.4971 19.5431C76.7572 19.4747 77.0173 19.4131 77.2774 19.4131C77.5376 19.4131 77.7977 19.5431 78.0578 19.6732C78.3179 19.8033 78.578 20.0018 78.7766 20.2619C78.9751 20.522 79.1667 20.7821 79.2352 21.1107C79.3036 21.3708 79.3036 21.6309 79.2352 21.8911C79.2352 22.2196 79.1051 22.4797 78.9066 22.6714C78.7765 22.9315 78.578 23.1916 78.3179 23.3902C78.0578 23.5887 77.7977 23.7187 77.4691 23.8488C77.209 23.9172 76.9489 23.9788 76.6887 23.9788C76.4286 23.9104 76.1685 23.8488 75.9084 23.7187C75.6483 23.5887 75.3882 23.3902 75.1896 23.13C74.9911 22.8699 74.7995 22.5413 74.731 22.2812C74.6626 22.0211 74.6626 21.6925 74.731 21.4324C74.731 21.1723 74.8611 20.9122 74.9911 20.6521C75.1896 20.4604 75.3882 20.2003 75.6483 20.0018Z" fill="#0C0E14"/>
    <path d="M78.0569 27.2377L77.1465 25.5469L77.345 25.4169C77.4134 25.4853 77.475 25.5469 77.5435 25.6154C77.612 25.6838 77.6736 25.7455 77.742 25.8139L80.8703 23.9862C80.8018 23.9178 80.8018 23.7877 80.8018 23.7261C80.7334 23.5961 80.7334 23.5276 80.7334 23.466L80.9935 23.3359L81.9039 25.0267L81.7054 25.1568C81.637 25.0883 81.5753 25.0267 81.5069 25.0267C81.4384 24.9583 81.3768 24.8966 81.3084 24.8282L80.0078 25.6085L80.8566 27.0392L82.1572 26.2588C82.1572 26.1904 82.0887 26.1288 82.0887 25.9987C82.0887 25.9303 82.0887 25.8687 82.0887 25.8002L82.2872 25.6702L83.2661 27.3609L83.0676 27.4294C82.9991 27.4294 82.8691 27.3609 82.8075 27.2993C82.739 27.2309 82.6774 27.1693 82.609 27.1008L79.5491 28.86C79.5491 28.9901 79.6176 29.0585 79.6176 29.1886C79.6176 29.2571 79.6176 29.3871 79.6176 29.4487L79.4191 29.5788L78.4402 27.888L78.7003 27.7579C78.7688 27.8264 78.7688 27.8264 78.8989 27.888C78.9673 27.9565 79.0289 28.0181 79.0289 28.0865L80.4596 27.2377L79.6107 25.8071L78.2417 26.5874C78.2417 26.7175 78.2417 26.7859 78.2417 26.8475C78.3102 26.916 78.3102 27.046 78.3102 27.1077L78.0569 27.2377Z" fill="#0C0E14"/>
    <path d="M84.9615 31.2751L85.4818 32.7058L85.2833 32.7742C85.2148 32.7058 85.1532 32.6441 85.0847 32.6441C85.0163 32.5757 84.9547 32.5141 84.9547 32.4456L82.4767 32.0555L81.1761 32.6441C81.1761 32.7126 81.1761 32.7742 81.1761 32.9043C81.1761 32.9727 81.1761 33.0343 81.1761 33.1644L80.916 33.2328L80.1973 31.4052L80.4574 31.3367C80.5258 31.3367 80.5875 31.4668 80.6559 31.5352C80.7244 31.6037 80.7243 31.6653 80.7859 31.7337L82.155 31.2135L83.6541 29.1942C83.6541 29.1257 83.6541 28.9956 83.6541 28.934C83.5856 28.8656 83.6541 28.7355 83.6541 28.6739L83.8526 28.6055L84.633 30.4947L84.4345 30.6248C84.366 30.5564 84.3044 30.4947 84.2359 30.4263C84.1675 30.3578 84.1059 30.2962 84.0374 30.2278L82.7984 31.7269L84.6877 31.8569C84.6877 31.7885 84.6877 31.6584 84.6877 31.5968C84.6877 31.4668 84.6877 31.3983 84.6877 31.3367L84.9615 31.2751Z" fill="#0C0E14"/>
    <path d="M86.5311 36.2942L86.9213 37.9233L86.7227 37.9918C86.6543 37.9233 86.5927 37.8617 86.5242 37.7317C86.4558 37.6632 86.3942 37.6016 86.3942 37.5332L84.635 36.7528C84.5049 36.8829 84.3748 37.0129 84.2448 37.2114C84.1147 37.3415 83.9847 37.54 83.8546 37.7317C83.7245 37.9302 83.526 38.1219 83.396 38.3204C83.2659 38.5189 83.1359 38.7105 83.0058 38.9091L82.8757 39.2376L82.6772 39.3061L82.4171 38.1971L82.5472 37.937C82.6156 37.807 82.7457 37.6769 82.8757 37.4784C83.0058 37.3483 83.1359 37.2183 83.2659 37.0882C83.396 36.8897 83.526 36.7597 83.6561 36.6296C83.7861 36.4995 83.9162 36.3695 84.0463 36.2394L83.9778 35.9793L82.4171 36.3695C82.4171 36.4379 82.4171 36.568 82.3486 36.6296C82.3486 36.698 82.3487 36.7597 82.2802 36.8281L82.0817 36.8966L81.623 35.0689L81.8216 35.0004C81.89 35.0689 81.9516 35.1305 82.0201 35.1989C82.0885 35.2674 82.0885 35.329 82.1501 35.4591L85.6001 34.5487C85.6001 34.4802 85.6001 34.3501 85.6001 34.2885C85.6001 34.1585 85.6686 34.09 85.6686 34.0284L85.9287 33.96L86.3873 35.7876L86.1272 35.8561C86.1272 35.8561 86.0588 35.7876 85.9972 35.726C85.9287 35.6576 85.8671 35.5275 85.8671 35.4659L84.3064 35.8561L84.5049 36.2463L86.1957 36.835C86.1957 36.7665 86.1957 36.6364 86.1957 36.5748C86.2641 36.5064 86.2641 36.3763 86.2641 36.3147H86.5311V36.2942Z" fill="#0C0E14"/>
    <path d="M83.141 42.9404L82.8809 40.791H83.141C83.2094 40.8595 83.2094 40.9211 83.271 41.0511C83.3395 41.1812 83.4011 41.2497 83.4011 41.3797L86.988 40.9211L86.8579 40.2023L85.749 39.9422V39.6821C85.8174 39.6136 85.9475 39.6136 86.0776 39.552C86.2076 39.552 86.3377 39.4836 86.4677 39.4836C86.5978 39.4151 86.7279 39.4151 86.8579 39.4151C86.988 39.3467 87.118 39.3467 87.1865 39.3467L87.7067 43.3238C87.5767 43.3238 87.4466 43.3922 87.3165 43.3922C87.1865 43.3922 87.0564 43.3922 86.9264 43.3922H86.5362C86.4061 43.3922 86.2761 43.3922 86.2076 43.3922L86.1392 43.1321L87.1797 42.6118L87.1112 41.8931L83.5243 42.2833C83.5243 42.4133 83.4559 42.5434 83.4559 42.6118C83.4559 42.7419 83.4559 42.8104 83.3874 42.9404H83.141Z" fill="#0C0E14"/>
    <path d="M87.7013 47.499V49.0597H87.4412C87.4412 48.9913 87.3728 48.9297 87.3728 48.8612C87.3043 48.7928 87.3043 48.7311 87.3043 48.6011L85.1549 47.3621H83.7242C83.7242 47.4306 83.6558 47.4922 83.6558 47.6222C83.5873 47.6907 83.5873 47.7523 83.5257 47.8207H83.2656L83.3341 45.863H83.5326C83.601 45.9315 83.601 46.0615 83.6626 46.1231C83.6626 46.1916 83.7311 46.3216 83.7311 46.3832L85.1617 46.4517L87.3111 45.1511C87.3796 45.0826 87.3796 44.9526 87.4412 44.891C87.4412 44.8225 87.5096 44.6925 87.5096 44.6309H87.7698V46.7187H87.5096C87.4412 46.6502 87.4412 46.5886 87.3796 46.5201C87.3796 46.4517 87.3111 46.3901 87.3111 46.26L85.6204 47.1704L87.3111 48.0192C87.3111 47.9508 87.3796 47.8207 87.3796 47.7591C87.448 47.6907 87.448 47.5606 87.5096 47.499H87.7013Z" fill="#0C0E14"/>
    <path d="M86.9811 52.1262C86.9811 52.0578 86.9811 51.9962 86.9811 51.9277C86.9811 51.8593 86.9811 51.8593 86.9811 51.7977L85.0919 51.5375C85.0919 51.5375 85.0234 51.606 85.0234 51.6676C85.0234 51.7361 85.0234 51.7977 85.0234 51.8661C84.9549 51.9962 84.9549 52.0646 85.0234 52.1947C85.0234 52.3247 85.0918 52.3932 85.1535 52.5233C85.2219 52.5917 85.2835 52.6533 85.4136 52.7218C85.5436 52.8518 85.6737 52.8518 85.8722 52.9203C86.2008 52.9203 86.4609 52.9203 86.6526 52.7218C86.8511 52.578 86.9195 52.3863 86.9811 52.1262ZM83.4011 51.2774C83.4011 51.4075 83.3326 51.4759 83.271 51.606C83.271 51.7361 83.2026 51.8045 83.141 51.8661H82.8809L83.2094 49.7783H83.4695C83.4695 49.9084 83.4695 49.9768 83.538 50.0384C83.538 50.1685 83.538 50.237 83.538 50.367L87.1249 50.8256C87.1249 50.7572 87.1933 50.6956 87.1933 50.5655C87.2618 50.4971 87.3234 50.4355 87.3919 50.367H87.5904L87.5219 51.1474C87.4535 51.3459 87.4535 51.5375 87.4535 51.7361C87.385 51.9962 87.385 52.1947 87.385 52.3247C87.3166 52.5849 87.3165 52.7834 87.1865 52.975C87.118 53.1735 87.0564 53.3652 86.9264 53.5637C86.7963 53.6938 86.5978 53.8238 86.4061 53.8923C86.2761 53.9608 86.016 53.9607 85.7558 53.9607C85.4957 53.8923 85.2972 53.8307 85.1672 53.7006C84.9686 53.5706 84.8386 53.4405 84.777 53.242C84.6469 53.0435 84.5785 52.8518 84.5785 52.6533C84.51 52.3932 84.5785 52.1947 84.5785 51.9346C84.5785 51.9346 84.5785 51.9346 84.5785 51.8661C84.5785 51.7977 84.5785 51.7361 84.6469 51.7361C84.6469 51.6676 84.6469 51.606 84.6469 51.5375V51.4691L83.4011 51.2774Z" fill="#0C0E14"/>
    <path d="M86.0704 57.9921L85.6802 59.4912L85.4817 59.4227C85.4132 59.3543 85.4132 59.2927 85.4132 59.2242C85.3448 59.1558 85.3448 59.0257 85.4132 58.9641L83.654 57.2049L82.2233 56.8147C82.2233 56.9448 82.1549 57.0132 82.0933 57.0748C82.0933 57.1433 82.0248 57.2049 81.9632 57.2733L81.7031 57.2049L82.2233 55.3156L82.4835 55.3841C82.4835 55.4525 82.4835 55.5141 82.4835 55.6442C82.4835 55.7126 82.4835 55.8427 82.4835 55.9043L83.8525 56.2945L86.3305 55.6442C86.3305 55.5141 86.3989 55.4457 86.4605 55.3841C86.529 55.3156 86.529 55.254 86.5906 55.1855L86.8507 55.254L86.3305 57.2733L86.0704 57.2049C86.0704 57.1364 86.0019 57.0748 86.0019 56.9448C86.0019 56.8763 86.0019 56.8147 86.0019 56.6846L84.1126 57.1433L85.5433 58.3823C85.6117 58.3138 85.6117 58.2522 85.6733 58.1221C85.7418 58.0537 85.8034 57.9921 85.8719 57.9236L86.0704 57.9921Z" fill="#0C0E14"/>
    <path d="M84.1835 63.3316L83.5332 64.7622L83.3347 64.6322C83.3347 64.5637 83.3347 64.5021 83.3347 64.4336C83.3347 64.3036 83.3347 64.2351 83.3347 64.1735L81.8356 62.1542L80.535 61.634C80.4665 61.7024 80.4049 61.764 80.3365 61.8325C80.268 61.9009 80.2064 61.9625 80.138 62.031L79.9395 61.9009L80.7198 60.0732L80.9183 60.2033C80.9183 60.2717 80.9183 60.4018 80.9183 60.4634C80.9183 60.5935 80.9183 60.6619 80.9183 60.7235L82.2189 61.3122L84.6969 60.9837C84.7653 60.9152 84.8269 60.7851 84.8954 60.7235C84.9638 60.6551 85.0254 60.5935 85.0939 60.5935L85.2924 60.6619L84.4436 62.5512L84.2451 62.4828C84.2451 62.4143 84.2451 62.3527 84.2451 62.2842C84.2451 62.1542 84.2451 62.0857 84.2451 61.9557L82.3558 62.1542L83.5948 63.5848C83.6632 63.5164 83.7249 63.4548 83.7933 63.3863C83.8618 63.3179 83.8618 63.2563 83.9234 63.1878L84.1835 63.3316Z" fill="#0C0E14"/>
    <path d="M78.8352 68.4119C78.9037 68.3435 78.9037 68.2819 78.9653 68.2134C78.9653 68.145 78.9653 68.1449 79.0337 68.0833L77.5346 67.1045C77.5346 67.1045 77.5346 67.1045 77.4662 67.1729C77.4662 67.1729 77.4662 67.2414 77.3977 67.2414C77.3977 67.3098 77.3977 67.3098 77.3293 67.3714C77.3293 67.3714 77.3293 67.3714 77.3293 67.4399C77.1307 67.6384 77.1307 67.8301 77.1992 68.0286C77.2676 68.2271 77.3977 68.4188 77.6578 68.6173C77.8563 68.7473 78.048 68.8158 78.3081 68.8158C78.5135 68.7405 78.7052 68.6104 78.8352 68.4119ZM81.0531 68.2819C81.1831 68.1518 81.3816 68.0217 81.5117 67.9533L81.7102 68.0833L79.8209 70.9515C79.7525 70.883 79.6224 70.8214 79.5608 70.753C79.4924 70.6845 79.3623 70.6229 79.3007 70.4929C79.1706 70.4244 79.1022 70.3628 79.0406 70.2944C78.9721 70.2259 78.842 70.1643 78.7804 70.0958L78.979 69.8357L79.9578 70.0342L80.5465 69.1238L79.376 68.275C79.376 68.3435 79.3075 68.3435 79.3075 68.4051C79.2391 68.4735 79.2391 68.5351 79.2391 68.5351C79.1706 68.6036 79.1706 68.6652 79.109 68.7336C79.109 68.7336 79.0406 68.8021 79.0406 68.8637C78.9105 69.0622 78.7804 69.1923 78.6504 69.3223C78.5203 69.4524 78.3218 69.5824 78.1918 69.6509C77.9933 69.7194 77.8016 69.7193 77.6715 69.7193C77.473 69.6509 77.2814 69.5893 77.0828 69.4592C76.8843 69.3292 76.7543 69.1991 76.6927 69.0006C76.5626 68.8705 76.4941 68.672 76.4941 68.4804C76.4941 68.2819 76.5626 68.0902 76.6242 67.8917C76.6927 67.6316 76.8227 67.433 76.9528 67.2414C76.9528 67.2414 76.9528 67.1729 77.0212 67.1113C77.0897 67.0429 77.1513 66.9813 77.2197 66.8512C77.2882 66.7828 77.3498 66.7211 77.3498 66.5911C77.4182 66.5226 77.4799 66.461 77.5483 66.3926L78.0069 65.6738L78.2054 65.8039C78.2054 65.8723 78.2054 65.9339 78.2054 66.064C78.137 66.1325 78.137 66.2625 78.0754 66.3241L81.0531 68.2819Z" fill="#0C0E14"/>
    <path d="M76.2335 71.8681C76.035 71.7381 75.8433 71.5396 75.6448 71.478C75.4463 71.3479 75.2546 71.2795 75.0561 71.2179C74.8576 71.1494 74.7276 71.1494 74.5359 71.2179C74.4058 71.2863 74.2073 71.3479 74.0773 71.478C74.0088 71.608 73.8787 71.8065 73.8787 71.9366C73.8787 72.1351 73.9472 72.2652 74.0088 72.4568C74.0773 72.5869 74.1389 72.7854 74.3374 72.9771C74.4674 73.1071 74.666 73.3056 74.8576 73.4973C75.0561 73.6958 75.2478 73.8259 75.4463 73.9559C75.6448 74.086 75.8365 74.1545 76.035 74.2161C76.2335 74.2845 76.3636 74.2845 76.5552 74.2161C76.6853 74.1476 76.8838 74.086 77.0139 73.8875C77.1439 73.7574 77.2124 73.6274 77.2124 73.4289C77.2124 73.2988 77.2124 73.1003 77.1439 72.9702C77.0755 72.7717 76.9454 72.58 76.8154 72.45C76.6237 72.2583 76.4936 72.0667 76.2335 71.8681ZM76.9454 71.0878C77.2055 71.2863 77.404 71.5464 77.5341 71.8065C77.7326 72.0667 77.7942 72.3268 77.8627 72.5869C77.8627 72.847 77.8627 73.1756 77.7326 73.4357C77.6642 73.6958 77.5341 73.9559 77.274 74.2161C77.0139 74.4762 76.8154 74.6747 76.5552 74.8047C76.2951 74.9348 76.035 75.0033 75.7064 75.0033C75.4463 75.0033 75.1862 74.9348 74.9261 74.8047C74.6659 74.6747 74.4058 74.5446 74.1457 74.2845C73.8856 74.086 73.6871 73.8259 73.557 73.5658C73.427 73.3673 73.2969 73.1071 73.2969 72.7854C73.2285 72.5253 73.2285 72.2652 73.3654 72.0051C73.4338 71.7449 73.6255 71.4848 73.824 71.2247C74.0841 70.9646 74.2826 70.7661 74.5427 70.636C74.8029 70.506 75.1314 70.4375 75.3916 70.4375C75.6517 70.4375 75.9118 70.5059 76.1719 70.5676C76.4936 70.6976 76.7537 70.8893 76.9454 71.0878Z" fill="#0C0E14"/>
    <path d="M73.1065 77.7969C73.175 77.7284 73.175 77.6668 73.2366 77.6668C73.2366 77.5983 73.305 77.5367 73.305 77.5367L72.066 76.0376C71.9976 76.1061 71.9976 76.1061 71.936 76.1677C71.8675 76.2361 71.8059 76.2361 71.7375 76.2977C71.669 76.3662 71.6074 76.4278 71.539 76.5579C71.4705 76.6263 71.4705 76.7564 71.4705 76.8864C71.4705 76.9549 71.4705 77.085 71.539 77.215C71.539 77.3451 71.6074 77.4751 71.7375 77.6052C71.9976 77.8653 72.1961 77.9954 72.4562 77.9954C72.6479 78.057 72.908 77.9269 73.1065 77.7969ZM70.9571 74.7986C70.8271 74.8671 70.7586 74.9287 70.6286 74.9287C70.5601 74.9972 70.43 75.0588 70.3684 75.0588L70.1699 74.8603L71.7991 73.4912L71.9291 73.6897C71.9291 73.7582 71.8607 73.8882 71.7991 73.9498C71.7991 74.0183 71.7306 74.0799 71.669 74.1484L74.0169 76.8864C74.0854 76.818 74.2154 76.7564 74.2771 76.7564C74.3455 76.6879 74.4756 76.6879 74.5372 76.6879L74.6672 76.8864L74.0785 77.4067C73.9485 77.4751 73.8184 77.6052 73.6884 77.7969C73.4898 77.9269 73.3598 78.057 73.2297 78.187C73.0312 78.3171 72.9012 78.4471 72.7095 78.5772C72.5178 78.7073 72.3193 78.7757 72.1208 78.7757C71.9223 78.7757 71.7306 78.7757 71.5321 78.7073C71.3336 78.6388 71.1419 78.5088 71.0119 78.3171C70.8134 78.1186 70.6833 77.9269 70.6833 77.7284C70.6149 77.5299 70.6149 77.3382 70.6833 77.1397C70.7518 76.9412 70.8134 76.7495 70.9434 76.551C71.0735 76.3525 71.2035 76.2225 71.4021 76.0924C71.4021 76.0239 71.4021 76.0239 71.4705 76.0239C71.4705 75.9555 71.539 75.9555 71.6006 75.8939C71.6006 75.8254 71.669 75.8254 71.669 75.7638C71.7375 75.7638 71.7375 75.7638 71.7991 75.7638L70.9571 74.7986Z" fill="#0C0E14"/>
    <path d="M67.8908 79.4248C67.9592 79.3563 68.0208 79.3563 68.0893 79.2947C68.0893 79.2263 68.1578 79.2263 68.1578 79.1647L67.1789 77.734C67.1789 77.734 67.1789 77.734 67.1104 77.734C67.1104 77.8025 67.042 77.8025 67.042 77.8025C66.9735 77.8025 66.9735 77.8709 66.9119 77.8709C66.9119 77.8709 66.9119 77.9394 66.8435 77.9394C66.645 78.0694 66.5149 78.2679 66.5149 78.4596C66.4464 78.6581 66.5149 78.9182 66.7134 79.1099C66.8435 79.37 67.042 79.5001 67.2336 79.5685C67.439 79.6233 67.6307 79.5548 67.8908 79.4248ZM69.9786 80.1435C70.1771 80.0751 70.3688 80.0751 70.4988 80.0135L70.6289 80.212L67.8292 82.1013C67.7607 82.0328 67.6991 81.9712 67.6307 81.8411C67.6307 81.7727 67.5622 81.6426 67.5006 81.5126C67.4322 81.4441 67.3705 81.3141 67.3021 81.2524C67.3021 81.1224 67.2336 81.0539 67.2336 80.9923L67.4322 80.7938L68.281 81.3825L69.1914 80.7322L68.411 79.4932C68.3426 79.5617 68.3426 79.5617 68.281 79.6233C68.281 79.6233 68.2125 79.6917 68.1509 79.6917C68.1509 79.7602 68.0824 79.7602 68.0208 79.8218C67.9524 79.8218 67.9524 79.8903 67.8908 79.8903C67.6923 80.0203 67.5622 80.1504 67.3705 80.2188C67.172 80.2873 66.9804 80.2873 66.7819 80.2873C66.6518 80.2873 66.4533 80.2188 66.2616 80.1572C66.1316 80.0888 66.0015 79.8971 65.8714 79.6986C65.7414 79.5685 65.6729 79.37 65.6113 79.1783C65.6113 78.9798 65.6798 78.7882 65.7414 78.5897C65.8098 78.3911 65.8714 78.2611 66.07 78.0694C66.2 77.9394 66.3985 77.7409 66.5902 77.6108C66.5902 77.6108 66.6586 77.5423 66.7203 77.5423C66.7887 77.4739 66.8503 77.4123 66.9804 77.3438C67.0488 77.2754 67.1104 77.2754 67.2405 77.2138C67.3089 77.1453 67.3705 77.0837 67.439 77.0837L68.2194 76.5635L68.3494 76.762C68.281 76.8304 68.2194 76.892 68.1509 77.0221C68.1509 77.0906 68.0824 77.1522 68.0208 77.2206L69.9786 80.1435Z" fill="#0C0E14"/>
    <path d="M64.2407 81.6422C64.1106 81.3821 63.9805 81.1836 63.8505 80.9919C63.652 80.7934 63.5219 80.6634 63.3918 80.5333C63.1933 80.4032 63.0633 80.3348 62.8716 80.3348C62.7416 80.2663 62.543 80.3348 62.3514 80.4032C62.2213 80.5333 62.0913 80.6017 62.0228 80.7318C61.9543 80.9303 61.8927 81.0604 61.8927 81.252C61.8927 81.4506 61.9612 81.6422 62.0228 81.8407C62.0913 82.1008 62.1529 82.2994 62.2829 82.5595C62.413 82.8196 62.543 83.0181 62.6731 83.2098C62.8032 83.4083 63.0017 83.5383 63.1317 83.6684C63.2618 83.7985 63.4603 83.8669 63.5904 83.8669C63.7889 83.8669 63.9189 83.8669 64.1106 83.7369C64.3091 83.6684 64.4392 83.5383 64.5008 83.4083C64.5692 83.2782 64.6308 83.1482 64.6308 82.9497C64.6308 82.7511 64.5624 82.5595 64.5008 82.2994C64.4392 82.094 64.3091 81.8339 64.2407 81.6422ZM65.1579 81.122C65.3564 81.4506 65.418 81.7107 65.4865 82.0324C65.4865 82.2925 65.4865 82.6211 65.418 82.8812C65.3496 83.1413 65.2195 83.4014 65.0279 83.5999C64.8293 83.7985 64.5692 83.9901 64.2475 84.1202C63.9874 84.3187 63.6588 84.3803 63.3987 84.3803C63.0701 84.4488 62.81 84.3803 62.5499 84.2502C62.2898 84.1818 62.0913 83.9901 61.8996 83.7916C61.6395 83.5931 61.5094 83.333 61.3109 83.0113C61.1808 82.7511 61.1124 82.4226 61.0508 82.1625C61.0508 81.8339 61.0508 81.5738 61.1192 81.3136C61.1877 81.0535 61.3177 80.7934 61.5094 80.5949C61.7079 80.3348 61.968 80.2047 62.2282 80.0062C62.5567 79.8762 62.8785 79.8077 63.1386 79.7461C63.4671 79.7461 63.7273 79.8145 63.9874 79.9446C64.2475 80.0131 64.446 80.1431 64.6377 80.4032C64.8293 80.5949 65.0279 80.8619 65.1579 81.122Z" fill="#0C0E14"/>
    <path d="M59.0323 85.8117C59.1007 85.8117 59.1623 85.8117 59.1623 85.7432C59.2308 85.7432 59.2924 85.7432 59.2924 85.6748L58.7037 83.8471C58.6352 83.8471 58.6352 83.8471 58.5052 83.9156C58.4367 83.9156 58.3751 83.9156 58.3751 83.984C58.2451 83.984 58.1766 84.0525 58.0466 84.1141C57.9781 84.1825 57.9165 84.2441 57.848 84.3742C57.7796 84.5042 57.7796 84.5727 57.7796 84.7028C57.7111 84.9013 57.7796 85.0313 57.848 85.1614C57.9165 85.49 58.1082 85.7501 58.3067 85.8117C58.512 85.9417 58.7722 85.9417 59.0323 85.8117ZM58.1835 82.2932C58.0534 82.2932 57.9233 82.2932 57.8549 82.2932C57.7248 82.2932 57.5948 82.2932 57.5263 82.2932L57.3963 82.0947L59.4156 81.376L59.4841 81.6361C59.4156 81.7046 59.354 81.7662 59.2855 81.8346C59.2171 81.9031 59.1555 81.9031 59.087 81.9647L60.196 85.3531C60.326 85.3531 60.3945 85.3531 60.5245 85.3531C60.593 85.3531 60.6546 85.3531 60.7846 85.3531L60.8531 85.6132L60.0727 85.8733C59.9427 85.9417 59.7442 86.0033 59.5525 86.0718C59.354 86.1402 59.1623 86.2019 58.9638 86.2703C58.7653 86.3388 58.5736 86.4004 58.3135 86.4688C58.115 86.4688 57.9233 86.4688 57.7248 86.4004C57.5263 86.3319 57.3347 86.2703 57.2046 86.1402C57.0745 86.0102 56.9445 85.8117 56.876 85.5516C56.746 85.2914 56.746 85.0929 56.8076 84.9013C56.8076 84.7028 56.876 84.5111 57.0061 84.3126C57.1361 84.1825 57.2662 84.0525 57.4647 83.9224C57.6632 83.7923 57.8549 83.6623 58.115 83.5938C58.115 83.5938 58.115 83.5938 58.1835 83.5938C58.2519 83.5938 58.2519 83.5254 58.3135 83.5254C58.382 83.5254 58.4436 83.5254 58.4436 83.4569C58.512 83.4569 58.5736 83.4569 58.5736 83.4569L58.1835 82.2932Z" fill="#0C0E14"/>
    <path d="M52.8451 87.3721C52.9751 87.3721 53.0436 87.3721 53.1736 87.3721C53.2421 87.3721 53.3037 87.4406 53.3722 87.4406L53.4406 87.7007L51.9415 87.9608L51.873 87.7623C51.9415 87.6939 52.0031 87.6322 52.0716 87.6322C52.14 87.5638 52.2016 87.5022 52.2701 87.5022L52.9204 84.5724C53.0504 84.0522 53.1805 83.662 53.379 83.4019C53.5091 83.1418 53.7076 83.0117 53.9677 83.0117C54.0361 83.0117 54.0977 83.0802 54.0977 83.1418C54.1662 83.2102 54.2278 83.2718 54.2963 83.3403C54.2963 83.4087 54.3647 83.4704 54.4263 83.5388C54.4263 83.6073 54.4263 83.6689 54.4948 83.7373L54.3647 83.9974L53.5844 83.929C53.5159 83.9974 53.5159 83.9974 53.5159 84.059C53.4475 84.1275 53.4474 84.1891 53.4474 84.2575L55.6653 86.7971C55.7954 86.7971 55.8638 86.7971 55.9254 86.8656C55.9939 86.8656 56.0555 86.8656 56.1239 86.8656L56.1924 87.1257L54.2346 87.5159V87.2558C54.3031 87.1873 54.4948 87.1257 54.6248 86.9956L53.4543 85.4965L53.1942 85.1064V85.565L52.8451 87.3721Z" fill="#0C0E14"/>
</svg>