<svg width="1438" height="773" viewBox="0 0 1438 773" fill="none" xmlns="http://www.w3.org/2000/svg">
    <path d="M1393.03 298.705L1241.14 0.00010486L1438 40.3657L1438 773L1262.12 773L1005.3 98.3911L1393.03 298.705Z" fill="#EA202C"/>
    <path d="M771.464 468.24L943.344 773L643.552 773L771.464 468.24Z" fill="#EA202C"/>
    <path d="M627.564 494.478L359.75 2.78067e-05L-5.44925e-05 -3.64365e-06L-6.61378e-05 133.206L627.564 494.478Z" fill="#EA202C"/>
    <path d="M429.701 546.953C395.725 613.556 326.973 761.698 323.775 773L-9.91327e-05 510.624L429.701 546.953Z" fill="#EA202C"/>
    <path d="M923.358 343.107L839.416 70.6397L555.614 4.49296e-05L923.358 343.107Z" fill="#EA202C"/>
</svg>
