<svg width="1519" height="172" viewBox="0 0 1519 172" fill="none" xmlns="http://www.w3.org/2000/svg">
    <g clip-path="url(#clip0_1_2)">
        <path d="M1518.57 364.554V98.8617C1518.47 98.0112 1518.4 104.283 1518.3 98.8025C1513.32 96.4729 1514.35 100.252 1511.18 103.41C1506.7 104.342 1507.51 104.653 1500.4 108.986C1493.01 107.515 1488.06 111.25 1480.91 105.599C1474.01 103.055 1466.95 95.6889 1459.85 102.878C1452.76 110.628 1445.62 103.099 1438.59 99.9563C1432.07 101.768 1424.09 98.8987 1416.11 94.3947C1408.13 95.7555 1400.16 99.483 1393.69 96.4063C1388.43 90.3714 1386.77 98.9283 1380.67 105.562C1376.54 111.982 1369.6 108.765 1365.35 105.289C1359.3 103.654 1353.31 103.876 1347.73 102.855C1342.13 111.516 1336.96 97.7893 1332.51 94.4021C1322.65 89.4173 1318.08 76.8224 1304.48 83.5451C1298.58 80.4241 1291.27 72.6068 1284.06 82.2878C1276.84 74.8921 1269.72 82.2287 1264.19 83.3454C1260.56 85.2313 1259.26 96.7835 1255.35 87.2948C1250 78.6122 1241.89 91.5177 1236.25 87.2282C1225.16 97.1385 1217.33 71.1203 1206.03 76.0829C1197.83 71.0833 1188.65 81.0897 1179.41 75.0326C1170.18 73.7901 1160.89 84.6989 1152.45 76.2307C1145.27 79.8029 1138.32 85.0613 1131.34 78.0131C1124.37 80.365 1117.39 83.7374 1110.2 79.8916C1093.74 86.7105 1077.29 74.3079 1060.84 79.9434C1044.38 82.9609 1027.93 73.5165 1011.48 79.899C1004.98 78.7823 999.157 87.8347 993.322 81.7036C987.486 85.4311 981.629 84.9799 975.069 83.5082C967.681 94.6609 960.292 89.1807 952.897 83.4786C945.508 93.4259 938.12 79.7437 930.732 83.523C925.029 83.8854 918.876 96.288 912.767 82.9683C906.658 82.5245 900.587 85.1426 895.055 84.3291C891.852 94.3651 889.567 88.8479 885.226 87.1765C875.596 86.8584 869.709 89.4469 861.685 83.4934C847.87 83.9297 833.278 60.537 818.198 62.7113C803.118 57.1498 787.543 58.2443 771.775 47.9494C765.969 42.9425 758.677 43.12 751.599 48.1269C744.522 51.4402 737.651 58.163 732.703 45.2722C727.822 40.9457 725.33 28.5874 720.19 33.3429C716.677 37.6472 709.769 34.0676 706.027 28.9424C699.777 33.2911 693.706 29.1421 687.434 28.2768C683.019 16.7542 679.594 24.3645 675.046 25.5552C668.678 29.0016 662.776 24.3645 656.816 23.011C650.862 17.7453 644.849 19.535 638.275 21.8277C630.731 16.451 623.18 24.0243 615.636 21.8647C608.085 30.2515 600.541 15.349 592.998 21.8351C585.794 20.2376 580.144 21.8277 573.347 23.6397C563.171 33.6165 552.654 25.6809 542.182 26.1912C535.488 34.0898 530.06 25.03 525.083 32.5589C520.105 37.2404 515.586 38.5051 510.713 43.586C501.364 46.1301 494.375 48.8961 481.862 50.856C475.805 54.3911 469.74 45.568 463.676 50.9077C457.611 51.4328 451.554 53.511 445.49 50.8708C438.257 51.0113 432.2 40.5241 426.253 54.1101C418.517 59.5756 420.196 57.098 409.095 65.6105C401.81 63.6802 397.351 50.5453 390.754 60.7515C386.072 72.2518 381.812 53.4149 375.711 57.771C367.953 53.193 360.52 48.8961 353.065 55.4044C345.603 50.1386 338.118 57.8302 330.235 54.4873C324 55.2343 317.322 57.0388 310.665 55.1011C304.017 57.3568 297.39 53.5554 291.266 53.7551C281.874 59.6347 273.775 47.306 265.603 41.1306C257.431 40.1913 249.192 28.9646 239.511 29.2382C227.197 29.6598 216.614 27.0565 205.461 25.4664C199.781 23.2477 191.113 11.274 182.224 20.8367C173.334 11.5033 164.237 17.2497 157.692 22.1457C150.385 29.7411 144.143 12.4795 137.864 24.9265C131.578 25.9323 125.239 27.1452 117.733 21.8203C108.643 17.442 100.183 20.9846 91.5075 12.2576C82.8323 13.9438 73.9426 -1.6094 63.9879 7.22851C55.8009 8.98869 49.655 6.51854 41.712 3.50847C34.7748 -4.56028 26.9353 3.83389 19.9316 3.69337C13.2902 7.71665 6.64137 16.414 0 3.69337V22.1235C0 34.6963 0 33.9863 0 43.7782V364.554H1518.57Z"
              fill="white"/>
        <path d="M1518.57 560V155.654C1515.47 153.288 1512.29 154.182 1509.77 152.156C1501.9 143.962 1497 134.754 1486.71 138.4C1479.09 136.248 1470.92 135.693 1462.73 137.143C1454.53 126.863 1446.31 143.222 1438.57 137.949C1429.32 138.703 1418.86 138.067 1409.8 138.208C1403.93 128.993 1398.19 127.454 1392.54 131.552C1386.87 128.793 1381.28 124.03 1375.69 122.995C1365.74 116.22 1351.84 111.487 1338.57 118.55C1325.3 118.875 1312.66 131.714 1305.24 131.781C1299.19 135.109 1295.2 135.597 1286.34 137.949C1276.92 151.587 1261.28 138.999 1252.7 137.416C1241.99 136.196 1235.62 125.287 1226.34 115.91C1221.6 110.089 1215.93 109.971 1209.99 111.864C1204.04 115.606 1197.81 118.298 1191.94 112.552C1184.73 108.958 1177.28 109.268 1169.86 113.203C1162.45 99.6316 1155.08 122.913 1148.03 111.746C1137.23 116.39 1126.91 105.415 1115.52 109.224C1107.31 110.37 1101.41 102.508 1092.82 112.012C1082.44 108.432 1072.51 100.453 1061.92 105.016C1054.42 102.96 1046.79 111.982 1039.16 104.816C1031.53 106.739 1023.89 100.896 1016.34 105.289C1006.49 111.376 996.62 104.291 986.761 105.252C974.691 111.657 967.155 96.407 956.439 113.454C949.96 122.825 942.712 111.539 936.248 119.393C933.379 122.507 930.117 115.044 927.314 123.616C921.804 115.044 915.281 135.19 908.714 124.526C902.146 132.417 895.535 134.517 889.855 123.431C883.598 116.804 877.297 126.315 871.003 123.69C864.702 121.634 858.401 112.559 852.159 123.609C843.986 121.464 837.752 111.59 831.746 116.804C825.741 114.771 819.965 114.127 812.702 108.654C804.005 103.758 794.043 120.325 785.523 108.285C777.343 110.097 770.635 102.686 763.683 94.0256C756.739 92.4133 749.558 83.7899 740.439 83.2204C733.649 72.7037 726.645 77.1633 720.019 81.1496C713.037 86.5707 710.449 63.0005 704.392 67.1051C696.663 64.2947 688.75 50.4869 680.518 56.7289C672.287 53.9111 663.73 48.8228 654.722 54.5028C645.122 59.0142 637.009 57.9048 627.676 58.2672C622.543 57.328 616.878 54.8726 611.716 58.0453C601.621 63.0153 592.975 68.5621 583.176 61.8615C576.934 64.6497 574.33 64.3243 569.56 65.0787C563.91 71.232 556.544 65.4855 550.56 65.3893C543.172 55.7601 535.961 70.9361 528.92 65.2636C521.88 66.8315 515.024 61.9651 508.353 70.7068C503.612 90.8972 497.666 72.859 493.399 79.8036C489.161 66.6022 486.173 80.1956 481.011 91.2522C473.415 87.473 454.911 86.7704 446.488 90.7937C440.098 86.6225 433.708 82.1332 427.318 90.7937C420.928 91.1708 414.538 89.1 408.148 90.7937C402.527 95.5047 396.574 90.3573 390.997 90.9638C382.566 88.2126 377.485 86.053 369.106 83.1612C360.349 96.8508 350.957 89.3367 341.934 82.7175C333.547 79.2489 325.612 83.1686 317.728 77.1041C311.952 78.0508 305.192 74.3012 298.477 75.4179C291.761 68.4659 285.083 77.3852 279.47 78.0952C273.516 83.7603 267.585 79.493 261.727 80.0772C253.806 71.1802 249.798 90.5792 241.012 87.4656C232.455 94.1217 222.922 86.9553 215.445 81.0979C206.119 76.616 204.166 76.8601 193.982 68.636C183.968 77.6219 174.835 69.3164 164.68 59.8425C159.474 57.8974 154.156 65.5002 149.112 57.3797C144.416 55.1314 140.851 46.715 136.066 51.5001C129.388 52.8239 121.755 60.5007 114.16 50.5461C106.565 53.9185 99.0062 49.2148 92.4758 54.9465C85.3611 58.1637 77.9431 54.6729 70.3329 58.7997C62.7227 59.7168 54.9276 61.3956 47.0659 59.8129C39.2042 61.1738 31.2686 59.4136 23.3847 62.2017C15.5009 61.0184 7.67621 54.414 0.0142212 58.4521C0.0142212 58.2228 0.0142212 63.8806 0.0142212 76.7417V560H759.29H1518.57Z"
              fill="#0C0E14"/>
    </g>
    <defs>
        <clipPath id="clip0_1_2">
            <rect width="1519" height="172" fill="white"/>
        </clipPath>
    </defs>
</svg>
