<svg width="29" height="29" viewBox="0 0 29 29" fill="none" xmlns="http://www.w3.org/2000/svg">
    <path d="M19.6562 2.3125C21.3429 2.3125 22.9604 2.9825 24.153 4.17512C25.3456 5.36773 26.0156 6.98526 26.0156 8.67188V19.6562C26.0156 21.3429 25.3456 22.9604 24.153 24.153C22.9604 25.3456 21.3429 26.0156 19.6562 26.0156H8.67188C6.98526 26.0156 5.36773 25.3456 4.17512 24.153C2.9825 22.9604 2.3125 21.3429 2.3125 19.6562V8.67188C2.3125 6.98526 2.9825 5.36773 4.17512 4.17512C5.36773 2.9825 6.98526 2.3125 8.67188 2.3125H19.6562ZM19.6562 0H8.67188C6.37406 0.0068626 4.17232 0.922708 2.54751 2.54751C0.922708 4.17232 0.0068626 6.37406 0 8.67188V19.6562C0.0068626 21.9541 0.922708 24.1558 2.54751 25.7806C4.17232 27.4054 6.37406 28.3213 8.67188 28.3281H19.6562C21.9541 28.3213 24.1558 27.4054 25.7806 25.7806C27.4054 24.1558 28.3213 21.9541 28.3281 19.6562V8.67188C28.3213 6.37406 27.4054 4.17232 25.7806 2.54751C24.1558 0.922708 21.9541 0.0068626 19.6562 0Z" fill="white"/>
    <path d="M21.7208 4.91406C21.3932 4.91406 21.073 5.0112 20.8006 5.1932C20.5282 5.3752 20.3159 5.63389 20.1905 5.93654C20.0652 6.2392 20.0324 6.57223 20.0963 6.89352C20.1602 7.21482 20.3179 7.50995 20.5496 7.74159C20.7812 7.97323 21.0764 8.13098 21.3976 8.19489C21.7189 8.2588 22.052 8.226 22.3546 8.10064C22.6573 7.97527 22.916 7.76298 23.098 7.4906C23.28 7.21822 23.3771 6.89798 23.3771 6.57039C23.3771 6.35288 23.3343 6.1375 23.251 5.93654C23.1678 5.73559 23.0458 5.55299 22.892 5.39919C22.7382 5.24539 22.5556 5.12338 22.3546 5.04014C22.1537 4.9569 21.9383 4.91406 21.7208 4.91406Z" fill="white"/>
    <path d="M14.2427 9.09767C15.2537 9.0971 16.2422 9.39642 17.0831 9.95776C17.9239 10.5191 18.5794 11.3172 18.9666 12.2512C19.3538 13.1852 19.4552 14.213 19.2581 15.2046C19.061 16.1963 18.5742 17.1071 17.8593 17.8221C17.1444 18.537 16.2335 19.0238 15.2419 19.2209C14.2502 19.418 13.2224 19.3165 12.2885 18.9293C11.3545 18.5422 10.5564 17.8867 9.99502 17.0458C9.43367 16.2049 9.13435 15.2164 9.13492 14.2054C9.13722 12.8515 9.67609 11.5536 10.6335 10.5962C11.5909 9.63883 12.8887 9.09996 14.2427 9.09767ZM14.2427 6.78517C12.775 6.78803 11.3411 7.22589 10.1222 8.04341C8.90335 8.86094 7.95416 10.0214 7.39462 11.3783C6.83509 12.7351 6.69031 14.2273 6.9786 15.6664C7.26689 17.1054 7.9753 18.4268 9.0143 19.4633C10.0533 20.4999 11.3763 21.2053 12.816 21.4902C14.2558 21.7751 15.7476 21.6268 17.1032 21.0641C18.4587 20.5014 19.6169 19.5495 20.4316 18.3288C21.2463 17.108 21.6808 15.6731 21.6802 14.2054C21.6799 13.2296 21.4871 12.2635 21.113 11.3622C20.7389 10.461 20.1907 9.6424 19.4999 8.95322C18.8091 8.26403 17.9892 7.71781 17.0871 7.34579C16.185 6.97378 15.2184 6.78327 14.2427 6.78517Z" fill="white"/>
</svg>
