<svg width="375" height="875" viewBox="0 0 375 875" fill="none" xmlns="http://www.w3.org/2000/svg">
    <path d="M230.091 847.637L375 755.212L355.418 875L0 875L-4.67794e-06 767.981L327.268 611.71L230.091 847.637Z" fill="#EA202C"/>
    <path d="M147.846 469.423L-1.31567e-05 574.01L-2.11305e-05 391.591L147.846 469.423Z" fill="#EA202C"/>
    <path d="M135.117 381.862L375 218.902L375 -1.63918e-05L310.379 -1.35671e-05L135.117 381.862Z" fill="#EA202C"/>
    <path d="M109.661 261.466C77.3498 240.792 5.483 198.958 -2.96358e-05 197.012L127.285 -5.56379e-06L109.661 261.466Z" fill="#EA202C"/>
    <path d="M208.551 561.849L340.731 510.771L375 338.082L208.551 561.849Z" fill="#EA202C"/>
</svg>
