<svg id="logo" width="118" height="76" viewBox="0 0 118 76" fill="none" xmlns="http://www.w3.org/2000/svg">
    <path d="M0 21.6782V76L117.439 54.3218V0L0 21.6782Z" fill="#0C0E14"/>
    <path d="M17.7853 34.4839L14.0938 35.2562L14.101 31.4022L25.984 28.9141L25.9768 32.768L22.2852 33.5403L22.2654 44.6637L17.7547 45.6074L17.7853 34.4839Z" fill="white"/>
    <path d="M29.3064 43.2984L27.0547 41.4202L27.0836 30.9318L29.3335 28.1117L37.1154 26.4824L39.3762 28.3589L39.3473 38.8472L37.0685 41.6728L29.3064 43.2984ZM34.8474 38.2969L34.8528 30.5908L34.6508 30.4248L32.0093 30.9769L31.5853 31.4929L31.569 39.1919L31.7729 39.3687L34.4234 38.813L34.8474 38.2969Z" fill="white"/>
    <path d="M48.0825 32.6319L45.7009 39.7607L40.8906 40.7675L40.9177 25.79L45.4284 24.8464L45.4158 32.8665L45.5367 32.8412L45.8975 31.3779L48.2991 24.2456L53.1093 23.2388L53.0822 38.2162L48.5715 39.1598L48.5787 31.1181L48.4578 31.1434L48.0825 32.6319ZM43.2218 22.6758L43.2362 20.5017L45.5475 20.0181V20.6135L45.764 20.7976L48.0753 20.314L48.2792 20.0416V19.4461L50.6104 18.959L50.5959 21.1332L49.5133 22.4972L44.3116 23.587L43.2218 22.6758Z" fill="white"/>
    <path d="M66.5978 27.7967L66.5888 33.04L64.31 35.8673L54.8086 37.8557L54.8375 22.8782L65.5099 20.6445L65.5062 24.0691L59.3356 25.361V27.6055L59.9472 26.8405L64.3479 25.9185L66.5978 27.7967ZM59.3049 33.6048L61.6649 33.1104L62.0889 32.5926L62.0835 29.9204L61.8796 29.7436L59.3193 30.2795L59.3049 33.6048Z" fill="white"/>
    <path d="M69.8162 34.816L67.5645 32.9377L67.5933 22.4494L69.8433 19.6293L77.6252 18L79.886 19.8765L79.8571 30.3648L77.5783 33.1903L69.8162 34.816ZM75.3572 29.8127L75.3626 22.1066L75.1605 21.9406L72.5208 22.4927L72.0968 23.0087L72.0806 30.7076L72.2845 30.8845L74.935 30.3287L75.3572 29.8127Z" fill="white"/>
    <path d="M91.0079 30.3804L83.3865 31.9754L81.1348 30.0971L81.1636 19.6088L83.4136 16.7887L91.0151 15.1973L93.2416 17.0593L89.799 20.4117L88.5179 19.3327L86.0876 19.8415L85.6635 20.3575L85.6509 27.6794L85.853 27.8454L88.4836 27.2951L89.7845 25.6766L93.2921 27.5314L91.0079 30.3804Z" fill="white"/>
    <path d="M103.762 27.7105L96.1404 29.3055L93.8887 27.4272L93.9175 16.9388L96.1675 14.1187L103.769 12.5273L105.995 14.3894L102.553 17.7418L101.272 16.6628L98.8415 17.1716L98.4175 17.6876L98.4048 25.0094L98.6069 25.1754L101.238 24.6251L102.538 23.0067L106.048 24.8615L103.762 27.7105Z" fill="white"/>
    <path d="M24.7657 61.9409L17.1443 63.5359L14.8926 61.6577L14.9214 51.1693L17.1714 48.3492L24.7729 46.7578L26.9994 48.6198L23.5568 51.9722L22.2757 50.8933L19.8454 51.4021L19.4214 51.9181L19.4087 59.2399L19.6108 59.4059L22.2415 58.8556L23.5424 57.2371L27.0517 59.092L24.7657 61.9409Z" fill="#EA202C"/>
    <path d="M28.8304 61.092L26.6562 59.2823L30.1169 56.0111L31.4485 57.1316L33.7994 56.639L34.2343 56.1193V53.8748L30.9541 54.5622L30.9595 51.3452L34.2397 50.6578V48.4132L34.0376 48.2472L31.4773 48.7831L30.1548 50.4485L26.6923 48.6261L28.8593 45.9071L36.5005 44.3066L38.7522 46.1849L38.7234 56.6733L36.4536 59.497L28.8304 61.092Z" fill="#EA202C"/>
    <path d="M52.3562 56.0614L47.8455 57.0051L47.8581 51.2295L44.7782 51.8737L44.7764 57.6474L40.2656 58.591L40.2927 43.6136L44.8034 42.67L44.7854 48.0197L47.8653 47.3756L47.8743 42.0276L52.3851 41.084L52.3562 56.0614Z" fill="#EA202C"/>
    <path d="M57.6186 57.5266L53.1385 58.4649L53.1367 52.4728L54.1471 52.2617L54.7588 51.4967L55.8215 40.3642L65.9436 38.2441L65.9183 49.797L67.2282 49.5228L67.2102 55.5202L62.6995 56.4639L62.7139 53.8928L57.633 54.9573L57.6186 57.5266ZM59.5979 42.9966L58.8653 50.4159L58.057 51.4407L61.4184 50.7371L61.4292 42.6123L59.5979 42.9966Z" fill="#EA202C"/>
    <path d="M68.1327 37.7882L77.4555 35.8359L79.709 37.7232L79.7018 41.0341L78.2927 42.9791L80.1998 44.3558L80.198 47.885L77.9192 50.7123L68.1074 52.7656L68.1327 37.7882ZM75.6999 47.7515L75.6963 45.1948L75.4816 45.0198L72.6218 45.6188L72.6037 48.8268L75.265 48.2693L75.6999 47.7515ZM75.1893 41.8749V39.5257L74.9854 39.3489L72.6452 39.8397L72.6362 42.8384L74.7671 42.3927L75.1893 41.8749Z" fill="#EA202C"/>
    <path d="M88.3228 41.8989L85.9411 49.0276L81.1309 50.0344L81.1597 35.057L85.6705 34.1133L85.6578 42.1334L85.7787 42.1082L86.1396 40.6431L88.5411 33.5107L93.3513 32.5039L93.3243 47.4813L88.8135 48.425L88.8207 40.3851L88.6999 40.4103L88.3228 41.8989Z" fill="#EA202C"/>
    <path d="M96.5311 42.3225L94.2793 40.4442V32.3105L98.79 31.3669L98.7702 38.0012L98.9741 38.1781L101.415 37.6674L101.432 30.8147L105.942 29.8711L105.913 44.8485L101.403 45.7922L101.413 40.6535L100.793 41.4312L96.5311 42.3225Z" fill="#EA202C"/>
</svg>
