<svg width="131" height="131" viewBox="0 0 131 131" fill="none" xmlns="http://www.w3.org/2000/svg">
    <path fill-rule="evenodd" clip-rule="evenodd" d="M67.2637 122.747C67.0785 123.956 65.9673 124.784 64.8562 124.599C63.6475 124.414 62.819 123.303 62.9067 122.094C63.0919 120.983 64.2031 120.145 65.4117 120.242C66.6106 120.427 67.4489 121.538 67.2637 122.747Z" fill="white"/>
    <path d="M65.5 2.60246C30.8006 2.60246 2.60246 30.8006 2.60246 65.5C2.60246 100.199 30.8103 128.407 65.5098 128.407C100.209 128.407 128.417 100.199 128.417 65.5C128.417 30.8006 100.199 2.60246 65.5 2.60246ZM65.5 131C29.4068 131 0 101.681 0 65.5C0 29.4068 29.4068 0 65.5 0C101.593 0 131 29.4068 131 65.5C131 101.681 101.593 131 65.5 131Z" fill="white"/>
    <path d="M65.4136 16.4233C38.3266 16.4233 16.2399 38.4126 16.2399 65.4995C16.2399 92.5865 38.3169 114.673 65.4136 114.673C92.5104 114.673 114.578 92.5963 114.578 65.4995C114.578 38.4028 92.5006 16.4233 65.4136 16.4233ZM65.4136 115.97C37.6736 115.97 15.0312 93.3273 15.0312 65.4995C15.0312 37.7595 37.6736 15.1172 65.4136 15.1172C93.2511 15.1172 115.796 37.7595 115.796 65.4995C115.786 93.3371 93.2414 115.97 65.4136 115.97Z" fill="white"/>
    <path fill-rule="evenodd" clip-rule="evenodd" d="M59.4653 36.8338C59.1827 37.3894 58.9098 38.1302 58.5394 38.598C59.3776 44.6315 60.3913 53.4428 54.085 54.1835C52.4182 54.3687 50.2836 54.1835 49.5429 53.1601C48.149 51.0255 49.8255 47.8675 50.2836 45.8303C50.001 48.5205 49.9133 51.6786 52.6034 52.2341C54.085 52.5168 56.59 52.0489 57.243 51.123C57.8961 50.2847 57.8961 47.5946 57.7986 45.5574C57.7011 41.8438 57.4282 38.598 56.317 36.3757C56.6874 35.7227 57.243 35.3523 57.6134 34.709C58.4516 35.2548 58.5394 36.4634 59.4653 36.8338Z" fill="white"/>
    <path fill-rule="evenodd" clip-rule="evenodd" d="M86.0959 48.5178V48.9857C85.8132 49.3561 85.2576 50.9351 84.5168 51.1203C84.2342 51.2178 83.4057 51.0228 82.7526 51.0228C81.2711 51.1203 79.5069 51.4907 77.9278 52.0463C76.3488 52.6018 74.6821 53.713 73.2005 53.3426C71.9042 53.06 70.9782 51.3932 70.5981 50.4672C69.8573 48.4301 69.8573 46.1103 69.3017 43.6931C68.2783 49.9994 65.0325 54.7364 57.5176 54.1809C62.8102 52.9722 66.1437 50.1943 67.635 45.5547C68.561 42.9523 68.561 38.9658 69.3992 36.373C70.9782 37.4842 70.14 39.7163 70.14 41.5682C70.14 44.1707 70.5104 47.319 71.5338 49.0832C73.1128 51.7733 77.1968 51.4907 79.6043 49.4536C78.2105 47.7868 74.1265 47.972 72.8302 49.2684C73.6684 47.6893 74.4969 46.1103 76.2611 45.8374C79.8773 45.1844 82.2945 49.0734 86.0959 48.5178Z" fill="white"/>
    <path fill-rule="evenodd" clip-rule="evenodd" d="M60.1195 38.9707C63.6479 40.3645 65.8702 43.0547 65.7825 48.1524C64.9443 46.5734 64.8566 44.9066 63.1801 44.0684C61.8837 43.4153 60.4899 43.5128 59.9343 42.3042C59.5639 41.4757 59.7491 40.1793 60.1195 38.9707Z" fill="white"/>
    <path d="M32.0111 79.7857C31.8259 79.7857 31.6407 79.6882 31.5432 79.503L21.0652 69.0249C19.954 68.0015 19.3984 66.6174 19.3984 65.2236C19.3984 63.7421 19.954 62.3482 21.0652 61.3248L31.553 50.837C31.8356 50.5543 32.2937 50.5543 32.5764 50.837C32.8591 51.1197 32.8591 51.5778 32.5764 51.8604L21.9911 62.3385C21.2504 63.0793 20.88 64.1027 20.88 65.2139C20.88 66.2373 21.2504 67.251 21.9911 68.0015L32.5667 78.577C32.8493 78.8597 32.8493 79.2301 32.5667 79.503C32.3815 79.6882 32.1963 79.7857 32.0111 79.7857Z" fill="white"/>
    <path d="M65.4999 111.242C64.0183 111.242 62.6245 110.686 61.6011 109.663L51.5811 99.5456C51.2985 99.2629 51.2985 98.8925 51.5811 98.6196C51.8638 98.2492 52.3219 98.2492 52.6046 98.6196L62.6245 108.64C63.3653 109.38 64.3887 109.848 65.4999 109.848C66.5233 109.848 67.537 109.38 68.3753 108.64L78.3952 98.6196C78.6779 98.2492 79.136 98.2492 79.4186 98.6196C79.7013 98.9023 79.7013 99.2726 79.4186 99.5456L69.3012 109.663C68.2875 110.686 66.9814 111.242 65.4999 111.242Z" fill="white"/>
    <path d="M98.9025 79.8751C98.805 79.8751 98.6198 79.7777 98.4347 79.6899C98.152 79.4073 98.152 78.9492 98.4347 78.6665L108.922 67.9935C109.663 67.2527 110.131 66.2293 110.131 65.2059C110.131 64.0947 109.663 63.0713 108.922 62.3305L98.4347 51.6575C98.152 51.3748 98.152 51.0044 98.4347 50.7315C98.7173 50.4489 99.1754 50.4489 99.4581 50.7315L109.946 61.3071C110.969 62.3305 111.525 63.7146 111.525 65.2059C111.525 66.5997 110.969 67.9935 109.946 69.0072L99.4581 79.6802C99.2729 79.7874 99.0877 79.8751 98.9025 79.8751Z" fill="white"/>
    <path d="M78.4913 32.8467C78.3061 32.8467 78.1209 32.8467 78.0234 32.6615L67.8183 22.4467C66.2393 20.8677 63.6465 20.8677 62.0675 22.4467L51.8624 32.6615C51.5797 32.9442 51.1216 32.9442 50.839 32.6615C50.5563 32.3789 50.5563 31.9208 50.839 31.6381L61.0441 21.433C63.1787 19.2984 66.7071 19.2984 68.8417 21.433L79.0468 31.6381C79.3295 31.9208 79.3295 32.3789 79.0468 32.6615C78.8616 32.8467 78.6765 32.8467 78.4913 32.8467Z" fill="white"/>
    <path d="M32.0103 52.0505C31.6399 52.0505 31.2695 51.7679 31.2695 51.3097V36.9231C31.2695 33.8626 33.7745 31.4453 36.7474 31.4453H51.2217C51.5921 31.4453 51.8747 31.728 51.8747 32.1861C51.8747 32.5565 51.5921 32.8391 51.2217 32.8391H36.7376C34.5153 32.8391 32.7511 34.6911 32.7511 36.9231V51.3C32.7511 51.7679 32.3807 52.0505 32.0103 52.0505Z" fill="white"/>
    <path d="M52.0482 99.8261H36.7356C33.7628 99.8261 31.2578 97.3211 31.2578 94.3483V79.0455C31.2578 78.6751 31.6282 78.3047 31.9986 78.3047C32.369 78.3047 32.7394 78.6751 32.7394 79.0455V94.3483C32.7394 96.5706 34.5036 98.3348 36.7259 98.3348H52.0482C52.4186 98.3348 52.789 98.7052 52.789 99.0756C52.789 99.446 52.4186 99.8261 52.0482 99.8261Z" fill="white"/>
    <path d="M94.1668 99.8282H78.9517C78.4839 99.8282 78.2109 99.4579 78.2109 99.0875C78.2109 98.7171 78.4936 98.3467 78.9517 98.3467H94.1668C96.3891 98.3467 98.2508 96.5825 98.2508 94.3602V79.1353C98.2508 78.7649 98.5335 78.3945 98.9039 78.3945C99.3717 78.3945 99.6446 78.7649 99.6446 79.1353V94.3504C99.6446 97.3233 97.2274 99.8282 94.1668 99.8282Z" fill="white"/>
    <path d="M98.9032 51.9531C98.5328 51.9531 98.2501 51.5827 98.2501 51.2123V36.9231C98.2501 34.7008 96.3982 32.8391 94.1661 32.8391H78.4929C78.1225 32.8391 77.8398 32.5565 77.8398 32.1861C77.8398 31.7182 78.1225 31.4453 78.4929 31.4453H94.1759C97.2364 31.4453 99.6537 33.8528 99.6537 36.9231V51.2123C99.6439 51.5827 99.3613 51.9531 98.9032 51.9531Z" fill="white"/>
    <path fill-rule="evenodd" clip-rule="evenodd" d="M49.448 82.764C50.4714 82.764 51.3974 82.764 52.4208 82.764C52.3234 81.2825 52.4208 79.606 52.4208 78.0367C53.532 77.8515 54.9258 78.0367 56.1345 77.9393C56.1345 81.6529 56.1345 86.195 56.1345 90.279H52.4208C52.4208 88.6123 52.3234 86.7506 52.4208 85.269C51.5826 85.1716 50.3837 85.269 49.448 85.269C49.2628 86.848 49.448 88.6123 49.3505 90.279H45.7344C45.4517 87.6765 46.017 83.4171 45.7344 80.6294C45.6369 79.7912 45.2665 79.2356 44.7109 78.8652C44.9936 78.027 45.8221 77.4714 46.8455 77.4714C49.3603 77.3739 49.6332 79.9764 49.448 82.764Z" fill="white"/>
    <path fill-rule="evenodd" clip-rule="evenodd" d="M61.3279 88.2307C63.0921 88.2307 63.0921 83.2207 61.1427 83.5911C59.5637 83.8738 59.5637 88.3281 61.3279 88.2307ZM62.5365 82.8503V81.554H66.0649C66.3476 84.2441 65.2267 88.143 66.9909 89.4393C66.3379 91.2035 62.634 90.9208 62.634 88.7863C61.7957 90.3653 59.5734 91.3887 57.9944 89.8974C55.4894 87.7628 55.9573 81.2713 59.8463 81.1738C61.2304 81.1836 61.8835 81.9244 62.5365 82.8503Z" fill="white"/>
    <path fill-rule="evenodd" clip-rule="evenodd" d="M67.5471 77.8408C68.6583 77.8408 69.9547 77.7433 71.0756 77.9382V83.3186C71.0756 85.0828 70.7929 87.2174 71.2608 88.426C71.446 88.8939 71.9138 89.0791 72.099 89.4495C71.2608 91.1162 68.2977 91.0285 67.6446 89.2643C67.089 88.0557 67.3619 85.6481 67.3619 83.7865V78.0357C67.4497 77.9382 67.4497 77.8408 67.5471 77.8408Z" fill="white"/>
    <path fill-rule="evenodd" clip-rule="evenodd" d="M76.8162 88.2307C78.5804 88.2307 78.5804 83.2207 76.631 83.5911C75.0617 83.8738 75.0617 88.3281 76.8162 88.2307ZM78.0248 82.8503V81.554H81.5532C81.8359 84.2441 80.715 88.143 82.4792 89.4393C81.8261 91.2035 78.1223 90.9208 78.1223 88.7863C77.284 90.3653 75.0617 91.3887 73.4827 89.8974C70.9777 87.7628 71.4456 81.2713 75.3346 81.1738C76.7284 81.1836 77.3717 81.9244 78.0248 82.8503Z" fill="white"/>
    <path fill-rule="evenodd" clip-rule="evenodd" d="M83.0354 77.8382C84.1466 77.8382 85.4429 77.7408 86.5638 77.8382V83.3161C86.5638 85.0803 86.2812 87.2149 86.749 88.4235C86.9342 88.8914 87.4021 89.0766 87.5873 89.4469C86.749 91.1137 83.7859 91.026 83.1329 89.2618C82.5773 88.0434 82.8502 85.6359 82.8502 83.7742V78.0234C82.9477 77.9357 82.9477 77.8382 83.0354 77.8382Z" fill="white"/>
    <path fill-rule="evenodd" clip-rule="evenodd" d="M102.052 59.2842C101.955 63.2708 102.149 67.4523 101.955 71.2536C100.376 71.2536 98.6113 71.4388 97.2272 71.2536V61.5163C96.7594 61.3311 96.0186 61.5163 95.5605 61.4188C95.0049 65.5906 95.7457 70.2302 92.2172 71.9944C90.3653 72.9203 86.6517 73.2907 84.0492 71.0684C83.3962 70.5128 88.0358 68.9338 88.3184 69.4017C88.7863 70.3276 89.8 69.8695 90.0826 69.3042C91.379 66.8967 91.0086 62.6275 91.4765 59.2842C94.537 58.4558 98.9037 58.5435 102.052 59.2842Z" fill="white"/>
    <path fill-rule="evenodd" clip-rule="evenodd" d="M81.0867 68.3779C83.4065 68.2804 83.4065 61.4185 80.7163 61.9741C78.5817 62.3445 78.5817 68.4754 81.0867 68.3779ZM82.6657 60.9604V59.1962H87.5782C87.5782 64.7618 86.8374 68.8458 88.8746 69.9569C87.9486 72.4619 83.6794 72.6471 82.7534 69.031C81.6423 71.3507 78.5817 72.7446 76.3496 70.6977C72.9187 67.7249 73.562 58.7283 78.9521 58.6406C80.9015 58.6406 81.8275 59.6543 82.6657 60.9604Z" fill="white"/>
    <path fill-rule="evenodd" clip-rule="evenodd" d="M41.6576 63.549C43.2366 66.3366 46.6675 71.5318 46.6675 71.5318H40.176C40.176 71.5318 37.9537 67.3601 36.8328 65.2255C35.0686 66.2489 36.092 69.0268 37.1154 70.0503C35.5364 73.7639 29.7857 71.9022 30.2535 67.6427C30.5362 64.8551 33.0412 63.2858 35.361 62.4476C34.6202 61.1512 33.782 59.8451 33.0412 58.5488C32.2029 57.2524 30.7214 54.65 30.7214 54.65H36.8425C37.9537 56.7845 39.0649 58.8217 40.0883 61.0537C41.9402 60.1278 41.1117 56.882 39.9908 55.7611C40.3612 54.6499 41.3846 54.0944 42.7785 54.0944C44.9131 53.9969 46.3946 55.4882 46.6773 57.1549C47.3108 60.7711 44.0651 62.7205 41.6576 63.549Z" fill="white"/>
    <path fill-rule="evenodd" clip-rule="evenodd" d="M73.2004 59.2802C73.103 63.2667 73.2979 67.4482 73.103 71.3373C71.5239 71.2398 69.7597 71.4348 68.3757 71.2398C68.3757 67.9941 68.3757 64.836 68.3757 61.5903C67.9078 61.4051 67.2645 61.4928 66.7089 61.4928C66.1533 65.6645 66.8941 70.2164 63.3657 71.9806C61.5138 72.9066 57.8001 73.2769 55.1977 71.1423C54.5446 70.5868 59.1842 68.92 59.4669 69.3781C59.9347 70.3041 61.0459 69.846 61.2311 69.3781C62.5274 66.9706 62.2545 62.604 62.6249 59.2607C65.6855 58.5394 70.0521 58.6369 73.2004 59.2802Z" fill="white"/>
    <path fill-rule="evenodd" clip-rule="evenodd" d="M52.2312 68.3779C54.6387 68.3779 54.551 61.516 51.8608 61.9741C49.7262 62.442 49.7262 68.4754 52.2312 68.3779ZM53.8102 60.9604C53.8102 60.4048 53.8102 59.7518 53.8102 59.1962H58.7227C58.7227 64.8592 57.982 68.9335 60.0191 70.0544C59.0931 72.5594 54.8239 72.6568 53.898 69.1284C52.7868 71.3507 49.7262 72.7446 47.4942 70.7952C44.0632 67.7346 44.7065 58.7381 50.0966 58.6406C51.9486 58.6406 52.972 59.6543 53.8102 60.9604Z" fill="white"/>
    <path d="M54.2708 124.878L51.8633 124.507L51.9608 124.137C52.0582 124.04 52.1459 124.04 52.3311 124.04C52.4286 124.04 52.6138 123.942 52.7015 123.942L54.7387 122.178C54.6412 121.895 54.5535 121.71 54.3683 121.437C54.2708 121.154 54.0856 120.882 53.9004 120.599C53.7152 120.229 53.6177 119.946 53.4326 119.673C53.2474 119.39 53.0622 119.117 52.877 118.835L52.5066 118.464L52.6041 118.182L54.0856 118.464L54.456 118.747C54.5535 118.932 54.6412 119.215 54.7387 119.4C54.9238 119.683 55.0213 119.956 55.109 120.238C55.2065 120.423 55.3917 120.706 55.4794 120.979C55.5769 121.262 55.6646 121.535 55.7621 121.72L56.1325 121.817L56.5029 119.497C56.4054 119.4 56.3177 119.4 56.2202 119.312C56.1227 119.215 56.035 119.215 55.9375 119.127L56.035 118.757L58.7252 119.225L58.6277 119.595C58.5302 119.595 58.3451 119.692 58.2573 119.692C58.1599 119.692 57.9747 119.692 57.8869 119.692L56.961 124.8C57.1462 124.8 57.2436 124.897 57.3314 124.897C57.5166 124.995 57.614 125.083 57.7018 125.18L57.6043 125.55L54.9141 124.995L55.0116 124.712C55.0116 124.615 55.1968 124.615 55.2942 124.615C55.3917 124.517 55.5769 124.517 55.6646 124.517L56.035 122.295H55.4794L53.7152 124.147C53.8127 124.244 53.9004 124.332 53.9979 124.332C54.1831 124.429 54.2805 124.517 54.2805 124.517V124.878H54.2708Z" fill="white"/>
    <path d="M48.0625 120.239C48.2477 120.336 48.4329 120.336 48.5304 120.336L49.3686 117.831C49.3686 117.831 49.2712 117.831 49.1834 117.734C49.086 117.734 48.9983 117.734 48.9008 117.636C48.6181 117.539 48.3452 117.539 48.0625 117.734C47.7799 117.831 47.5947 118.202 47.4095 118.66C47.1268 119.401 47.312 119.966 48.0625 120.239ZM51.5812 118.017L51.396 118.299C51.2986 118.299 51.2108 118.397 51.0256 118.397C50.9282 118.397 50.743 118.299 50.6552 118.299L48.9885 123.124C49.086 123.221 49.1737 123.309 49.3589 123.407C49.4564 123.407 49.5441 123.504 49.6416 123.689L49.5441 123.972L46.7564 123.046L46.8539 122.763C47.0391 122.666 47.1366 122.666 47.3218 122.666C47.4192 122.666 47.6044 122.666 47.6922 122.763L48.3452 120.911C48.2477 120.911 48.16 120.814 47.9748 120.814C47.7896 120.814 47.6922 120.716 47.6044 120.716C47.3218 120.619 47.0488 120.434 46.7662 120.346C46.4835 120.161 46.2983 119.976 46.2106 119.79C46.0254 119.605 45.9279 119.323 45.9279 119.05C45.8305 118.865 45.9279 118.494 46.0254 118.211C46.1229 117.841 46.3081 117.558 46.4933 117.373C46.6785 117.188 46.9611 117.091 47.234 117.003C47.5167 116.905 47.7896 116.905 48.0723 116.905C48.4427 116.905 48.7253 117.003 49.0957 117.091C49.0957 117.091 49.1932 117.091 49.1932 117.188C49.2907 117.188 49.3784 117.188 49.5636 117.285C49.661 117.285 49.7488 117.383 49.934 117.383C50.0314 117.48 50.1192 117.48 50.2166 117.48L51.5812 118.017ZM43.9785 115.414L46.581 116.252L46.3958 116.623C46.2983 116.623 46.2106 116.623 46.1131 116.623C45.9279 116.623 45.8305 116.623 45.7427 116.623L44.076 121.447C44.1735 121.545 44.2612 121.545 44.3587 121.633C44.4561 121.73 44.5439 121.818 44.6413 121.915L44.5439 122.286L41.9414 121.36L42.0389 120.989C42.2241 120.989 42.5067 120.989 42.7797 120.989L44.4464 116.165C44.3489 116.067 44.1637 116.067 44.076 115.979C43.9785 115.882 43.8908 115.794 43.8908 115.697L43.9785 115.414Z" fill="white"/>
    <path d="M37.9451 118.756C38.0426 118.853 38.1303 118.853 38.1303 118.853C38.2278 118.95 38.3155 118.95 38.3155 118.95L39.6119 116.543C39.6119 116.445 39.5144 116.445 39.4267 116.358C39.3292 116.358 39.2415 116.26 39.144 116.26C39.0466 116.163 38.8614 116.163 38.7736 116.075C38.5884 116.075 38.4033 116.075 38.2181 116.173C38.1206 116.173 37.9354 116.27 37.8477 116.455C37.6625 116.553 37.565 116.738 37.3798 116.923C37.1946 117.391 37.0972 117.761 37.1946 118.034C37.2921 118.385 37.5748 118.57 37.9451 118.756ZM40.7328 114.389C40.6353 114.291 40.4501 114.204 40.3624 114.018C40.2649 113.921 40.1772 113.833 40.0797 113.736L40.1772 113.453L42.8674 114.749L42.6822 115.12C42.5847 115.12 42.3995 115.12 42.3118 115.022C42.2143 115.022 42.0291 115.022 41.9414 115.022L39.6216 119.477C39.7191 119.574 39.8068 119.662 39.9043 119.759C40.0018 119.857 40.0895 119.945 40.0895 120.13L39.992 120.412L38.9686 119.857C38.6859 119.759 38.5007 119.672 38.2278 119.487C37.9451 119.389 37.6722 119.301 37.3896 119.204C37.1069 119.019 36.9217 118.833 36.6488 118.648C36.3661 118.463 36.1809 118.18 36.0932 117.995C35.908 117.713 35.8105 117.44 35.8105 117.157C35.8105 116.874 35.908 116.601 36.0932 116.231C36.2784 115.948 36.4636 115.675 36.6488 115.578C36.9315 115.393 37.2044 115.295 37.487 115.208C37.7697 115.208 38.0426 115.208 38.413 115.305C38.6957 115.305 38.9686 115.49 39.2512 115.588C39.3487 115.588 39.3487 115.685 39.4364 115.685C39.4364 115.685 39.5339 115.783 39.6216 115.783C39.6216 115.783 39.7191 115.88 39.8068 115.88C39.8068 115.978 39.9043 115.978 39.9043 115.978L40.7328 114.389Z" fill="white"/>
    <path d="M34.8844 110.963C34.7869 110.865 34.6992 110.778 34.6017 110.593C34.5043 110.495 34.4166 110.407 34.3191 110.31L34.5043 109.939L37.0093 111.606L36.8241 111.889C36.4537 111.889 36.2685 111.791 35.9858 111.704L33.1982 115.973C33.1982 116.07 33.2956 116.158 33.3834 116.256C33.4808 116.353 33.5686 116.441 33.666 116.626L33.4808 116.909L29.582 114.306C29.6795 114.209 29.7672 114.023 29.8647 113.936C29.9622 113.751 30.1474 113.565 30.2351 113.468C30.3326 113.283 30.5177 113.097 30.6055 113C30.7029 112.815 30.8881 112.717 30.9759 112.63L31.2585 112.815L30.8881 114.394L31.9993 115.232L34.8844 110.963Z" fill="white"/>
    <path d="M28.1113 109.197C28.2965 109.295 28.394 109.382 28.4817 109.48L30.2459 107.531C30.2459 107.433 30.1485 107.433 30.0608 107.345C29.9633 107.248 29.9633 107.16 29.8756 107.16C29.6904 106.975 29.4077 106.79 29.0373 106.878C28.7547 106.878 28.4817 107.063 28.1113 107.433C27.5558 108.086 27.5558 108.642 28.1113 109.197ZM32.1953 108.457L32.0102 108.739C31.825 108.739 31.7275 108.642 31.6398 108.642C31.4546 108.544 31.3571 108.457 31.2694 108.457L27.8384 112.258C27.9359 112.355 27.9359 112.443 28.0236 112.541C28.1211 112.638 28.2088 112.726 28.2088 112.911L27.9262 113.194L25.7916 111.244L26.0742 110.962C26.1717 111.059 26.3569 111.059 26.4446 111.147C26.5421 111.147 26.7273 111.244 26.815 111.332L28.1113 109.85C28.0139 109.85 27.9262 109.753 27.8287 109.665C27.6435 109.568 27.546 109.48 27.4583 109.382C27.2731 109.197 27.0879 108.915 26.9027 108.729C26.7175 108.447 26.6201 108.262 26.5323 107.989C26.4349 107.803 26.4349 107.521 26.5323 107.248C26.6298 106.965 26.815 106.692 27.0002 106.41C27.2829 106.224 27.468 106.039 27.741 105.942C28.0236 105.844 28.2965 105.757 28.5792 105.844C28.8619 105.844 29.1348 105.942 29.4174 106.127C29.7001 106.224 29.973 106.41 30.2557 106.683C30.2557 106.683 30.3532 106.683 30.3532 106.78C30.4506 106.878 30.5384 106.965 30.6358 106.965C30.7333 107.063 30.821 107.15 30.9185 107.248C31.016 107.345 31.1037 107.433 31.1037 107.531L32.1953 108.457ZM26.2594 103.076L28.2965 104.928L28.0139 105.211C27.9164 105.113 27.8287 105.113 27.7312 105.113C27.546 105.016 27.4485 105.016 27.3608 104.928L23.9299 108.729C24.0273 108.827 24.1151 108.915 24.1151 109.012C24.2125 109.197 24.2125 109.295 24.3003 109.382L24.0176 109.665L21.9805 107.813L22.2631 107.531C22.4483 107.531 22.731 107.716 22.9162 107.813L26.3471 104.012C26.2497 103.914 26.1619 103.827 26.1619 103.642C26.0645 103.544 26.0645 103.456 25.9767 103.359L26.2594 103.076Z" fill="white"/>
    <path d="M24.2133 100.485C24.3108 100.582 24.3985 100.67 24.4959 100.855C24.5934 101.04 24.6811 101.138 24.7786 101.323C24.8761 101.508 24.9638 101.606 25.0613 101.791C25.0613 101.888 25.1587 102.074 25.1587 102.161C25.0613 102.259 24.9736 102.259 24.8761 102.347C24.7786 102.444 24.5934 102.532 24.5057 102.532C24.3205 102.629 24.223 102.717 24.1353 102.814C23.9501 102.814 23.8526 102.912 23.6674 102.912L23.4823 102.629L24.223 101.606C24.223 101.508 24.1256 101.421 24.0378 101.235C24.0378 101.138 23.9404 101.05 23.8526 100.953C23.57 100.582 23.2971 100.485 22.9267 100.397C22.644 100.397 22.2736 100.495 22.0007 100.768C21.718 101.05 21.5329 101.323 21.5329 101.606C21.5329 101.791 21.6303 102.161 21.8155 102.347L22.3711 102.814C22.3711 102.912 22.2736 103 22.1859 103.097C22.0007 103.195 21.9032 103.282 21.8155 103.38L21.6303 103.097C21.5329 103 21.5329 102.912 21.4451 102.814C21.3477 102.717 21.2599 102.629 21.1625 102.629C20.9773 102.444 20.6946 102.444 20.5094 102.444C20.2267 102.444 20.0416 102.542 19.8564 102.727C19.5737 103.009 19.3885 103.282 19.3885 103.468C19.291 103.75 19.3885 104.023 19.6712 104.306C19.7686 104.403 19.8564 104.491 19.9538 104.588C20.0513 104.686 20.139 104.686 20.139 104.686L21.3477 104.315L21.6303 104.598C21.5329 104.696 21.4451 104.783 21.4451 104.881C21.3477 104.978 21.2599 105.066 21.1625 105.163C21.065 105.261 20.9773 105.349 20.8798 105.446C20.7823 105.544 20.6946 105.631 20.5094 105.729C20.4119 105.729 20.3242 105.631 20.139 105.544C20.0416 105.446 19.8564 105.358 19.7686 105.261C19.6712 105.163 19.486 105.076 19.3983 104.978C19.3008 104.793 19.2131 104.696 19.1156 104.608C18.9304 104.423 18.7452 104.14 18.6477 103.955C18.4625 103.672 18.3651 103.399 18.2773 103.214C18.2773 102.931 18.2773 102.659 18.3748 102.473C18.4723 102.191 18.56 102.005 18.8427 101.82C19.0279 101.635 19.3105 101.538 19.6809 101.45C20.0513 101.45 20.4217 101.547 20.7044 101.82L20.8018 101.723C20.7044 101.625 20.6166 101.44 20.5192 101.255C20.5192 101.07 20.5192 100.885 20.5192 100.699C20.5192 100.514 20.6166 100.329 20.6166 100.144C20.7141 99.9586 20.8993 99.8611 21.0845 99.6759C21.2697 99.4907 21.5523 99.3055 21.8253 99.3055C22.1079 99.2081 22.3808 99.2081 22.6635 99.3055C22.9462 99.403 23.1314 99.4907 23.4043 99.6759C23.6577 99.9196 23.9404 100.115 24.2133 100.485Z" fill="white"/>
    <path d="M17.4381 94.5364L17.2529 94.166C17.3503 94.0685 17.4381 94.0685 17.5355 93.9808C17.633 93.8833 17.7207 93.7956 17.8182 93.6981C18.0034 93.6007 18.1009 93.5129 18.1886 93.4155C18.3738 93.318 18.4712 93.2303 18.559 93.1328C18.7442 93.2303 19.0268 93.4155 19.212 93.6884C19.3972 93.8736 19.6799 94.1562 19.8651 94.4292C20.0503 94.7995 20.2355 95.2674 20.4206 95.6378C20.5181 96.1057 20.5181 96.476 20.5181 96.8464C20.4206 97.2168 20.2355 97.5872 19.9625 97.9576C19.6799 98.328 19.3095 98.6984 18.8514 98.981C18.3835 99.2637 17.9254 99.5366 17.4576 99.5366C16.9897 99.6341 16.6193 99.6341 16.2489 99.5366C15.8785 99.4391 15.5081 99.2539 15.2255 98.981C14.9428 98.7958 14.6699 98.4254 14.3872 98.0551C14.202 97.7724 14.0169 97.402 13.9194 97.1291C13.7342 96.8464 13.6367 96.5735 13.6367 96.3883C13.7342 96.2908 13.8219 96.2031 13.9194 96.2031C14.1046 96.1056 14.202 96.0179 14.3872 95.9205L14.8551 95.7353C14.9526 95.6378 15.1378 95.6378 15.2255 95.5501L15.4107 95.9205L14.5724 97.0316C14.5724 97.1291 14.5724 97.2168 14.6699 97.3143C14.6699 97.4117 14.7674 97.4995 14.8551 97.6847C14.9526 97.8699 15.1378 98.0551 15.323 98.1525C15.5081 98.25 15.7908 98.3377 16.0637 98.4352C16.3464 98.4352 16.6193 98.3377 16.902 98.25C17.2724 98.1525 17.6427 97.9673 18.0131 97.6944C18.7539 97.2266 19.2218 96.7684 19.407 96.2129C19.6896 95.6573 19.5922 95.1894 19.2218 94.6338C19.2218 94.5364 19.1243 94.4487 19.0366 94.3512C18.9391 94.2537 18.8514 94.166 18.7539 94.166L17.4381 94.5364Z" fill="white"/>
    <path d="M16.1404 87.959L17.5343 90.7466L17.2516 90.8441C17.1541 90.8441 16.9689 90.6589 16.8812 90.5614C16.7837 90.464 16.696 90.2788 16.5985 90.1911L11.959 92.4134L12.4268 93.3393L14.0936 93.2419L14.2788 93.5245C14.0936 93.622 13.9961 93.7097 13.8109 93.8072C13.7134 93.9047 13.5282 93.9924 13.343 94.0899C13.1578 94.2751 12.9727 94.3725 12.8752 94.4603C12.69 94.5577 12.5048 94.6454 12.4073 94.6454L9.90234 89.4503C9.99981 89.4503 10.185 89.3528 10.3702 89.2651C10.5554 89.2651 10.7406 89.1676 10.9258 89.0799C11.111 88.9824 11.2962 88.8947 11.4814 88.8947C11.5788 88.7972 11.764 88.7972 11.8517 88.7095L12.0369 89.0799L10.9258 90.2885L11.3936 91.2145L16.0332 88.9922C15.9358 88.807 15.9358 88.7095 15.848 88.5243C15.848 88.3391 15.848 88.2416 15.848 88.0565L16.1404 87.959Z" fill="white"/>
    <path d="M12.3379 85.3537L11.7823 83.8722L10.3885 84.9833L9.64771 85.3537L10.486 85.2563L12.3379 85.3537ZM14.7454 84.4278L15.4862 86.5623L15.2035 86.6598C15.106 86.5624 15.0183 86.5624 14.9209 86.4746C14.8234 86.3772 14.7357 86.192 14.7357 86.1042L8.42933 85.8216L8.24414 85.1685L12.9714 81.182C12.9714 81.0845 12.9714 80.8993 12.9714 80.8116C12.9714 80.6264 12.9714 80.5289 13.0689 80.4412L13.3516 80.3438L14.2775 83.0339L13.9072 83.1314C13.9072 83.0339 13.8097 82.9462 13.722 82.8487C13.6245 82.6635 13.5368 82.5661 13.4393 82.4784L12.2307 83.4043L12.8837 85.3537H14.4627C14.3653 85.0711 14.3653 84.7981 14.4627 84.5155L14.7454 84.4278Z" fill="white"/>
    <path d="M12.6215 76.6314L13.0894 79.3216L12.719 79.4191C12.719 79.3216 12.6215 79.1364 12.5338 79.0487C12.4363 78.9512 12.4363 78.766 12.3486 78.6783L7.33862 79.7017C7.33862 79.7992 7.33862 79.9844 7.33862 80.0721C7.33862 80.2573 7.24115 80.3548 7.24115 80.4425L6.87076 80.54L6.4029 77.8498L6.68557 77.7523C6.78304 77.8498 6.87076 77.9375 6.96823 78.035C6.96823 78.1325 7.0657 78.2202 7.0657 78.3177L9.2003 77.9473L8.82991 75.6275L6.60759 75.9979C6.70506 76.0953 6.60759 76.2805 6.60759 76.3683C6.60759 76.4657 6.51012 76.5535 6.51012 76.6509L6.13973 76.7484L5.67188 74.0582L5.95454 73.9607C6.05201 74.0582 6.13973 74.1459 6.2372 74.3311C6.33467 74.4286 6.33467 74.5163 6.4224 74.7015L11.4324 73.6781C11.4324 73.5806 11.4324 73.3954 11.4324 73.3077C11.4324 73.1225 11.5298 73.025 11.5298 72.9373L11.9002 72.8398L12.3681 75.53L12.0854 75.6275C11.9879 75.53 11.9002 75.4423 11.8028 75.3448C11.8028 75.2474 11.7053 75.1596 11.7053 75.0622L9.38549 75.4325L9.85335 77.8401L12.0757 77.3722C12.0757 77.2747 12.1731 77.0895 12.1731 77.0018C12.1731 76.9043 12.1731 76.8166 12.2706 76.7192L12.6215 76.6314Z" fill="white"/>
    <path d="M5.19515 64.3878V62.1655H5.56553C5.663 62.263 5.663 62.3507 5.75073 62.4482C5.75073 62.5456 5.8482 62.7308 5.8482 62.8185L8.16799 64.4853L10.9556 62.6334C10.9556 62.4482 11.0531 62.3507 11.0531 62.263C11.1506 62.1655 11.1506 62.0778 11.2383 61.8926L11.6087 61.99L11.5112 64.8654H11.1408C11.1408 64.768 11.0434 64.6802 11.0434 64.5828C10.9459 64.4853 10.9459 64.3001 10.9459 64.2124L8.90876 65.421L10.8582 66.7174C10.9556 66.5322 10.9556 66.4347 10.9556 66.347C11.0531 66.2495 11.0531 66.1618 11.1408 66.0643H11.5112V68.2866H11.1408C11.0434 68.1014 10.9556 67.9162 10.8582 67.731L8.35318 65.8791L5.75073 67.5459C5.75073 67.6433 5.65326 67.731 5.65326 67.8285C5.55579 67.926 5.55579 68.0137 5.46806 68.1112H5.10742L5.20489 65.2358H5.57528C5.57528 65.3333 5.67275 65.421 5.67275 65.5185C5.67275 65.7037 5.77022 65.8011 5.77022 65.8889L7.62215 64.8654L5.8482 63.7348C5.75073 63.8322 5.75073 64.0174 5.663 64.1051C5.663 64.2026 5.56553 64.2903 5.56553 64.3878H5.19515Z" fill="white"/>
    <path d="M9.3681 58.5432L9.55329 56.9641L7.79883 57.3345H7.04831L7.79883 57.7147L9.3681 58.5432ZM11.9706 58.9135L11.6002 61.1359L11.3175 61.0384C11.22 60.9409 11.22 60.8532 11.1323 60.7557C11.1323 60.5705 11.1323 60.4731 11.1323 60.3853L5.75195 57.2468L5.84942 56.5938L11.8828 55.1999C11.9803 55.1025 11.9803 54.9173 12.068 54.8295C12.1655 54.7321 12.2532 54.6443 12.2532 54.5469L12.6236 54.6443L12.1557 57.432L11.8731 57.3345C11.7756 57.2371 11.7756 57.1493 11.7756 56.9641C11.6781 56.8667 11.6781 56.6815 11.6781 56.5938L10.1966 56.8764L9.91393 58.8258L11.2103 59.5666C11.3078 59.3814 11.3955 59.0987 11.5807 58.8258L11.9706 58.9135Z" fill="white"/>
    <path d="M7.98259 50.3825C7.88512 50.5677 7.7974 50.7528 7.69993 50.8406C7.51473 51.0258 7.41726 51.1232 7.32954 51.211L7.04688 51.1135L8.52842 46.1035L8.81109 46.201C8.81109 46.2985 8.90856 46.3862 8.90856 46.5714C8.90856 46.6688 8.90856 46.854 8.90856 47.0392L13.7333 48.4331C13.8308 48.3356 13.9185 48.2479 14.016 48.1504C14.1135 47.9652 14.1135 47.8677 14.2012 47.78L14.5716 47.8775L13.7333 50.5677L13.4507 50.4702C13.4507 50.3727 13.3532 50.285 13.3532 50.0998C13.3532 50.0023 13.3532 49.9146 13.3532 49.7294L8.4407 48.3356L8.07031 49.7294C8.90856 50.0121 9.64933 50.285 10.2049 50.4702C10.7605 50.7528 11.2283 50.938 11.5987 51.1232C11.9691 51.3084 12.2518 51.4936 12.437 51.6788C12.6222 51.864 12.7196 52.0492 12.9048 52.2344C13.0023 52.4196 13.09 52.6048 13.09 52.79C13.09 52.9752 13.09 53.1604 13.09 53.2578C12.9926 53.3553 12.9926 53.443 12.8074 53.443C12.7099 53.443 12.6222 53.5405 12.437 53.5405C12.3395 53.5405 12.2518 53.638 12.0666 53.5405C11.9691 53.638 11.7839 53.5405 11.6962 53.5405L11.4135 53.1701L11.9691 52.2441C11.8717 52.1467 11.6865 51.9615 11.5013 51.8738C11.2186 51.6886 11.0334 51.5911 10.663 51.4059C10.3804 51.2207 10.01 51.1232 9.55186 50.938C9.09375 50.7528 8.53817 50.5677 7.98259 50.3825Z" fill="white"/>
    <path d="M13.3652 43.8789L14.106 42.3974L12.2541 42.2122L11.5133 42.1147L12.0689 42.5826L13.3652 43.8789ZM15.7727 44.9024L14.9345 46.9395L14.5641 46.7543C14.5641 46.6568 14.5641 46.5691 14.5641 46.4716C14.5641 46.3742 14.5641 46.189 14.5641 46.1012L10.2949 41.5591L10.5776 41.0036L16.7962 41.2862C16.8937 41.1887 16.8937 41.101 16.9814 41.0036C17.0788 40.9061 17.1666 40.9061 17.264 40.8184L17.6344 40.9158L16.4258 43.5183L16.1431 43.4208C16.1431 43.2356 16.1431 43.1381 16.1431 42.953C16.1431 42.8555 16.1431 42.6703 16.2406 42.5826L14.6616 42.4851L13.8233 44.337L14.9345 45.3605C15.1197 45.1753 15.3049 44.9901 15.4901 44.8049L15.7727 44.9024Z" fill="white"/>
    <path d="M14.1895 35.6234C14.092 35.8086 14.0043 35.9061 13.8191 35.9938C13.7216 36.179 13.5364 36.179 13.4487 36.2765L13.166 36.0913L15.8562 31.7344L16.1389 31.9196C16.1389 32.017 16.1389 32.1048 16.1389 32.2022C16.1389 32.3874 16.0414 32.4849 16.0414 32.6701L20.3106 35.3603C20.4081 35.2628 20.4958 35.1751 20.681 35.0776C20.7784 34.9801 20.8662 34.8924 20.9636 34.8924L21.2463 35.0776L19.7648 37.3974L19.4821 37.2122C19.4821 37.1147 19.4821 37.027 19.5796 36.8418C19.5796 36.7443 19.5796 36.6566 19.677 36.4714L15.3201 33.7812L14.4819 35.0776C15.3201 35.5455 15.8757 36.0036 16.4313 36.374C16.8991 36.7443 17.2695 37.1147 17.5424 37.3974C17.8251 37.6801 18.0103 37.953 18.1955 38.1382C18.293 38.3234 18.3807 38.606 18.4781 38.7912C18.5756 38.9764 18.5756 39.1616 18.5756 39.3468C18.5756 39.532 18.4781 39.7172 18.3904 39.8147C18.3904 39.9121 18.293 39.9121 18.1078 39.9121C18.0103 39.9121 17.9226 39.9121 17.7374 39.9121C17.6399 39.9121 17.4547 39.9121 17.367 39.8147C17.2695 39.8147 17.0843 39.8147 16.9966 39.7172L16.8114 39.3468L17.6496 38.5086C17.5522 38.4111 17.367 38.2259 17.2793 38.0407C17.0941 37.8555 16.9089 37.5728 16.6262 37.3876C16.3435 37.105 15.9732 36.8321 15.6028 36.5494C15.2129 36.2765 14.745 35.9938 14.1895 35.6234Z" fill="white"/>
    <path d="M25.9739 29.4061L24.0245 31.3555L23.8393 31.0728C23.8393 30.9753 23.9368 30.8876 23.9368 30.7024C24.0343 30.6049 24.0343 30.5172 24.122 30.4198L20.4084 26.8913C20.3109 26.8913 20.2232 26.9888 20.1257 27.0765C19.9405 27.174 19.843 27.174 19.7553 27.2617L19.4727 26.9791L21.3246 25.0297L21.6073 25.2148C21.6073 25.3123 21.5098 25.4975 21.5098 25.5852C21.4123 25.6827 21.4123 25.7704 21.3246 25.9556L23.8296 28.2754L24.2974 28.831L24.0148 27.9927L23.274 24.1914L23.1765 24.0062C22.8939 24.1914 22.7087 24.2889 22.4358 24.3766L22.2506 24.0939L24.1025 22.1445L24.2877 22.4272C24.2877 22.5247 24.2877 22.6124 24.1902 22.7099C24.1902 22.8951 24.0927 22.9925 24.005 23.0802L27.7186 26.6087C27.8161 26.5112 27.9038 26.5112 28.089 26.4235C28.1865 26.326 28.2742 26.326 28.3717 26.2383L28.6544 26.5209L26.8024 28.4703L26.5198 28.2852C26.5198 28.1877 26.6172 28.1 26.6172 27.9148C26.7147 27.8173 26.7147 27.7296 26.8024 27.5444L24.2974 25.2246L23.927 24.669L24.1122 25.4098L24.853 29.3086L25.0382 29.4938C25.1357 29.3963 25.2234 29.3086 25.3209 29.3086C25.5061 29.2111 25.6035 29.2111 25.6913 29.1234L25.9739 29.4061Z" fill="white"/>
    <path d="M31.7248 24.027L29.5902 25.6938L29.3076 25.4111C29.405 25.3136 29.4927 25.2259 29.5902 25.1284C29.5902 24.9432 29.6877 24.8458 29.7754 24.7581L26.6174 20.7715C26.5199 20.869 26.3347 20.869 26.247 20.9567C26.1495 20.9567 25.9643 20.9567 25.8766 20.9567L25.6914 20.7715L27.826 19.0073L28.0112 19.29C28.0112 19.3874 28.0112 19.5726 27.9137 19.6604C27.8163 19.7578 27.8163 19.8456 27.7285 19.943L29.0249 21.6098L30.9743 20.2159L29.5805 18.4517C29.483 18.5492 29.3953 18.5492 29.2101 18.5492C29.1126 18.6467 29.0249 18.6467 28.9274 18.6467L28.7422 18.364L30.8768 16.6973L31.062 16.9799C31.062 17.0774 30.9645 17.1651 30.8768 17.3503C30.7794 17.4478 30.7794 17.5355 30.6916 17.633L33.7522 21.717C33.9374 21.6195 34.0349 21.5318 34.2201 21.5318C34.3175 21.4343 34.4052 21.4343 34.5027 21.4343L34.7854 21.717L32.5631 23.3837L32.3779 23.1011C32.4753 23.0036 32.4753 22.9159 32.5631 22.8184C32.5631 22.7209 32.6605 22.6332 32.7483 22.5357L31.2667 20.6838L29.4148 22.0776L30.8963 23.9296C30.9938 23.9296 31.0815 23.8321 31.179 23.8321C31.2765 23.8321 31.3642 23.7346 31.5494 23.7346L31.7248 24.027Z" fill="white"/>
    <path d="M38.8702 18.5609L36.2678 14.1065L35.0591 14.8473C35.3418 15.5004 35.6147 16.056 35.7999 16.5141C36.0826 17.0696 36.1703 17.5375 36.3555 17.9956C36.453 18.366 36.5407 18.7364 36.6382 19.019C36.6382 19.3894 36.6382 19.6721 36.6382 19.8573L38.8702 18.5609ZM40.9171 17.44C41.0146 17.5375 41.1023 17.6252 41.1998 17.8104C41.2972 17.9956 41.2972 18.1808 41.385 18.366C41.4824 18.4635 41.5701 18.6487 41.5701 18.8339C41.6676 19.019 41.7553 19.2042 41.7553 19.3017L41.4727 19.4869L40.264 18.4635L36.5504 20.5981L36.8331 22.0796L36.5504 22.2648C36.453 22.1673 36.3652 21.9821 36.18 21.8944C36.0826 21.7092 35.9948 21.6118 35.8974 21.4266C35.7999 21.2414 35.6147 21.1439 35.527 20.9587C35.4295 20.8612 35.4295 20.676 35.3418 20.5883L35.9948 20.2179C35.9948 19.9353 35.9948 19.5649 35.9948 19.1945C35.8974 18.7266 35.8097 18.3563 35.6245 17.8981C35.527 17.5278 35.3418 17.0599 35.1566 16.6018C34.9714 16.1339 34.7862 15.6758 34.5036 15.3054C34.3184 15.3054 34.2209 15.4029 34.0357 15.4029C33.8505 15.4029 33.6653 15.5004 33.4801 15.5004L33.2949 15.13L37.837 12.625L38.0222 12.9077C37.837 13.0929 37.6518 13.2781 37.4666 13.4632L40.0691 17.9176L40.9171 17.44Z" fill="white"/>
    <path d="M44.0655 10.5719C43.968 10.5719 43.7829 10.5719 43.6951 10.5719C43.5977 10.5719 43.5099 10.5719 43.3247 10.5719L43.2273 10.2015L45.2644 9.36328L45.3619 9.73367C45.3619 9.73367 45.2644 9.83114 45.1767 9.91886C45.0792 10.0163 44.9915 10.1041 44.894 10.2015L44.7088 14.4707C44.7088 15.2115 44.6114 15.7671 44.4262 16.1375C44.3287 16.6053 44.0558 16.7905 43.6854 16.8782C43.5879 16.8782 43.5879 16.7808 43.5002 16.7808C43.4027 16.6833 43.315 16.5956 43.2175 16.4981C43.1201 16.4006 43.0323 16.3129 42.9349 16.2154C42.9349 16.118 42.8374 16.118 42.8374 16.0302L42.9349 15.5624L44.046 15.4649C44.046 15.4649 44.046 15.3674 44.1435 15.2797C44.1435 15.1823 44.1435 15.0945 44.1435 14.9971L40.3422 12.0242C40.2447 12.0242 40.0595 12.0242 39.9718 12.0242C39.8743 12.0242 39.7866 12.0242 39.6891 12.0242L39.5039 11.6538L42.1064 10.6304L42.2916 10.9131C42.1064 11.0983 41.9212 11.2834 41.736 11.4686L43.8706 13.2329L44.241 13.7007L44.1435 13.0477L44.0655 10.5719Z" fill="white"/>
    <path d="M52.3203 11.9709L52.6906 11.8734C52.7881 11.9709 52.7881 12.0586 52.8758 12.2438C52.8758 12.3413 52.9733 12.429 53.061 12.6142C53.061 12.7117 53.1585 12.8969 53.1585 13.0821C53.256 13.1795 53.256 13.3647 53.256 13.4525C53.1585 13.6376 52.8856 13.7351 52.6029 13.9203C52.3203 14.0178 52.0473 14.203 51.6769 14.203C51.2091 14.3882 50.751 14.4856 50.2831 14.3882C49.9127 14.3882 49.5424 14.2907 49.172 14.1055C48.8016 13.9203 48.5189 13.6376 48.246 13.3647C47.9633 12.9943 47.7781 12.5265 47.6904 11.9709C47.5052 11.4153 47.4078 10.8597 47.5052 10.4894C47.6027 10.0215 47.6904 9.65111 47.8756 9.28073C48.1583 8.99806 48.4312 8.72515 48.7139 8.44248C49.0842 8.25729 49.4546 8.0721 49.825 7.97463C50.1954 7.8869 50.5658 7.79918 50.9362 7.79918C51.2188 7.70171 51.4918 7.79918 51.6769 7.79918C51.7744 7.89665 51.7744 7.98437 51.7744 8.16957C51.8719 8.26704 51.8719 8.45223 51.8719 8.63742C51.9694 8.82262 51.9694 8.92009 51.9694 9.10528C51.9694 9.29047 51.9694 9.38794 51.9694 9.47567L51.5795 9.65111L50.7412 8.44248C50.7412 8.44248 50.6438 8.44248 50.4586 8.44248C50.3611 8.44248 50.2734 8.44248 50.0882 8.53995C49.903 8.53995 49.7178 8.63742 49.5326 8.82262C49.3474 9.00781 49.1622 9.193 49.0647 9.47567C48.9673 9.66086 48.8796 10.0312 48.8796 10.4016C48.8796 10.6843 48.977 11.1424 49.0647 11.6103C49.3474 12.4485 49.6203 13.0041 50.0882 13.3745C50.556 13.7449 51.0141 13.8423 51.6672 13.6571C51.7647 13.6571 51.9499 13.5597 52.0376 13.4719C52.1351 13.4719 52.2228 13.3745 52.2228 13.3745L52.3203 11.9709Z" fill="white"/>
    <path d="M58.9119 12.804L55.8514 13.1744V12.8917C55.9488 12.7942 56.0366 12.7065 56.2218 12.609C56.407 12.609 56.5044 12.5116 56.6896 12.4238L55.9489 7.41388L54.9254 7.51135L54.555 9.17809H54.1846C54.1846 9.08062 54.0872 8.99289 54.0872 8.8077C53.9897 8.62251 53.902 8.43731 53.902 8.25212C53.8045 7.96946 53.8045 7.78426 53.8045 7.59907C53.707 7.41388 53.707 7.22868 53.707 7.13121L59.3701 6.29297C59.3701 6.47816 59.3701 6.57563 59.3701 6.76083C59.4675 7.04349 59.4675 7.22868 59.4675 7.41388C59.4675 7.59907 59.4675 7.78426 59.4675 7.96946C59.4675 8.15465 59.4675 8.33984 59.4675 8.43731L59.0971 8.53478L58.2589 7.05324L57.2355 7.23843L57.9762 12.2484C58.1614 12.2484 58.3466 12.3459 58.4441 12.3459C58.6293 12.3459 58.8145 12.3459 58.9119 12.4433V12.804Z" fill="white"/>
    <path d="M63.9228 6.67454C63.8253 6.67454 63.7376 6.67454 63.6401 6.67454C63.5427 6.67454 63.5427 6.67454 63.4549 6.67454V9.46218C63.5524 9.46218 63.6401 9.46218 63.7376 9.46218H64.0203C64.2055 9.46218 64.3029 9.46218 64.4881 9.36471C64.5856 9.26724 64.7708 9.26724 64.8585 9.08205C64.956 8.98458 65.0437 8.79939 65.1412 8.61419C65.2386 8.51672 65.2386 8.24381 65.2386 8.05861C65.2386 7.50303 65.1412 7.13265 64.8683 6.94745C64.6636 6.77201 64.2932 6.58681 63.9228 6.67454ZM63.5524 11.8697C63.7376 11.8697 63.8351 11.8697 64.0203 11.9672C64.2055 11.9672 64.3029 12.0646 64.4881 12.0646V12.435H61.4276V12.1524C61.6127 12.0549 61.7102 11.9672 61.7979 11.9672C61.9831 11.9672 62.0806 11.8697 62.1683 11.8697L62.0709 6.76226C61.9734 6.76226 61.7882 6.66479 61.7005 6.66479C61.603 6.56732 61.4178 6.56732 61.3301 6.47959V6.11895H62.4412C62.7239 6.11895 62.9968 6.11895 63.2795 6.11895C63.6499 6.02148 63.9325 6.02148 64.2055 6.02148C64.4881 6.02148 64.761 6.02148 65.1314 6.11895C65.4141 6.21643 65.687 6.30415 65.8722 6.40162C66.1549 6.58681 66.3401 6.77201 66.5252 7.05467C66.6227 7.23986 66.7104 7.61025 66.7104 7.98064C66.7104 8.35102 66.7104 8.63369 66.5252 8.9066C66.4278 9.0918 66.2426 9.37446 65.9697 9.55965C65.7845 9.65712 65.5018 9.84232 65.1314 9.93004C64.8488 10.0275 64.5758 10.0275 64.2055 10.0275H64.108H63.8253C63.8253 10.0275 63.7278 10.0275 63.6401 10.0275C63.5427 10.0275 63.5427 10.0275 63.5427 10.0275V11.8697H63.5524Z" fill="white"/>
    <path d="M70.7917 12.712L68.1016 12.4294L68.199 12.059C68.2965 12.059 68.3842 11.9615 68.5694 11.9615C68.6669 11.864 68.8521 11.864 68.9398 11.864L69.5929 6.85407C69.4077 6.7566 69.3102 6.7566 69.2225 6.66888C69.0373 6.57141 68.9398 6.57141 68.8521 6.48369V6.12305L71.5423 6.49343V6.7761C71.4448 6.87357 71.3571 6.87357 71.2596 6.96129C71.0744 6.96129 70.9769 6.96129 70.7917 6.96129L70.4214 10.3922L70.2362 11.0453L70.7917 10.3922L73.3942 7.51687L73.4917 7.33168C73.209 7.14648 72.9361 7.04901 72.7509 6.96129L72.8484 6.5909L75.5385 6.96129L75.4411 7.24395C75.3436 7.34142 75.2559 7.34142 75.0707 7.42915C74.9732 7.42915 74.8855 7.42915 74.7003 7.42915L74.1447 12.5366C74.2422 12.5366 74.3299 12.6341 74.5151 12.6341C74.6126 12.7315 74.7003 12.8193 74.7978 12.9167V13.1994L72.1076 12.9167V12.5463C72.2051 12.5463 72.2928 12.4489 72.3902 12.4489C72.5754 12.4489 72.6729 12.3514 72.8581 12.3514L73.2285 9.00817L73.4137 8.26739L72.9458 8.92044L70.2557 11.8933V12.0785C70.3531 12.0785 70.4408 12.1759 70.626 12.2637C70.7235 12.2637 70.8112 12.3611 70.9087 12.3611L70.7917 12.712Z" fill="white"/>
    <path d="M79.875 11.2281C79.875 11.3256 80.0602 11.3256 80.1577 11.3256C80.2551 11.3256 80.3429 11.3256 80.3429 11.3256L80.9959 8.91808C80.9959 8.91808 80.8985 8.82061 80.8107 8.82061C80.7133 8.82061 80.6255 8.72314 80.5281 8.72314C80.4306 8.72314 80.2454 8.62567 80.0602 8.62567C79.875 8.62567 79.7775 8.72314 79.5924 8.81086C79.4949 8.81086 79.3097 8.90833 79.222 9.09353C79.1245 9.191 79.0368 9.37619 79.0368 9.64911C78.8516 10.117 78.9393 10.3899 79.0368 10.6725C79.2317 10.9455 79.5046 11.1307 79.875 11.2281ZM83.2182 8.81086L83.1208 9.18125C83.0233 9.18125 82.9356 9.18125 82.7504 9.27872C82.6529 9.27872 82.4677 9.27872 82.38 9.27872L80.9862 14.1912C81.1714 14.2887 81.2688 14.2887 81.3566 14.3764C81.5418 14.4739 81.6392 14.5616 81.6392 14.6591L81.5418 14.9417L78.8516 14.201L78.949 13.9183C79.0465 13.9183 79.2317 13.8208 79.3194 13.8208C79.4169 13.8208 79.6021 13.8208 79.6898 13.8208L80.2454 11.8714L79.5046 11.6862C79.222 12.0566 78.949 12.427 78.6664 12.7097C78.3837 13.0801 78.1108 13.3627 77.7404 13.6356L77.2726 13.8208L75.791 13.4504L75.8885 13.0801L76.3563 12.9826C76.8242 12.6999 77.1946 12.427 77.4675 12.1443C77.8379 11.8617 78.1206 11.5888 78.3935 11.3061C78.296 11.2086 78.1108 11.1209 78.0231 11.0234C77.8379 10.8382 77.7404 10.7408 77.6527 10.5556C77.5552 10.3704 77.5552 10.1852 77.5552 10C77.4578 9.71734 77.5552 9.53214 77.5552 9.25923C77.6527 8.97656 77.8379 8.70365 78.0231 8.51845C78.2083 8.33326 78.4909 8.14807 78.7639 8.0506C79.0465 7.95313 79.3194 7.95312 79.6898 7.95312C80.0602 7.95312 80.3429 8.0506 80.7133 8.13832C80.7133 8.13832 80.8107 8.13832 80.8985 8.23579C80.9959 8.23579 81.0836 8.23579 81.1811 8.33326C81.2786 8.33326 81.4638 8.33326 81.5515 8.43073C81.649 8.43073 81.7367 8.43073 81.8342 8.43073L83.2182 8.81086Z" fill="white"/>
    <path d="M87.7717 15.3967L88.142 15.4942C88.142 15.5916 88.142 15.7768 88.0446 15.8645C88.0446 16.0497 88.0446 16.1472 87.9471 16.3324C87.9471 16.4299 87.8496 16.6151 87.8496 16.7028C87.7522 16.888 87.7522 16.9855 87.6644 17.0732C87.3818 17.1706 87.1089 17.1706 86.8262 17.0732C86.5435 16.9757 86.1731 16.888 85.9002 16.7905C85.4324 16.6053 85.062 16.3227 84.6916 16.0497C84.4089 15.8645 84.136 15.4942 83.9508 15.1238C83.8533 14.8411 83.7656 14.383 83.7656 13.9151C83.7656 13.5448 83.8631 12.9892 84.136 12.5213C84.3212 11.9657 84.6039 11.4979 84.8768 11.225C85.2472 10.9423 85.5298 10.6694 85.9002 10.5719C86.2706 10.3867 86.641 10.3867 87.1089 10.3867C87.4792 10.3867 87.8496 10.4842 88.22 10.6694C88.5904 10.8546 88.9608 10.952 89.2434 11.1372C89.5261 11.3224 89.7113 11.5076 89.8965 11.6928C89.799 11.7903 89.799 11.878 89.7113 11.9755C89.6138 12.1607 89.6138 12.2581 89.5261 12.4433C89.4286 12.6285 89.3409 12.726 89.2434 12.9112C89.146 13.0087 89.0583 13.0964 89.0583 13.1939L88.6976 13.0769V11.5953C88.6976 11.5953 88.6001 11.4979 88.5124 11.4102C88.415 11.4102 88.3272 11.3127 88.2298 11.3127C87.9471 11.2152 87.7619 11.1275 87.489 11.1275C87.2063 11.1275 87.0211 11.225 86.7482 11.4102C86.563 11.5076 86.2804 11.6928 86.0952 11.9657C85.91 12.2484 85.6273 12.6188 85.4421 13.0769C85.1595 13.8177 85.0717 14.5584 85.1594 15.114C85.3446 15.6696 85.715 16.04 86.2706 16.2252C86.3681 16.3227 86.5533 16.4104 86.641 16.4104C86.7385 16.4104 86.8262 16.4104 86.9237 16.4104L87.7717 15.3967Z" fill="white"/>
    <path d="M95.9303 22.0775L93.6105 20.6836L93.7957 20.401C93.8931 20.401 93.9809 20.401 94.0783 20.401C94.1758 20.401 94.361 20.4984 94.4487 20.4984L97.1389 16.1415C97.0414 16.044 96.9537 15.9563 96.8562 15.8589C96.7588 15.7614 96.671 15.6737 96.671 15.5762L96.8562 15.2058L99.176 16.6874L98.9908 16.97C98.8056 16.97 98.523 16.97 98.2501 16.8725L95.5599 21.2295C95.7451 21.3269 95.8425 21.4147 95.9303 21.5121C95.9303 21.6096 96.0277 21.6973 96.1155 21.7948L95.9303 22.0775ZM92.9672 16.4242C92.782 16.3267 92.5968 16.3267 92.4993 16.239L91.1055 18.4613C91.203 18.5588 91.2907 18.5588 91.2907 18.6465C91.3882 18.6465 91.4759 18.744 91.5733 18.744C91.856 18.9292 92.1289 19.0266 92.4116 18.9292C92.6943 18.8317 92.9672 18.5588 93.2498 18.1884C93.7079 17.4379 93.6105 16.8823 92.9672 16.4242ZM89.0684 17.9057L89.2536 17.6231C89.351 17.6231 89.5362 17.6231 89.6239 17.6231C89.7214 17.6231 89.9066 17.7205 89.9943 17.8083L92.6845 13.4513C92.587 13.3539 92.4993 13.2661 92.4018 13.1687C92.3044 13.0712 92.2167 12.886 92.2167 12.7983L92.4018 12.5156L94.8094 13.9972L94.6242 14.2798C94.5267 14.2798 94.3415 14.2798 94.2538 14.2798C94.0686 14.1824 93.9711 14.1824 93.7859 14.0946L92.7625 15.7614C92.9477 15.7614 93.0452 15.8589 93.1329 15.9466C93.3181 15.9466 93.4155 16.044 93.5033 16.1318C93.7859 16.317 93.9711 16.5022 94.244 16.6874C94.4292 16.8725 94.6144 17.0577 94.7119 17.3404C94.8094 17.5256 94.8094 17.8083 94.8094 18.0812C94.8094 18.3638 94.7119 18.6368 94.5267 18.9194C94.3415 19.2021 94.0588 19.3873 93.8736 19.5725C93.591 19.6699 93.3181 19.7577 93.0354 19.8551C92.7527 19.8551 92.4798 19.8551 92.1972 19.6699C91.9145 19.6699 91.5441 19.4847 91.2712 19.2996C91.2712 19.2996 91.1737 19.2996 91.086 19.2021C91.086 19.1046 90.9885 19.1046 90.9008 19.0169C90.7156 18.9194 90.6181 18.9194 90.5304 18.8317C90.4427 18.744 90.3452 18.7342 90.2477 18.6465L89.0684 17.9057Z" fill="white"/>
    <path d="M98.9901 24.4933L96.8555 22.8265L97.0407 22.5439C97.2259 22.5439 97.3233 22.5439 97.411 22.6413C97.5962 22.6413 97.6937 22.7388 97.7814 22.8265L101.125 18.84C101.027 18.7425 100.939 18.6548 100.842 18.5573C100.745 18.3722 100.745 18.2747 100.657 18.187L100.939 17.9043L102.977 19.6685L102.791 19.9512C102.694 19.9512 102.509 19.8537 102.421 19.8537C102.324 19.8537 102.236 19.7562 102.138 19.7562L100.745 21.423L102.509 22.9045L103.99 21.2378C103.893 21.1403 103.805 21.0526 103.708 20.9551C103.708 20.8576 103.61 20.7699 103.61 20.6725L103.795 20.3898L105.93 22.154L105.745 22.3392C105.56 22.3392 105.462 22.3392 105.374 22.2417C105.189 22.2417 105.092 22.1443 105.004 22.1443L101.758 26.0431C101.856 26.1405 101.856 26.2283 101.943 26.3257C102.041 26.5109 102.041 26.6084 102.129 26.6961L101.846 26.9788L99.8088 25.2146L99.994 24.9319C100.091 24.9319 100.277 25.0294 100.364 25.0294C100.462 25.0294 100.55 25.1268 100.647 25.1268L102.129 23.3626L100.364 21.8811L98.8828 23.6453C98.8828 23.7428 98.9803 23.8305 99.068 23.928C99.068 24.0254 99.1655 24.1132 99.1655 24.2983L98.9901 24.4933Z" fill="white"/>
    <path d="M111.702 29.1319C111.516 28.9467 111.331 28.8493 111.146 28.7615C110.961 28.6641 110.678 28.6641 110.493 28.7615C110.308 28.7615 110.025 28.859 109.752 28.9467C109.47 29.1319 109.284 29.2294 109.011 29.4146L110.863 31.8221C111.146 31.6369 111.331 31.3542 111.516 31.169C111.702 30.8864 111.799 30.7012 111.887 30.516C111.984 30.2333 111.984 30.0481 111.984 29.7752C111.984 29.59 111.799 29.4048 111.702 29.1319ZM107.53 32.6603C107.715 32.8455 107.9 32.943 108.086 33.0307C108.271 33.0307 108.553 33.0307 108.739 33.0307C109.021 33.0307 109.206 32.9333 109.479 32.7481C109.762 32.6506 110.035 32.4654 110.318 32.2802L108.466 29.8727C108.183 30.1554 107.998 30.3405 107.813 30.5257C107.53 30.8084 107.442 30.9936 107.345 31.2665C107.247 31.4517 107.247 31.7344 107.247 31.9196C107.247 32.1925 107.432 32.3777 107.53 32.6603ZM107.715 28.4789C108.086 28.1962 108.456 28.011 108.924 27.8258C109.294 27.7283 109.665 27.6406 110.035 27.6406C110.405 27.6406 110.776 27.8258 111.146 28.011C111.516 28.1962 111.887 28.4789 112.17 28.8493C112.452 29.2196 112.725 29.59 112.823 30.0579C112.92 30.4283 112.92 30.7987 112.823 31.169C112.823 31.6369 112.637 32.0073 112.355 32.2802C112.17 32.6506 111.887 33.021 111.516 33.3036C111.146 33.5863 110.776 33.7715 110.308 33.9567C109.937 34.0542 109.567 34.1419 109.197 34.1419C108.826 34.0444 108.456 33.9567 108.086 33.7715C107.715 33.5863 107.345 33.3036 107.062 32.9333C106.779 32.5629 106.507 32.095 106.409 31.7246C106.312 31.3542 106.312 30.8864 106.409 30.516C106.409 30.1456 106.594 29.7752 106.779 29.4048C107.062 29.1319 107.345 28.7615 107.715 28.4789Z" fill="white"/>
    <path d="M111.144 38.7824L109.848 36.3749L110.13 36.1897C110.228 36.2871 110.316 36.3748 110.413 36.4723C110.51 36.5698 110.598 36.6575 110.696 36.755L115.15 34.1525C115.053 34.0551 115.053 33.8699 115.053 33.7821C114.955 33.5969 114.955 33.4995 114.955 33.4118L115.325 33.2266L116.622 35.6341L116.339 35.8193C116.242 35.7218 116.154 35.6341 116.057 35.6341C115.959 35.5366 115.871 35.4489 115.774 35.3514L113.922 36.4626L115.131 38.4997L116.982 37.3885C116.982 37.2911 116.885 37.2033 116.885 37.0182C116.885 36.9207 116.885 36.833 116.885 36.7355L117.168 36.5503L118.561 38.9578L118.279 39.0553C118.181 39.0553 117.996 38.9578 117.908 38.8701C117.811 38.7726 117.723 38.6849 117.626 38.5874L113.269 41.0924C113.269 41.2776 113.366 41.3751 113.366 41.5603C113.366 41.6577 113.366 41.8429 113.366 41.9307L113.084 42.1158L111.69 39.7083L112.06 39.5231C112.158 39.6206 112.158 39.6206 112.343 39.7083C112.44 39.8058 112.528 39.8935 112.528 39.991L114.565 38.7824L113.357 36.7452L111.407 37.8564C111.407 38.0416 111.407 38.1391 111.407 38.2268C111.505 38.3243 111.505 38.5094 111.505 38.5972L111.144 38.7824Z" fill="white"/>
    <path d="M120.979 44.5318L121.72 46.5689L121.437 46.6664C121.34 46.5689 121.252 46.4812 121.155 46.4812C121.057 46.3837 120.969 46.296 120.969 46.1986L117.441 45.643L115.589 46.4812C115.589 46.5787 115.589 46.6664 115.589 46.8516C115.589 46.9491 115.589 47.0368 115.589 47.222L115.219 47.3195L114.195 44.717L114.566 44.6195C114.663 44.6195 114.751 44.8047 114.848 44.9022C114.946 44.9997 114.946 45.0874 115.034 45.1849L116.983 44.4441L119.118 41.5687C119.118 41.4712 119.118 41.286 119.118 41.1983C119.02 41.1009 119.118 40.9157 119.118 40.8279L119.4 40.7305L120.511 43.4206L120.229 43.6058C120.131 43.5084 120.044 43.4206 119.946 43.3232C119.849 43.2257 119.761 43.138 119.663 43.0405L117.899 45.1751L120.589 45.3603C120.589 45.2628 120.589 45.0776 120.589 44.9899C120.589 44.8047 120.589 44.7073 120.589 44.6195L120.979 44.5318Z" fill="white"/>
    <path d="M123.213 51.6812L123.769 54.001L123.486 54.0984C123.389 54.0009 123.301 53.9132 123.203 53.728C123.106 53.6306 123.018 53.5428 123.018 53.4454L120.513 52.3342C120.328 52.5194 120.143 52.7046 119.958 52.9873C119.773 53.1725 119.587 53.4551 119.402 53.728C119.217 54.0107 118.934 54.2836 118.749 54.5663C118.564 54.8489 118.379 55.1219 118.194 55.4045L118.008 55.8724L117.726 55.9698L117.355 54.3908L117.54 54.0204C117.638 53.8352 117.823 53.6501 118.008 53.3674C118.194 53.1822 118.379 52.997 118.564 52.8118C118.749 52.5291 118.934 52.344 119.119 52.1588C119.305 51.9736 119.49 51.7884 119.675 51.6032L119.578 51.2328L117.355 51.7884C117.355 51.8858 117.355 52.071 117.258 52.1588C117.258 52.2562 117.258 52.344 117.16 52.4414L116.878 52.5389L116.225 49.9364L116.507 49.839C116.605 49.9364 116.692 50.0242 116.79 50.1216C116.887 50.2191 116.887 50.3068 116.975 50.492L121.888 49.1957C121.888 49.0982 121.888 48.913 121.888 48.8253C121.888 48.6401 121.985 48.5426 121.985 48.4549L122.355 48.3574L123.009 50.9599L122.638 51.0573C122.638 51.0573 122.541 50.9599 122.453 50.8722C122.355 50.7747 122.268 50.5895 122.268 50.5018L120.045 51.0573L120.328 51.6129L122.736 52.4512C122.736 52.3537 122.736 52.1685 122.736 52.0808C122.833 51.9833 122.833 51.7981 122.833 51.7104H123.213V51.6812Z" fill="white"/>
    <path d="M118.388 61.1445L118.018 58.084H118.388C118.485 58.1814 118.485 58.2692 118.573 58.4544C118.671 58.6395 118.758 58.737 118.758 58.9222L123.866 58.2692L123.681 57.2457L122.102 56.8753V56.5049C122.199 56.4075 122.384 56.4075 122.569 56.3198C122.755 56.3198 122.94 56.2223 123.125 56.2223C123.31 56.1248 123.495 56.1248 123.681 56.1248C123.866 56.0273 124.051 56.0273 124.148 56.0273L124.889 61.6904C124.704 61.6904 124.519 61.7878 124.334 61.7878C124.148 61.7878 123.963 61.7878 123.778 61.7878H123.222C123.037 61.7878 122.852 61.7878 122.755 61.7878L122.657 61.4174L124.139 60.6767L124.041 59.6532L118.934 60.2088C118.934 60.394 118.836 60.5792 118.836 60.6767C118.836 60.8619 118.836 60.9593 118.739 61.1445H118.388Z" fill="white"/>
    <path d="M124.879 67.6348V69.8571H124.508C124.508 69.7596 124.411 69.6719 124.411 69.5744C124.313 69.477 124.313 69.3893 124.313 69.2041L121.253 67.4398H119.216C119.216 67.5373 119.118 67.625 119.118 67.8102C119.021 67.9077 119.021 67.9954 118.933 68.0929H118.562L118.66 65.3052H118.943C119.04 65.4027 119.04 65.5879 119.128 65.6756C119.128 65.7731 119.225 65.9583 119.225 66.046L121.262 66.1435L124.323 64.2916C124.42 64.1941 124.42 64.0089 124.508 63.9212C124.508 63.8237 124.606 63.6385 124.606 63.5508H124.976V66.5236H124.606C124.508 66.4262 124.508 66.3384 124.42 66.241C124.42 66.1435 124.323 66.0558 124.323 65.8706L121.915 67.1669L124.323 68.3756C124.323 68.2781 124.42 68.0929 124.42 68.0052C124.518 67.9077 124.518 67.7225 124.606 67.6348H124.879Z" fill="white"/>
    <path d="M123.854 74.2221C123.854 74.1247 123.854 74.0369 123.854 73.9395C123.854 73.842 123.854 73.842 123.854 73.7543L121.164 73.3839C121.164 73.3839 121.066 73.4814 121.066 73.5691C121.066 73.6666 121.066 73.7543 121.066 73.8517C120.969 74.0369 120.969 74.1344 121.066 74.3196C121.066 74.5048 121.164 74.6023 121.252 74.7875C121.349 74.8849 121.437 74.9727 121.622 75.0701C121.807 75.2553 121.992 75.2553 122.275 75.3528C122.743 75.3528 123.113 75.3528 123.386 75.0701C123.669 74.8654 123.766 74.5925 123.854 74.2221ZM118.756 73.0135C118.756 73.1987 118.659 73.2962 118.571 73.4814C118.571 73.6666 118.474 73.764 118.386 73.8517H118.016L118.483 70.8789H118.854C118.854 71.0641 118.854 71.1616 118.951 71.2493C118.951 71.4345 118.951 71.532 118.951 71.7172L124.059 72.3702C124.059 72.2727 124.156 72.185 124.156 71.9998C124.254 71.9023 124.341 71.8146 124.439 71.7172H124.722L124.624 72.8283C124.527 73.111 124.527 73.3839 124.527 73.6666C124.429 74.0369 124.429 74.3196 124.429 74.5048C124.332 74.8752 124.332 75.1578 124.147 75.4308C124.049 75.7134 123.961 75.9863 123.776 76.269C123.591 76.4542 123.308 76.6394 123.035 76.7369C122.85 76.8343 122.48 76.8343 122.109 76.8343C121.739 76.7369 121.456 76.6491 121.271 76.4639C120.988 76.2788 120.803 76.0936 120.716 75.8109C120.53 75.5282 120.433 75.2553 120.433 74.9727C120.335 74.6023 120.433 74.3196 120.433 73.9492C120.433 73.9492 120.433 73.9492 120.433 73.8517C120.433 73.7543 120.433 73.6666 120.53 73.6666C120.53 73.5691 120.53 73.4814 120.53 73.3839V73.2864L118.756 73.0135Z" fill="white"/>
    <path d="M122.558 82.5783L122.003 84.7129L121.72 84.6154C121.623 84.518 121.623 84.4302 121.623 84.3328C121.525 84.2353 121.525 84.0501 121.623 83.9624L119.118 81.4574L117.081 80.9018C117.081 81.087 116.983 81.1845 116.895 81.2722C116.895 81.3697 116.798 81.4574 116.71 81.5549L116.34 81.4574L117.081 78.7672L117.451 78.8647C117.451 78.9622 117.451 79.0499 117.451 79.2351C117.451 79.3326 117.451 79.5177 117.451 79.6055L119.4 80.161L122.929 79.2351C122.929 79.0499 123.026 78.9524 123.114 78.8647C123.211 78.7672 123.211 78.6795 123.299 78.582L123.67 78.6795L122.929 81.5549L122.558 81.4574C122.558 81.3599 122.461 81.2722 122.461 81.087C122.461 80.9895 122.461 80.9018 122.461 80.7166L119.771 81.3697L121.808 83.1339C121.905 83.0364 121.905 82.9487 121.993 82.7635C122.091 82.666 122.178 82.5783 122.276 82.4808L122.558 82.5783Z" fill="white"/>
    <path d="M119.869 90.1767L118.943 92.2138L118.661 92.0286C118.661 91.9312 118.661 91.8434 118.661 91.746C118.661 91.5608 118.661 91.4633 118.661 91.3756L116.526 88.5002L114.674 87.7594C114.577 87.8569 114.489 87.9446 114.392 88.0421C114.294 88.1396 114.206 88.2273 114.109 88.3248L113.826 88.1396L114.937 85.5371L115.22 85.7223C115.22 85.8198 115.22 86.005 115.22 86.0927C115.22 86.2779 115.22 86.3754 115.22 86.4631L117.072 87.3013L120.6 86.8335C120.698 86.736 120.786 86.5508 120.883 86.4631C120.98 86.3656 121.068 86.2779 121.166 86.2779L121.448 86.3754L120.24 89.0655L119.957 88.9681C119.957 88.8706 119.957 88.7829 119.957 88.6854C119.957 88.5002 119.957 88.4027 119.957 88.2175L117.267 88.5002L119.031 90.5373C119.129 90.4399 119.216 90.3521 119.314 90.2547C119.411 90.1572 119.411 90.0695 119.499 89.972L119.869 90.1767Z" fill="white"/>
    <path d="M112.255 97.4125C112.353 97.315 112.353 97.2273 112.441 97.1298C112.441 97.0323 112.441 97.0323 112.538 96.9446L110.403 95.5508C110.403 95.5508 110.403 95.5508 110.306 95.6483C110.306 95.6483 110.306 95.7457 110.208 95.7457C110.208 95.8432 110.208 95.8432 110.111 95.9309C110.111 95.9309 110.111 95.9309 110.111 96.0284C109.828 96.3111 109.828 96.584 109.926 96.8666C110.023 97.1493 110.208 97.4222 110.579 97.7049C110.862 97.8901 111.134 97.9876 111.505 97.9876C111.797 97.8803 112.07 97.6951 112.255 97.4125ZM115.413 97.2273C115.599 97.0421 115.881 96.8569 116.066 96.7594L116.349 96.9446L113.659 101.029C113.561 100.931 113.376 100.843 113.289 100.746C113.191 100.648 113.006 100.561 112.918 100.376C112.733 100.278 112.635 100.19 112.548 100.093C112.45 99.9954 112.265 99.9077 112.177 99.8102L112.46 99.4399L113.854 99.7225L114.692 98.4262L113.025 97.2175C113.025 97.315 112.928 97.315 112.928 97.4027C112.83 97.5002 112.83 97.5879 112.83 97.5879C112.733 97.6854 112.733 97.7731 112.645 97.8706C112.645 97.8706 112.548 97.9681 112.548 98.0558C112.363 98.3384 112.177 98.5236 111.992 98.7088C111.807 98.894 111.524 99.0792 111.339 99.1767C111.056 99.2742 110.784 99.2742 110.598 99.2742C110.316 99.1767 110.043 99.089 109.76 98.9038C109.477 98.7186 109.292 98.5334 109.205 98.2507C109.019 98.0655 108.922 97.7829 108.922 97.51C108.922 97.2273 109.019 96.9544 109.107 96.6717C109.205 96.3013 109.39 96.0187 109.575 95.7457C109.575 95.7457 109.575 95.6483 109.672 95.5605C109.77 95.4631 109.858 95.3754 109.955 95.1902C110.053 95.0927 110.14 95.005 110.14 94.8198C110.238 94.7223 110.325 94.6346 110.423 94.5371L111.076 93.5137L111.359 93.6989C111.359 93.7963 111.359 93.8841 111.359 94.0693C111.261 94.1667 111.261 94.3519 111.173 94.4396L115.413 97.2273Z" fill="white"/>
    <path d="M108.552 102.334C108.269 102.149 107.997 101.866 107.714 101.778C107.431 101.593 107.158 101.496 106.876 101.408C106.593 101.311 106.408 101.311 106.135 101.408C105.95 101.506 105.667 101.593 105.482 101.778C105.384 101.964 105.199 102.246 105.199 102.431C105.199 102.714 105.297 102.899 105.384 103.172C105.482 103.357 105.57 103.64 105.852 103.913C106.037 104.098 106.32 104.381 106.593 104.654C106.876 104.936 107.149 105.122 107.431 105.307C107.714 105.492 107.987 105.59 108.269 105.677C108.552 105.775 108.737 105.775 109.01 105.677C109.195 105.58 109.478 105.492 109.663 105.209C109.848 105.024 109.946 104.839 109.946 104.556C109.946 104.371 109.946 104.088 109.848 103.903C109.751 103.621 109.566 103.348 109.381 103.162C109.108 102.89 108.923 102.617 108.552 102.334ZM109.566 101.223C109.936 101.506 110.219 101.876 110.404 102.246C110.687 102.617 110.774 102.987 110.872 103.357C110.872 103.728 110.872 104.196 110.687 104.566C110.589 104.936 110.404 105.307 110.034 105.677C109.663 106.048 109.381 106.33 109.01 106.515C108.64 106.701 108.269 106.798 107.802 106.798C107.431 106.798 107.061 106.701 106.69 106.515C106.32 106.33 105.95 106.145 105.579 105.775C105.209 105.492 104.926 105.122 104.741 104.751C104.556 104.469 104.371 104.098 104.371 103.64C104.273 103.27 104.273 102.899 104.468 102.529C104.566 102.159 104.839 101.788 105.121 101.418C105.492 101.047 105.774 100.765 106.145 100.58C106.515 100.394 106.983 100.297 107.353 100.297C107.724 100.297 108.094 100.394 108.464 100.482C108.923 100.667 109.293 100.94 109.566 101.223Z" fill="white"/>
    <path d="M104.097 110.777C104.195 110.68 104.195 110.592 104.283 110.592C104.283 110.495 104.38 110.407 104.38 110.407L102.616 108.272C102.518 108.37 102.518 108.37 102.431 108.458C102.333 108.555 102.246 108.555 102.148 108.643C102.051 108.74 101.963 108.828 101.865 109.013C101.768 109.111 101.768 109.296 101.768 109.481C101.768 109.578 101.768 109.764 101.865 109.949C101.865 110.134 101.963 110.319 102.148 110.504C102.518 110.875 102.801 111.06 103.172 111.06C103.444 111.148 103.815 110.963 104.097 110.777ZM101.037 106.508C100.852 106.606 100.754 106.693 100.569 106.693C100.472 106.791 100.286 106.879 100.199 106.879L99.916 106.596L102.236 104.646L102.421 104.929C102.421 105.027 102.324 105.212 102.236 105.3C102.236 105.397 102.138 105.485 102.051 105.582L105.394 109.481C105.491 109.384 105.677 109.296 105.764 109.296C105.862 109.198 106.047 109.198 106.135 109.198L106.32 109.481L105.482 110.222C105.296 110.319 105.111 110.504 104.926 110.777C104.643 110.963 104.458 111.148 104.273 111.333C103.99 111.518 103.805 111.703 103.532 111.889C103.249 112.074 102.977 112.171 102.694 112.171C102.411 112.171 102.138 112.171 101.856 112.074C101.573 111.976 101.3 111.791 101.115 111.518C100.832 111.235 100.647 110.963 100.647 110.68C100.55 110.397 100.55 110.124 100.647 109.842C100.745 109.559 100.832 109.286 101.017 109.003C101.203 108.721 101.388 108.536 101.67 108.35C101.67 108.253 101.67 108.253 101.768 108.253C101.768 108.155 101.865 108.155 101.953 108.068C101.953 107.97 102.051 107.97 102.051 107.882C102.148 107.882 102.148 107.882 102.236 107.882L101.037 106.508Z" fill="white"/>
    <path d="M96.6696 113.096C96.7671 112.998 96.8548 112.998 96.9523 112.911C96.9523 112.813 97.0497 112.813 97.0497 112.725L95.6559 110.688C95.6559 110.688 95.6559 110.688 95.5584 110.688C95.5584 110.786 95.461 110.786 95.461 110.786C95.3635 110.786 95.3635 110.883 95.2758 110.883C95.2758 110.883 95.2758 110.981 95.1783 110.981C94.8956 111.166 94.7104 111.448 94.7104 111.721C94.613 112.004 94.7104 112.374 94.9931 112.647C95.1783 113.018 95.461 113.203 95.7339 113.3C96.0263 113.378 96.2992 113.281 96.6696 113.096ZM99.6424 114.119C99.9251 114.022 100.198 114.022 100.383 113.934L100.568 114.217L96.5819 116.907C96.4844 116.809 96.3967 116.722 96.2992 116.536C96.2992 116.439 96.2017 116.254 96.114 116.069C96.0165 115.971 95.9288 115.786 95.8313 115.698C95.8313 115.513 95.7339 115.416 95.7339 115.328L96.0165 115.045L97.2252 115.883L98.5215 114.957L97.4104 113.193C97.3129 113.291 97.3129 113.291 97.2252 113.378C97.2252 113.378 97.1277 113.476 97.04 113.476C97.04 113.573 96.9425 113.573 96.8548 113.661C96.7573 113.661 96.7573 113.759 96.6696 113.759C96.3869 113.944 96.2017 114.129 95.9288 114.226C95.6461 114.324 95.3732 114.324 95.0906 114.324C94.9054 114.324 94.6227 114.226 94.3498 114.139C94.1646 114.041 93.9794 113.768 93.7942 113.486C93.609 113.3 93.5116 113.018 93.4238 112.745C93.4238 112.462 93.5213 112.189 93.609 111.907C93.7065 111.624 93.7942 111.439 94.0769 111.166C94.2621 110.981 94.5447 110.698 94.8177 110.513C94.8177 110.513 94.9151 110.415 95.0028 110.415C95.1003 110.318 95.188 110.23 95.3732 110.133C95.4707 110.035 95.5584 110.035 95.7436 109.947C95.8411 109.85 95.9288 109.762 96.0263 109.762L97.1374 109.021L97.3226 109.304C97.2252 109.402 97.1374 109.489 97.04 109.675C97.04 109.772 96.9425 109.86 96.8548 109.957L99.6424 114.119Z" fill="white"/>
    <path d="M91.4777 116.253C91.2925 115.882 91.1073 115.6 90.9221 115.327C90.6394 115.044 90.4542 114.859 90.269 114.674C89.9864 114.488 89.8012 114.391 89.5283 114.391C89.3431 114.294 89.0604 114.391 88.7875 114.488C88.6023 114.674 88.4171 114.771 88.3196 114.956C88.2222 115.239 88.1344 115.424 88.1344 115.697C88.1344 115.98 88.2319 116.253 88.3196 116.535C88.4171 116.906 88.5048 117.188 88.69 117.559C88.8752 117.929 89.0604 118.212 89.2456 118.485C89.4308 118.767 89.7134 118.953 89.8986 119.138C90.0838 119.323 90.3665 119.42 90.5517 119.42C90.8344 119.42 91.0196 119.42 91.2925 119.235C91.5751 119.138 91.7603 118.953 91.848 118.767C91.9455 118.582 92.0332 118.397 92.0332 118.114C92.0332 117.832 91.9358 117.559 91.848 117.188C91.7603 116.896 91.5751 116.526 91.4777 116.253ZM92.7838 115.512C93.0664 115.98 93.1541 116.35 93.2516 116.808C93.2516 117.179 93.2516 117.646 93.1541 118.017C93.0567 118.387 92.8715 118.758 92.5986 119.04C92.3159 119.323 91.9455 119.596 91.4874 119.781C91.117 120.064 90.6492 120.151 90.2788 120.151C89.8109 120.249 89.4405 120.151 89.0701 119.966C88.6998 119.869 88.4171 119.596 88.1442 119.313C87.7738 119.031 87.5886 118.66 87.3059 118.202C87.1207 117.832 87.0233 117.364 86.9355 116.993C86.9355 116.526 86.9355 116.155 87.033 115.785C87.1305 115.414 87.3157 115.044 87.5886 114.761C87.8713 114.391 88.2416 114.206 88.612 113.923C89.0799 113.738 89.538 113.64 89.9084 113.553C90.3762 113.553 90.7466 113.65 91.117 113.835C91.4874 113.933 91.7701 114.118 92.043 114.488C92.3159 114.761 92.5986 115.142 92.7838 115.512Z" fill="white"/>
    <path d="M84.0587 122.187C84.1562 122.187 84.2439 122.187 84.2439 122.09C84.3414 122.09 84.4291 122.09 84.4291 121.992L83.5909 119.39C83.4934 119.39 83.4934 119.39 83.3082 119.487C83.2107 119.487 83.123 119.487 83.123 119.585C82.9378 119.585 82.8403 119.682 82.6551 119.77C82.5577 119.867 82.47 119.955 82.3725 120.14C82.275 120.325 82.275 120.423 82.275 120.608C82.1775 120.891 82.275 121.076 82.3725 121.261C82.47 121.729 82.7429 122.099 83.0255 122.187C83.3179 122.372 83.6883 122.372 84.0587 122.187ZM82.8501 117.177C82.6649 117.177 82.4797 117.177 82.3822 117.177C82.197 117.177 82.0118 117.177 81.9144 117.177L81.7292 116.895L84.6046 115.871L84.702 116.241C84.6046 116.339 84.5168 116.427 84.4194 116.524C84.3219 116.622 84.2342 116.622 84.1367 116.709L85.7157 121.534C85.9009 121.534 85.9984 121.534 86.1836 121.534C86.281 121.534 86.3688 121.534 86.554 121.534L86.6514 121.905L85.5403 122.275C85.3551 122.372 85.0724 122.46 84.7995 122.558C84.5168 122.655 84.2439 122.743 83.9612 122.84C83.6786 122.938 83.4057 123.025 83.0353 123.123C82.7526 123.123 82.4797 123.123 82.197 123.025C81.9144 122.928 81.6415 122.84 81.4563 122.655C81.2711 122.47 81.0859 122.187 80.9884 121.817C80.8032 121.446 80.8032 121.164 80.8909 120.891C80.8909 120.608 80.9884 120.335 81.1736 120.053C81.3588 119.867 81.544 119.682 81.8266 119.497C82.1093 119.312 82.3822 119.127 82.7526 119.029C82.7526 119.029 82.7526 119.029 82.8501 119.029C82.9476 119.029 82.9476 118.932 83.0353 118.932C83.1328 118.932 83.2205 118.932 83.2205 118.834C83.3179 118.834 83.4057 118.834 83.4057 118.834L82.8501 117.177Z" fill="white"/>
    <path d="M75.2454 124.41C75.4306 124.41 75.5281 124.41 75.7133 124.41C75.8107 124.41 75.8985 124.507 75.9959 124.507L76.0934 124.878L73.9588 125.248L73.8613 124.966C73.9588 124.868 74.0465 124.78 74.144 124.78C74.2415 124.683 74.3292 124.595 74.4267 124.595L75.3526 120.423C75.5378 119.683 75.723 119.127 76.0057 118.757C76.1909 118.386 76.4735 118.201 76.8439 118.201C76.9414 118.201 77.0291 118.299 77.0291 118.386C77.1266 118.484 77.2143 118.572 77.3118 118.669C77.3118 118.767 77.4092 118.854 77.497 118.952C77.497 119.049 77.497 119.137 77.5944 119.234L77.4092 119.605L76.2981 119.507C76.2006 119.605 76.2006 119.605 76.2006 119.692C76.1031 119.79 76.1031 119.878 76.1031 119.975L79.2612 123.591C79.4464 123.591 79.5438 123.591 79.6316 123.689C79.729 123.689 79.8168 123.689 79.9142 123.689L80.0117 124.059L77.2241 124.615V124.244C77.3215 124.147 77.5944 124.059 77.7796 123.874L76.1129 121.739L75.7425 121.184V121.837L75.2454 124.41Z" fill="white"/>
</svg>
