<svg width="342" height="338" viewBox="0 0 342 338" fill="none" xmlns="http://www.w3.org/2000/svg">
    <path fill-rule="evenodd" clip-rule="evenodd" d="M112.106 297.21C131.194 274.952 147.396 255.992 148.11 255.077C148.822 254.161 149.645 253.651 149.937 253.943C150.23 254.235 154.356 266.967 159.107 282.236C163.857 297.505 167.92 310.173 168.134 310.388C168.35 310.603 170.706 297.866 173.371 282.084C179.169 247.746 179.128 247.953 180.152 248.161C180.599 248.251 202.559 263.265 228.953 281.525C255.347 299.785 277.055 314.612 277.194 314.473C277.332 314.335 264.123 294.131 247.84 269.575C231.558 245.019 218.352 224.812 218.494 224.67C218.637 224.528 233.455 225.478 251.424 226.781C300.387 230.332 296.701 230.164 294.893 228.766C294.045 228.11 280.003 217.26 263.69 204.655C247.376 192.05 234.014 181.415 233.996 181.023C233.969 180.422 255.147 175.876 331.348 160.122C336.976 158.959 341.476 157.903 341.349 157.776C341.222 157.649 328.983 155.638 314.15 153.307C299.316 150.975 272.615 146.778 254.812 143.982C237.01 141.184 222.33 138.782 222.19 138.643C221.949 138.402 229.944 129.714 242.801 116.247C257.433 100.921 295.968 59.922 298.749 56.7215L301.834 53.1728L298.364 55.1567C296.455 56.2485 277.887 66.0788 257.102 77.0031C236.316 87.9267 212.195 100.609 203.5 105.185C194.804 109.762 187.592 113.227 187.474 112.887C187.356 112.545 195.09 87.5061 204.659 57.2431C214.228 26.9802 222.279 1.35924 222.548 0.308339C222.817 -0.742564 210.282 13.4724 194.693 31.8972C179.103 50.3221 161.454 71.1815 155.471 78.2513L144.594 91.1064L142.233 89.4492C140.132 87.9745 116.546 70.6106 92.8244 53.0749C88.1583 49.6256 76.8787 41.3161 67.7587 34.6093C58.6386 27.9032 50.7463 22.0793 50.2195 21.6671C49.2177 20.8835 55.9924 34.993 81.1715 86.1277C89.498 103.038 96.1308 117.053 95.911 117.273C95.6912 117.492 78.6812 115.605 58.1118 113.078C37.5416 110.551 20.7121 108.728 20.7121 109.027C20.7121 109.326 21.5335 110.205 22.5369 110.983C26.279 113.88 72.3854 155.385 72.3653 155.839C72.3545 156.099 56.2184 164.632 36.5074 174.802C16.7965 184.972 0.667188 193.476 0.664868 193.699C0.661786 193.921 17.9255 196.47 39.0294 199.362C60.1333 202.255 78.3781 204.852 79.5751 205.134C81.598 205.612 79.258 207.586 46.182 233.31C26.6199 248.523 10.4135 261.296 10.1675 261.693C9.91917 262.095 10.3626 262.219 11.1678 261.972C11.963 261.73 21.117 259.624 31.5097 257.294C41.9023 254.963 59.6874 250.965 71.0326 248.408C82.3778 245.851 92.0316 243.759 92.4866 243.759C92.9417 243.759 93.1298 244.366 92.9054 245.107C92.1596 247.569 76.9643 336.453 77.1841 337.072C77.3022 337.406 93.0172 319.468 112.106 297.21Z" fill="#F4EC68"/>
</svg>
