<svg width="131" height="58" viewBox="0 0 131 58" fill="none" xmlns="http://www.w3.org/2000/svg">
    <path d="M110.816 57.8104L111.709 53.7029H118.958L123.56 31.9336L128.199 31.9336L123.597 53.7029H130.864L129.957 57.8104H110.816Z" fill="white"/>
    <path d="M89.6504 53.9243L93.4694 35.8228L98.4378 31.752L109.689 31.752L112.885 35.8228L109.066 53.9243L104.079 57.9951H92.8283L89.6504 53.9243ZM99.8573 35.7175L97.7921 37.3981L94.5089 52.7749L95.5117 54.0342H102.651L104.716 52.3536L108.004 36.9768L107.001 35.7175H99.8573Z" fill="white"/>
    <path d="M64.4844 53.7415L68.2118 36.0064L73.1985 31.9355L88.3006 31.9355L82.8056 57.817H67.6669L64.4844 53.7415ZM70.3457 53.8514H79.0232L82.8422 35.8965H74.6226L72.5574 37.5771L69.3429 52.5738L70.3457 53.8514Z" fill="white"/>
    <path d="M45.3984 31.9355H50.4584L50.9346 37.8152H58.8429L61.7827 31.9355H66.2748L53.1418 57.8124H47.917L45.3984 31.9355ZM51.9192 52.702L53.0319 49.7805L57.0661 41.7075H51.0949L51.7726 49.7805L51.6444 52.702H51.9192Z" fill="white"/>
    <path d="M41.4145 57.8124H36.3911L33.8543 47.4223L33.7077 44.6107H33.5062L32.1371 47.4223L25.3233 57.8124H20.6113L31.9356 41.2496L33.8909 31.9355L39.0608 31.9355L37.1055 41.2496L41.4145 57.8124Z" fill="white"/>
    <path d="M6.28261 10.99L17.0482 10.99L20.6108 15.4913L18.889 23.6147L13.4444 28.1161H0L5.94375 0L22.0945 0L21.5953 2.46359L8.12343 2.46359L6.28261 10.99ZM5.78348 13.4536L3.15962 25.657H12.5057L16.5262 22.3372L17.8267 15.995L15.8256 13.4536L5.78348 13.4536Z" fill="#D71C27"/>
    <path d="M33.0624 14.3504H33.1402L43.3472 0.00390625L46.287 0.00390625L34.0377 17.0521L31.6978 28.12H28.8358L31.1757 17.0521L26.1387 0.00390625L28.7992 0.00390625L33.0624 14.3504Z" fill="#D71C27"/>
    <path d="M49.9724 0.00390625L66.1643 0.00390625L65.6835 2.46749L52.1566 2.46749L46.6937 28.1245H44.0332L49.9724 0.00390625Z" fill="#D71C27"/>
    <path d="M74.3072 14.3504H74.385L84.592 0.00390625L87.5318 0.00390625L75.2825 17.0521L72.9426 28.12H70.0806L72.4206 17.0521L67.3789 0.00390625L70.0394 0.00390625L74.3072 14.3504Z" fill="#D71C27"/>
    <path d="M103.724 28.12H101.063L103.884 14.7534L90.7737 14.7534L87.93 28.12H85.2695L91.2133 0.00390625L93.8738 0.00390625L91.2911 12.2898L104.42 12.2898L107.002 0.00390625L109.663 0.00390625L103.724 28.12Z" fill="#D71C27"/>
    <path d="M79.0424 48.5393C78.3326 49.2811 77.7465 49.8169 77.3435 50.2381H80.5443C83.8138 50.2381 86.4881 47.5639 86.4881 44.2944C86.4881 44.2944 86.4881 40.9699 86.4881 40.1777C85.8974 41.0798 85.2792 41.9132 84.0657 43.0855C85.5493 40.338 87.6145 37.3386 87.6145 30.0532C87.6145 22.7678 85.1555 18.8159 84.4274 16.7965L86.4194 19.2464L86.4881 15.6059C86.4881 12.3364 83.8138 9.66219 80.5443 9.66219L76.7803 9.60724C77.7877 10.3674 78.3692 10.8482 79.2301 11.7869C76.9726 10.6833 73.9091 8.14648 66.0146 8.14648C58.1202 8.14648 55.0292 10.3491 52.6755 11.3931C53.5135 10.6238 54.0035 10.2254 54.695 9.66219L51.4941 9.66219C48.2246 9.66219 45.5504 12.3364 45.5504 15.6059C45.5504 15.6059 45.4679 18.2985 45.5504 19.3746C46.0724 18.5229 46.9745 17.5109 47.872 16.8332C44.4102 23.8805 44.4102 27.2736 44.4102 30.3096C44.4102 34.4171 45.2939 38.4926 47.4919 43.1221C46.86 42.4169 45.8617 41.4141 45.5458 41.0066C45.4817 42.2063 45.5458 44.299 45.5458 44.299C45.5458 47.5685 48.22 50.2427 51.4895 50.2427L55.2628 50.2794C54.7224 49.8947 53.7745 49.0979 52.877 48.2096C56.9983 50.2015 60.918 51.3005 66.0101 51.3005C70.951 51.3005 75.2645 50.3893 79.0424 48.5393Z" fill="#D71C27"/>
    <path d="M83.2996 30.058C83.2996 20.4143 75.483 12.5977 65.8392 12.5977C56.1955 12.5977 48.3789 20.4143 48.3789 30.058C48.3789 39.7017 56.1955 47.5183 65.8392 47.5183C75.483 47.5183 83.2996 39.7017 83.2996 30.058ZM50.151 30.058C50.151 21.3942 57.1755 14.3698 65.8392 14.3698C74.503 14.3698 81.5275 21.3942 81.5275 30.058C81.5275 38.7218 74.503 45.7462 65.8392 45.7462C57.1755 45.7508 50.151 38.7264 50.151 30.058Z" fill="#191919"/>
    <path d="M65.5792 40.0916C60.1621 39.9542 55.8119 35.5216 55.8119 30.0724C55.8119 24.6324 60.1438 20.2089 65.5426 20.0532C65.8998 18.1757 65.4785 16.9119 64.7138 15.7305C57.291 16.3029 51.4434 22.503 51.4434 30.077C51.4434 37.5593 57.1582 43.7092 64.4573 44.4006C65.6479 42.8116 65.7532 41.2456 65.5792 40.0916Z" fill="#191919"/>
    <path d="M74.3672 30.0577C74.3672 25.3503 70.5528 21.5312 65.8409 21.5312C61.1335 21.5312 57.3145 25.3457 57.3145 30.0577C57.3145 34.765 61.1289 38.584 65.8409 38.584C70.5528 38.584 74.3672 34.7696 74.3672 30.0577ZM58.1204 30.0577C58.1204 25.7899 61.5776 22.3326 65.8454 22.3326C70.1132 22.3326 73.5705 25.7899 73.5705 30.0577C73.5705 34.3254 70.1132 37.7827 65.8454 37.7827C61.5776 37.7827 58.1204 34.3254 58.1204 30.0577Z" fill="white"/>
    <path d="M82.9253 14.7724C83.6941 14.7724 84.3173 14.1492 84.3173 13.3803C84.3173 12.6115 83.6941 11.9883 82.9253 11.9883C82.1564 11.9883 81.5332 12.6115 81.5332 13.3803C81.5332 14.1492 82.1564 14.7724 82.9253 14.7724Z" fill="white"/>
    <path d="M48.9897 14.7724C49.7585 14.7724 50.3818 14.1492 50.3818 13.3803C50.3818 12.6115 49.7585 11.9883 48.9897 11.9883C48.2209 11.9883 47.5977 12.6115 47.5977 13.3803C47.5977 14.1492 48.2209 14.7724 48.9897 14.7724Z" fill="white"/>
    <path d="M82.9253 47.999C83.6941 47.999 84.3173 47.3757 84.3173 46.6069C84.3173 45.8381 83.6941 45.2148 82.9253 45.2148C82.1564 45.2148 81.5332 45.8381 81.5332 46.6069C81.5332 47.3757 82.1564 47.999 82.9253 47.999Z" fill="white"/>
    <path d="M48.9897 47.999C49.7585 47.999 50.3818 47.3757 50.3818 46.6069C50.3818 45.8381 49.7585 45.2148 48.9897 45.2148C48.2209 45.2148 47.5977 45.8381 47.5977 46.6069C47.5977 47.3757 48.2209 47.999 48.9897 47.999Z" fill="white"/>
    <path d="M68.7348 34.7834C70.5203 34.7834 71.9677 32.6677 71.9677 30.0577C71.9677 27.4478 70.5203 25.332 68.7348 25.332C66.9494 25.332 65.502 27.4478 65.502 30.0577C65.502 32.6677 66.9494 34.7834 68.7348 34.7834Z" fill="#191919"/>
    <path d="M52.3958 43.561C50.6419 42.0224 49.1766 40.1312 48.128 38.0202C47.5968 36.967 47.1755 35.8589 46.855 34.7232C46.5436 33.583 46.3421 32.4154 46.2459 31.2385C46.0582 28.8848 46.3238 26.4899 47.029 24.2415C47.7296 21.9886 48.8881 19.8959 50.3855 18.1055C49.0621 20.0241 48.0593 22.1443 47.4411 24.3652C46.8366 26.5861 46.6031 28.9077 46.7954 31.1973C46.9649 33.4869 47.5556 35.7444 48.5172 37.8417C49.4742 39.9298 50.7885 41.8713 52.3958 43.561Z" fill="white"/>
    <path d="M78.1523 14.3691C80.5106 16.0222 82.4934 18.2385 83.8671 20.8029C84.5586 22.0805 85.0898 23.445 85.4698 24.8554C85.8453 26.2658 86.0468 27.7174 86.088 29.1736C86.1247 30.6297 86.001 32.0905 85.7034 33.5192C85.4012 34.9433 84.9478 36.34 84.3251 37.6496C83.0978 40.2872 81.2341 42.6088 78.972 44.3855C81.0967 42.4486 82.8002 40.0811 83.9358 37.4756C85.0715 34.87 85.6255 32.0218 85.5385 29.1873C85.4698 26.3528 84.7601 23.5412 83.4825 20.9998C82.2095 18.4583 80.3824 16.1916 78.1523 14.3691Z" fill="#191919"/>
    <path d="M0.224609 44.162L6.26452 41.1809L7.23531 34.5137L11.9381 39.3401L18.5779 38.1999L15.4412 44.162L18.5779 50.124L11.9381 48.9838L7.23531 53.8103L6.26452 47.143L0.224609 44.162Z" fill="#D71C27"/>
    <path d="M112.336 15.7264L118.376 12.7454L119.347 6.07812L124.049 10.9046L130.685 9.76435L127.552 15.7264L130.685 21.6885L124.049 20.5483L119.347 25.3747L118.376 18.7075L112.336 15.7264Z" fill="white"/>
</svg>
