<svg width="85" height="663" viewBox="0 0 85 663" fill="none" xmlns="http://www.w3.org/2000/svg">
    <g clip-path="url(#clip0_1_3)">
        <path d="M349.807 663L349.807 0.000366211C349.807 0.000366211 187.601 0.00035203 143.207 0.000348149C128.412 0.000346856 112.995 0.000345508 98.1995 0.000344215C82.2637 0.000342822 69.6 0.000341714 56.8891 0.000340603C46.6637 0.000339709 32.2302 0.000338448 26.677 0.000337962C18.6855 0.000337263 14.0133 0.000336855 14.965 0.000336938C16.5932 2.76749 17.3011 5.74198 14.7762 7.80277C15.2797 10.6413 13.9268 13.2529 13.7694 15.8581C14.1077 18.4632 11.2209 21.0619 13.0536 23.868C17.3955 26.2333 17.836 27.9701 14.8549 30.2513C15.6493 33.1675 14.1549 35.6041 13.3369 38.3583C13.1009 40.6524 9.30172 43.7306 10.0411 46.8413C10.1119 49.9519 13.6515 53.0885 9.94671 55.4992C8.64101 57.1064 8.82195 57.0351 14.501 58.2405C19.9676 60.2948 14.674 59.4653 16.5224 61.0595C19.0315 62.5695 22.8621 64.2609 19.4405 66.0949C20.3215 68.6223 15.2403 71.0783 19.6844 73.6252C23.2004 77.0534 20.5261 79.9307 21.4542 83.4367C19.8653 85.7632 12.6603 88.1739 21.407 90.5003C29.9255 93.598 16.9787 93.436 24.6241 96.0347C26.8422 98.776 30.1458 101.569 26.3702 104.673C23.9319 107.836 23.46 110.797 28.0693 113.726C27.3535 116.656 32.8673 119.552 31.1054 122.585C24.5218 123.609 29.9098 125.8 32.5763 126.901C36.69 127.88 32.5998 128.418 35.7068 129.364C41.4881 132.559 42.0072 136.667 34.5506 139.635C36.9024 141.955 30.5311 143.939 30.2795 146.006C26.6455 148.067 27.3062 150.205 28.0299 152.823C25.0567 155.824 24.4588 158.857 28.1085 161.857C18.5203 164.767 23.9397 167.495 26.5196 170.204C25.7881 172.913 23.6959 175.589 24.7499 178.402C23.3734 180.754 21.7452 184.655 24.8915 186.988C23.0509 189.27 29.5479 191 28.0928 193.495C32.8122 196.949 32.3718 200.494 30.6177 204.026C27.2591 207.557 30.7592 211.076 33.4965 214.479C36.8236 217.518 31.7661 220.752 34.9517 224.031C32.1437 227.31 41.0162 230.628 34.7551 233.855C33.764 236.486 39.3329 239.156 34.8652 241.807C37.2485 244.457 36.3282 247.082 33.9449 249.622C33.0875 252.351 31.8998 254.969 31.1919 257.548C33.1898 260.134 28.6748 262.687 27.613 265.305C25.8432 267.359 27.204 268.532 26.4804 270.69C23.9555 273.743 23.8139 274.916 23.0194 277.819C22.516 281.163 26.0871 284.935 20.0934 288.771C22.4138 292.607 16.4201 296.502 19.7867 300.079C17.773 305.97 15.1065 311.705 18.9529 317.441C17.2381 323.176 14.4774 328.918 18.127 334.808C18.3866 334.808 19.063 343.304 18.127 351.8C18.3079 360.296 19.2754 368.792 18.127 368.792C20.4395 371.423 18.9686 374.236 18.418 377.042C17.9618 379.848 20.6912 382.634 17.7573 385.22C17.5922 385.784 19.417 386.393 16.373 387.093C13.9032 388.104 16.5302 389.283 16.5931 390.288C18.7483 392.582 13.2975 394.196 12.7312 396.425C15.9561 398.136 11.7165 400.553 10.3163 402.348C5.53402 403.975 4.29125 404.921 6.48577 406.288C4.88903 407.882 3.57546 410.922 1.75063 412.834C-1.96986 415.348 2.28554 418.562 1.50683 421.154C1.60909 424.537 -0.420237 427.778 1.82937 430.972C5.17226 434.174 -0.184337 437.336 4.51934 440.577C3.00914 440.674 6.79253 442.65 5.11715 443.065C3.80358 443.765 7.5555 443.953 8.25554 444.653C6.85546 446.247 12.6682 446.065 9.82079 447.472C11.9052 448.82 9.5219 450.414 12.8727 451.814C12.3064 454.399 13.6356 458.67 13.1558 461.431C10.8984 464.373 12.3457 467.315 13.1558 470.257C10.3163 472.603 16.4988 475.37 13.7222 478.118C13.9582 480.872 14.9335 483.601 13.2817 485.875C8.02745 488.15 3.94511 489.148 9.7028 491.934C7.74425 494.948 8.54658 498.24 9.83653 501.279C9.69496 504.059 11.4176 506.405 10.9614 509.095C9.93098 513.003 15.8066 515.433 16.837 519.366C24.5218 522.088 27.5343 524.091 19.8338 526.871C17.7258 527.875 13.6592 529.638 19.9282 530.681C20.345 533.39 15.5864 534.142 16.7584 536.533C17.018 538.983 17.4348 541.802 15.7043 544.375C19.5034 547.083 12.3693 549.144 13.1087 551.847C16.0505 555.171 10.8749 558.483 13.1166 561.762C15.6965 565.041 8.44431 568.294 14.6661 571.502C7.1229 574.703 19.9046 577.84 15.0436 580.97C14.7369 584.1 13.4941 587.224 16.4674 590.405C16.4359 593.166 17.537 596.653 20.1327 600.165C17.0729 603.684 22.7441 607.235 21.1552 610.126C26.2443 612.148 15.1144 614.655 19.417 616.541C21.6665 618.077 12.3693 619.244 16.546 620.818C17.4348 623.411 16.3808 626.904 16.4673 629.593C19.1417 633.08 16.6324 636.573 16.4909 640.059C15.7043 643.546 17.3483 647.039 16.4752 650.525C10.8984 654.906 20.2349 658.904 19.1416 662.961C16.3178 662.961 22.9329 662.961 30.6255 662.961C36.0764 662.961 44.587 662.961 60.2476 662.961C72.581 662.961 86.2437 662.961 100.748 662.961C158.749 663 349.807 663 349.807 663Z" fill="white"/>
        <path d="M716.113 663L716.113 331.5L716.113 6.10352e-05C716.113 6.10352e-05 237.169 1.91646e-05 177.367 1.39365e-05C162.414 1.26293e-05 147.469 1.13227e-05 133.453 1.00974e-05C119.373 8.8665e-06 105.372 7.6425e-06 95.1388 6.74788e-06C83.3324 5.71573e-06 73.9486 4.89538e-06 68.0415 4.37896e-06C61.4815 3.80547e-06 58.2094 3.51941e-06 57.7611 3.48022e-06C54.1036 0.719338 55.9362 1.84041 59.1454 2.60511C58.3353 4.95752 61.7017 8.00337 59.3656 10.3493C61.7489 12.3259 60.0421 14.082 57.8869 16.0651C57.5172 18.8841 53.7574 20.6663 54.6462 23.2974C53.1124 24.7231 52.8214 26.6736 54.4889 28.1252C54.6305 30.5814 59.3892 29.9787 57.0138 31.6377C62.9445 33.867 58.3824 36.6472 59.8611 39.0773C58.2959 41.514 59.9714 43.6007 66.2089 44.4497C71.2901 45.817 69.7405 48.3185 70.6923 54.1574C74.0902 58.1948 69.2842 62.0118 67.8291 66.3926C61.5916 68.732 59.932 71.0845 67.9078 73.424C63.6367 77.403 64.8402 79.6841 64.4155 83.2484C62.7951 86.0285 62.8658 89.3465 62.449 92.6191C56.5969 95.8918 64.6672 99.1191 64.9189 101.718C67.9236 106.74 71.7227 111.97 70.4249 117.329C67.4359 122.689 70.7237 128.178 71.1406 133.725C71.8249 137.011 69.4967 141.43 72.3284 144.418C68.6708 147.101 76.1668 148.384 76.9848 151.592C78.8254 155.953 81.185 160.094 81.2322 164.287C79.3838 168.48 85.4089 172.725 82.8133 177.287C84.6932 181.791 85.5505 185.718 81.2243 190.086C82.4357 192.471 77.8579 194.946 78.6051 197.467C75.0656 199.988 77.2128 202.548 77.7398 205.082C76.2847 206.767 80.3434 208.017 79.3287 209.611C83.765 213.202 79.0062 217.744 79.4703 221.412C78.4242 223.817 76.8747 226.344 79.7693 228.871C76.0645 231.399 77.4017 233.92 79.549 236.311C80.658 239.532 80.1783 242.688 76.214 245.753C80.0839 248.812 78.8726 251.78 71.0305 254.612C64.0851 257.016 70.5349 259.835 69.1663 262.713C70.2832 265.59 69.3708 268.526 69.4887 271.163C68.8595 273.678 67.9313 276.983 69.2921 279.322C66.6885 281.026 65.6582 281.765 65.1941 283.321C64.0851 285.129 59.9242 287.254 63.6368 289.185C58.3667 294.467 63.8491 300.008 62.394 305.575C60.8995 311.141 63.2513 316.727 62.8344 322.093C64.6356 324.848 57.0059 327.764 62.5197 330.667C59.051 333.57 66.0986 336.461 63.2041 339.169C60.9073 342.591 65.1705 345.968 64.5648 349.344C65.0053 352.714 63.6682 356.084 63.2434 359.486C57.3914 361.365 66.0122 363.128 61.3164 364.871C61.0411 368.26 60.0656 371.87 60.9309 375.259C57.8475 378.454 57.4228 381.111 56.1485 384.377C58.1464 388.136 56.3766 392.135 53.1831 395.952C53.718 400.352 56.2587 404.823 50.0999 409.308C50.2572 413.799 49.9818 418.309 50.3594 422.807C56.2351 425.593 49.7851 428.736 51.3897 431.931C49.7615 435.133 50.7527 438.392 51.1853 441.425C49.5021 444.432 50.9257 446.985 51.9089 449.403C55.2518 451.813 53.5057 454.082 55.9834 456.512C57.9891 459.616 57.2655 462.331 59.6566 465.863C61.9455 468.889 66.2166 471.255 62.9523 474.56C61.6624 477.418 62.1579 480.373 62.9051 483.237C64.7299 487.501 61.0095 490.398 59.3734 494.429C57.1081 496.794 61.1197 499.367 59.1139 501.959C56.9272 504.545 54.7799 507.144 59.4915 509.548C63.3692 513.929 59.2791 517.37 57.8633 521.511C56.6677 524.531 57.1947 525.464 54.5911 528.309C51.5314 531.206 53.1045 534.932 52.7427 537.913C50.4852 540.991 51.0201 544.173 52.5303 547.362C53.954 550.55 54.1349 553.745 52.8292 556.83C49.8953 560.018 47.9211 564.451 53.8046 567.309C58.6262 570.627 58.1936 571.1 56.5182 574.923C55.59 578.449 55.1968 581.942 57.7374 585.454C56.4396 588.967 55.5429 592.505 57.816 596.121C64.4153 598.733 53.136 601.344 57.8318 603.949C56.298 606.561 58.3195 609.173 57.8239 611.778C53.8596 617.111 61.5994 617.876 60.7342 621.81C58.7127 624.194 63.6682 626.689 64.1323 629.275C65.1863 631.861 65.2177 634.544 64.4548 637.292C65.674 640.389 68.3167 643.105 66.1379 646.111C67.8763 650.44 68.4741 654.232 67.7583 658.606C71.0068 660.459 67.4201 661.859 68.946 663C67.5302 663 71.5653 663 78.7466 663C82.53 663 97.8682 663 104.578 663C115.267 663 127.734 663 141.09 663C207.909 663 716.113 663 716.113 663Z" fill="#0C0E14"/>
    </g>
    <defs>
        <clipPath id="clip0_1_3">
            <rect width="85" height="663" fill="white"/>
        </clipPath>
    </defs>
</svg>
