<svg width="190" height="190" viewBox="0 0 190 190" fill="none" xmlns="http://www.w3.org/2000/svg">
    <path d="M92.2479 2.94501C93.0936 0.0758994 97.1575 0.0758967 98.0031 2.94501L111.631 49.1796C112.171 51.0128 114.265 51.8802 115.943 50.966L158.272 27.9093C160.899 26.4785 163.773 29.3521 162.342 31.9788L139.285 74.3078C138.371 75.9861 139.238 78.08 141.071 78.6204L187.306 92.2479C190.175 93.0936 190.175 97.1575 187.306 98.0031L141.071 111.631C139.238 112.171 138.371 114.265 139.285 115.943L162.342 158.272C163.773 160.899 160.899 163.773 158.272 162.342L115.943 139.285C114.265 138.371 112.171 139.238 111.631 141.071L98.0031 187.306C97.1575 190.175 93.0936 190.175 92.2479 187.306L78.6204 141.071C78.0801 139.238 75.9861 138.371 74.3078 139.285L31.9788 162.342C29.3521 163.773 26.4785 160.899 27.9093 158.272L50.966 115.943C51.8802 114.265 51.0129 112.171 49.1796 111.631L2.94502 98.0031C0.075907 97.1575 0.0759044 93.0936 2.94501 92.2479L49.1796 78.6204C51.0129 78.08 51.8802 75.9861 50.966 74.3078L27.9093 31.9788C26.4785 29.3521 29.3521 26.4785 31.9788 27.9093L74.3078 50.966C75.9861 51.8802 78.0801 51.0128 78.6204 49.1796L92.2479 2.94501Z" fill="#F5EB47"/>
</svg>
